<?xml version="1.0" standalone="no"?>
<!DOCTYPE svg PUBLIC "-//W3C//DTD SVG 20010904//EN"
 "http://www.w3.org/TR/2001/REC-SVG-20010904/DTD/svg10.dtd">
<svg version="1.0" xmlns="http://www.w3.org/2000/svg"
 width="474.000000pt" height="450.000000pt" viewBox="0 0 474.000000 450.000000"
 preserveAspectRatio="xMidYMid meet">

<g transform="translate(0.000000,450.000000) scale(0.100000,-0.100000)"
fill="#000000" stroke="none">
<path d="M0 2250 l0 -2250 2370 0 2370 0 0 2250 0 2250 -2370 0 -2370 0 0
-2250z m2476 1502 c-3 -2 -19 12 -36 31 l-31 36 -22 -22 c-17 -17 -22 -32 -20
-71 1 -26 7 -54 13 -61 6 -7 8 -24 5 -38 -5 -18 -1 -30 16 -46 12 -11 19 -24
15 -28 -4 -4 -11 -1 -16 7 -5 8 -12 12 -15 8 -4 -3 4 -16 17 -28 14 -13 17
-20 8 -18 -11 2 -15 -5 -13 -28 1 -24 -4 -34 -22 -44 -13 -7 -31 -10 -41 -6
-9 3 -23 1 -31 -6 -11 -9 -19 -7 -36 10 -12 12 -16 22 -9 22 7 0 12 5 12 10 0
6 -11 8 -25 4 -16 -4 -25 -2 -25 5 0 20 26 23 65 6 21 -8 40 -13 43 -10 3 3
13 -2 23 -11 12 -11 19 -12 24 -4 10 16 -2 40 -19 40 -9 0 -13 6 -10 14 3 8 0
24 -6 36 -7 13 -8 25 -4 29 28 20 34 39 23 67 -25 65 -22 99 13 142 l33 41 38
-41 c20 -22 35 -43 33 -46z m-65 -69 c13 -16 12 -17 -3 -4 -10 7 -18 15 -18
17 0 8 8 3 21 -13z m49 -33 c-19 -26 -23 -28 -36 -16 -19 20 -18 26 7 26 11 0
17 5 14 10 -3 6 3 10 15 10 l21 0 -21 -30z m10 -50 c0 -5 12 -10 28 -10 l27
-1 -28 -22 c-22 -19 -25 -25 -15 -36 11 -12 10 -13 -5 -8 -10 4 -16 3 -12 -2
3 -5 -1 -12 -7 -14 -8 -4 -7 -6 4 -6 9 -1 18 -5 20 -11 2 -5 23 0 47 11 24 10
46 17 49 15 2 -3 -13 -13 -34 -23 -22 -10 -42 -22 -46 -27 -3 -5 -23 -11 -43
-12 -29 -3 -35 -1 -26 10 6 7 10 28 9 48 -1 41 8 59 26 52 8 -3 17 0 21 6 3 6
3 10 -2 9 -4 -1 -19 2 -31 6 -18 6 -20 10 -10 16 18 12 28 11 28 -1z m103
-148 c-11 -15 -30 -28 -42 -30 -33 -5 -25 17 14 35 19 9 35 21 35 27 0 5 3 6
7 3 4 -4 -2 -20 -14 -35z m-199 -56 c13 -11 17 -24 14 -50 -2 -19 -1 -33 3
-30 4 2 9 -1 11 -8 5 -15 28 -1 28 18 0 8 -5 14 -11 14 -8 0 -7 5 2 16 11 14
11 18 -1 28 -8 6 -16 20 -18 31 -2 18 -2 18 8 3 12 -20 40 -24 40 -6 0 6 3 8
6 5 4 -3 15 -2 25 4 11 5 19 8 19 5 0 -2 3 -13 6 -23 5 -15 4 -15 -5 -3 -8 12
-14 12 -28 4 -10 -6 -16 -13 -13 -16 3 -3 0 -11 -6 -19 -14 -16 -16 -71 -3
-63 5 3 6 -2 3 -11 -7 -16 10 -16 69 0 21 6 21 5 3 -9 -10 -9 -22 -13 -27 -11
-4 3 -10 1 -14 -5 -8 -13 -45 -13 -45 -1 0 10 -39 27 -54 22 -5 -1 -12 3 -16
9 -5 8 -9 7 -13 -4 -4 -10 -1 -16 8 -16 8 0 15 -5 15 -11 0 -6 -7 -9 -15 -5
-8 3 -15 1 -15 -5 0 -6 -9 -8 -19 -4 -11 3 -22 1 -26 -5 -10 -17 -25 -11 -37
15 -6 13 -19 27 -28 30 -9 3 -23 17 -30 30 -7 14 -21 25 -30 25 -21 0 -40 20
-40 42 0 26 25 22 48 -7 11 -13 22 -22 25 -19 3 4 30 -5 58 -20 62 -31 77 -32
94 -9 15 20 9 44 -9 37 -16 -6 -50 31 -41 45 7 12 22 5 59 -23z m16 24 c0 -5
-7 -10 -15 -10 -8 0 -15 5 -15 10 0 6 7 10 15 10 8 0 15 -4 15 -10z m330 -30
c-8 -5 -22 -9 -30 -9 -10 0 -8 3 5 9 27 12 43 12 25 0z m-55 -20 c-3 -5 -3
-15 1 -21 4 -8 9 -7 15 2 5 8 9 10 9 4 0 -5 -4 -16 -9 -24 -7 -10 -12 -8 -25
10 -12 18 -13 25 -3 31 16 10 19 10 12 -2z m55 -5 c-7 -9 -15 -13 -19 -10 -3
3 1 10 9 15 21 14 24 12 10 -5z m-80 -23 c0 -4 -10 -13 -21 -20 -28 -18 -73
-26 -64 -12 3 5 13 10 21 10 8 0 14 4 14 9 0 5 10 12 23 14 12 2 23 5 25 6 1
0 2 -2 2 -7z m-85 -12 c-3 -5 -12 -10 -18 -10 -7 0 -6 4 3 10 19 12 23 12 15
0z m-440 -61 c4 -5 -2 -6 -12 -2 -14 5 -13 1 6 -20 14 -15 22 -29 20 -32 -6
-5 -59 43 -59 53 0 11 39 12 45 1z m114 -73 c47 -31 80 -56 75 -56 -5 0 -18 7
-28 15 -11 8 -27 15 -36 15 -8 0 -21 9 -28 20 -7 12 -18 18 -24 14 -7 -5 -5
-11 7 -21 11 -7 15 -13 9 -13 -5 0 -1 -5 9 -11 9 -5 22 -7 27 -4 6 4 7 -1 3
-11 -5 -14 -3 -16 11 -11 9 4 15 3 12 -2 -7 -11 55 -42 68 -34 5 3 6 1 2 -5
-11 -17 9 -15 24 3 13 16 30 20 30 7 0 -4 -15 -14 -32 -22 -26 -11 -29 -15
-14 -18 10 -2 22 1 26 8 6 9 9 9 16 -1 4 -7 3 -14 -3 -16 -5 -2 -8 -15 -5 -28
2 -14 3 -25 1 -25 -2 0 -40 34 -83 75 -44 41 -82 73 -84 71 -2 -3 -12 4 -22
14 -10 10 -24 22 -33 26 -8 5 -18 24 -22 43 -4 18 -3 31 1 28 5 -3 47 -31 93
-61z m282 40 c-21 -23 -22 -25 -4 -29 12 -3 7 -5 -12 -7 -16 -1 -24 -4 -18 -7
10 -4 10 -10 -2 -26 -20 -28 -19 -37 3 -38 12 -1 9 -4 -8 -10 -18 -6 -12 -7
24 -4 31 3 61 14 82 30 41 31 128 70 118 52 -6 -9 -4 -9 7 -1 22 17 49 24 49
13 0 -5 -12 -15 -27 -22 -30 -13 -33 -15 -78 -51 -23 -18 -35 -22 -48 -15 -22
13 -40 2 -34 -21 3 -13 -12 -32 -49 -65 -30 -25 -52 -51 -49 -56 4 -5 1 -9 -5
-9 -7 0 -10 7 -6 15 3 8 1 15 -4 15 -6 0 -10 7 -10 15 0 8 -7 15 -16 15 -15 0
-15 -2 1 -26 9 -14 14 -32 11 -40 -6 -15 -6 -15 44 -16 69 -1 74 0 60 17 -7 9
-9 19 -5 23 4 4 10 1 12 -5 7 -20 24 -15 21 5 -2 10 3 17 13 17 9 0 23 5 30
11 8 6 21 13 29 17 8 3 31 12 51 21 35 15 36 15 35 -7 -1 -15 5 -22 19 -24
l20 -3 -20 9 c-16 8 -9 10 30 11 40 2 45 4 25 10 -20 6 -17 7 16 7 30 -1 40
-5 37 -14 -3 -7 -11 -13 -18 -13 -22 0 -65 -27 -57 -35 4 -5 -1 -6 -10 -2 -10
3 -19 0 -22 -9 -3 -9 -10 -12 -16 -9 -5 3 -10 1 -10 -5 0 -6 -12 -16 -27 -22
-16 -7 -35 -17 -43 -23 -22 -18 -52 -27 -44 -14 3 6 -8 3 -25 -5 -35 -19 -43
-33 -8 -16 21 11 21 10 -2 -10 -19 -16 -26 -18 -32 -8 -8 12 -13 4 -10 -14 0
-4 -5 -5 -13 -2 -8 3 -17 0 -22 -7 -5 -8 -3 -10 7 -4 8 4 4 -2 -8 -14 -42 -40
-27 -51 33 -26 19 8 42 12 52 9 12 -4 13 -3 5 3 -18 13 106 73 151 73 73 0 53
-36 -49 -89 -72 -38 -75 -40 -144 -81 -30 -17 -49 -24 -42 -16 9 11 10 16 2
16 -6 0 -16 -9 -23 -20 -7 -11 -19 -20 -26 -20 -8 0 -6 -7 7 -21 15 -17 23
-19 39 -10 11 6 28 8 36 5 9 -3 16 -1 16 5 0 12 72 51 95 51 8 0 15 -6 15 -13
0 -25 -31 -57 -56 -57 -13 0 -24 -4 -24 -8 0 -5 -19 -19 -42 -32 -22 -12 -38
-18 -34 -12 3 6 1 14 -5 18 -7 4 -9 3 -6 -3 4 -6 -2 -22 -13 -36 -20 -25 -26
-48 -12 -46 20 3 30 -3 35 -21 4 -16 11 -18 42 -13 35 6 41 3 71 -31 32 -36
54 -40 54 -10 0 8 5 14 11 14 5 0 7 -4 4 -10 -9 -15 12 -12 45 5 38 20 40 44
3 40 -15 -1 -29 -8 -31 -14 -8 -23 -29 -11 -25 13 4 18 10 23 22 19 12 -5 13
-3 4 7 -12 13 -7 40 9 40 5 0 6 -5 2 -12 -4 -6 -3 -8 4 -5 16 11 42 -3 42 -23
0 -22 16 -35 25 -21 3 6 12 8 20 4 8 -3 15 0 15 6 0 6 9 11 19 11 23 0 36 16
21 25 -5 3 -22 -2 -36 -12 l-27 -17 8 29 c4 17 9 40 10 52 2 12 6 26 9 31 3 5
8 23 11 41 4 25 2 31 -7 25 -7 -4 -5 2 5 13 12 14 15 23 8 28 -8 4 -8 12 -1
25 7 13 6 20 -3 23 -6 3 3 6 22 6 29 1 32 3 21 16 -7 9 -19 14 -27 11 -18 -7
-17 27 2 64 9 17 21 27 29 24 19 -7 22 -154 4 -165 -7 -5 -8 -9 -2 -9 6 0 9
-21 6 -59 -2 -32 1 -67 7 -79 7 -14 8 -23 1 -27 -5 -3 -10 -13 -10 -22 0 -17
-39 -56 -61 -61 -8 -2 -21 -9 -29 -16 -8 -7 -23 -16 -32 -19 -10 -4 -18 -11
-18 -17 0 -6 -6 -8 -12 -4 -10 5 -10 3 0 -7 9 -10 15 -11 20 -3 4 6 18 15 31
19 14 4 42 20 64 36 41 29 67 37 67 19 0 -5 -10 -15 -22 -21 -32 -16 -31 -15
-18 -38 12 -23 1 -27 -35 -11 -18 8 -18 9 -2 9 10 1 15 6 12 11 -9 15 -48 -9
-41 -26 3 -8 1 -14 -4 -14 -6 0 -10 -5 -10 -11 0 -6 9 -8 22 -3 20 6 21 5 9
-10 -8 -9 -11 -19 -8 -23 4 -3 1 -13 -5 -22 -7 -9 0 -5 14 8 26 23 27 23 21 2
-5 -20 4 -26 30 -22 5 1 5 -3 2 -9 -4 -6 1 -18 11 -25 17 -13 17 -16 4 -26
-13 -9 -13 -10 0 -6 8 2 17 14 18 26 l4 23 29 -28 c30 -29 44 -89 15 -65 -10
8 -16 9 -21 1 -3 -5 -16 -10 -28 -9 l-22 0 23 9 c32 14 27 23 -10 18 -30 -5
-64 12 -51 25 3 3 -11 13 -31 21 -27 11 -34 19 -30 33 5 14 4 15 -4 4 -9 -12
-13 -12 -27 2 -23 24 -55 22 -55 -2 0 -11 -4 -23 -10 -26 -13 -8 -13 -112 0
-120 6 -4 9 -19 8 -33 -2 -21 1 -26 16 -24 12 2 16 -1 11 -10 -3 -7 0 -5 8 4
11 14 16 15 26 5 10 -9 15 -8 25 6 16 21 26 22 26 2 0 -8 5 -15 11 -15 6 0 8
9 4 22 -6 16 -4 20 8 15 8 -3 20 0 26 6 12 12 41 19 41 9 0 -15 -17 -30 -63
-57 -37 -21 -51 -25 -57 -15 -4 6 -10 8 -13 3 -9 -14 8 -34 31 -36 11 0 18 -5
16 -9 -3 -4 3 -8 12 -8 10 0 14 3 11 7 -10 10 44 34 64 28 9 -3 20 -1 24 5 3
5 15 10 26 10 11 0 19 7 20 18 0 9 3 12 5 5 3 -7 15 -8 32 -4 15 4 25 11 24
16 -5 11 26 28 38 20 6 -3 10 -1 10 6 0 9 3 9 14 0 9 -7 17 -8 20 -2 3 5 0 11
-6 14 -7 3 1 4 17 2 17 -1 36 -3 43 -4 18 -2 15 -21 -5 -21 -9 0 -13 -3 -9 -7
9 -9 -105 -73 -117 -66 -6 3 -8 2 -4 -3 3 -5 -17 -22 -44 -39 -27 -16 -49 -35
-49 -41 0 -7 -9 -10 -22 -7 -22 4 -22 4 -3 -8 11 -6 29 -19 40 -28 20 -16 20
-16 1 7 -19 22 -19 22 7 22 14 0 37 4 51 9 15 6 26 6 28 1 4 -12 58 2 57 14 0
7 141 60 186 70 6 1 34 10 63 20 29 10 56 15 59 12 8 -7 9 -6 -50 -34 -26 -12
-46 -26 -43 -30 3 -5 -32 -26 -77 -47 -125 -60 -161 -84 -147 -100 8 -10 8
-14 -2 -18 -9 -4 -9 -6 -1 -6 6 -1 18 6 27 14 9 9 17 11 21 5 3 -5 12 -10 18
-10 7 0 6 4 -3 11 -12 8 -11 9 6 4 14 -3 28 1 38 10 9 9 20 13 26 10 5 -3 10
-2 10 3 0 9 78 33 118 35 12 1 22 5 22 10 0 4 9 7 20 7 11 0 20 -4 20 -10 0
-5 -6 -7 -13 -4 -8 3 -20 -3 -28 -12 -12 -16 -12 -17 4 -11 12 4 16 3 11 -4
-3 -6 -15 -9 -25 -6 -11 3 -19 0 -19 -6 0 -7 -24 -25 -54 -40 -30 -16 -62 -37
-71 -47 -17 -18 -16 -19 31 -13 27 3 61 6 76 6 15 1 33 8 40 15 6 6 20 12 29
12 9 0 43 13 75 29 90 44 155 64 168 51 8 -8 4 -16 -14 -30 -14 -11 -29 -20
-35 -20 -14 0 -183 -88 -218 -112 -26 -19 -27 -21 -12 -38 21 -23 56 -33 48
-14 -6 17 32 19 43 3 5 -8 10 -6 16 6 11 18 57 13 70 -8 4 -6 10 -8 15 -3 4 4
-1 12 -11 18 -18 10 -16 12 15 23 19 6 39 8 45 3 7 -5 17 -2 24 7 7 8 19 15
26 15 17 0 58 -39 50 -48 -11 -10 -81 -34 -101 -33 -11 0 -22 -3 -25 -7 -3 -4
-22 -15 -43 -25 -33 -15 -37 -20 -26 -33 6 -8 19 -14 28 -12 9 1 22 -1 29 -5
7 -5 12 -4 12 2 0 6 7 11 17 11 14 0 14 -2 -2 -20 -18 -20 -17 -20 13 -20 22
0 32 -5 32 -15 0 -8 9 -15 20 -15 13 0 20 -7 20 -19 0 -26 15 -34 40 -21 16 8
20 8 20 -3 0 -20 30 -45 31 -26 0 11 2 11 6 1 4 -10 9 -9 24 4 11 10 19 12 19
6 0 -7 7 -12 15 -12 9 0 27 -11 40 -24 13 -13 26 -21 30 -18 3 3 8 -4 12 -16
3 -12 9 -22 14 -22 5 0 8 -3 7 -7 -1 -5 4 -28 11 -52 7 -24 9 -47 4 -51 -4 -5
-35 -15 -67 -24 l-60 -15 -58 36 c-52 32 -79 65 -64 80 3 3 1 14 -5 24 -10 20
-44 26 -54 9 -11 -18 -26 -10 -20 10 5 15 2 20 -13 20 -11 0 -22 6 -25 13 -4
10 -7 10 -18 0 -7 -7 -20 -13 -29 -12 -10 0 -11 2 -2 6 6 2 12 11 12 18 0 21
38 24 75 5 19 -10 35 -14 35 -9 0 5 -6 9 -12 10 -10 0 -10 2 -1 5 18 8 55 -16
50 -31 -4 -8 1 -11 12 -8 10 2 23 -3 31 -12 11 -13 10 -15 -2 -10 -11 5 -15
-1 -13 -22 3 -42 4 -45 15 -38 6 4 8 10 6 14 -8 12 69 2 92 -12 7 -5 12 -4 12
2 0 6 -4 11 -10 11 -5 0 -10 5 -10 10 0 14 33 13 48 -2 9 -9 15 -9 25 1 10 12
8 13 -8 7 -19 -6 -19 -6 -1 9 18 14 18 15 -13 32 -17 10 -31 23 -31 29 0 12
-84 13 -96 1 -5 -4 2 -10 14 -14 12 -3 22 -9 22 -15 0 -5 10 -4 23 3 20 10 21
10 6 -5 -14 -16 -19 -15 -70 10 -29 15 -48 29 -41 32 21 7 13 21 -11 17 -23
-5 -53 27 -42 45 11 18 -18 22 -32 5 -9 -14 -13 -15 -13 -4 0 8 -4 20 -9 28
-8 12 -12 12 -25 2 -18 -15 -22 -36 -6 -26 6 4 22 -5 36 -19 15 -15 32 -23 42
-19 15 4 15 3 2 -6 -16 -11 -51 -5 -61 11 -4 6 -14 6 -28 -1 -16 -9 -21 -9
-21 0 0 8 -4 8 -15 -1 -8 -7 -15 -20 -15 -29 0 -10 -7 -26 -15 -37 -12 -16
-14 -17 -15 -2 0 9 6 19 13 21 9 4 9 8 -1 15 -8 5 -13 12 -12 16 1 4 0 20 -4
37 -7 35 -25 34 -43 -2 -10 -19 -13 -20 -13 -6 0 10 -4 15 -10 12 -6 -3 -10
-2 -10 3 0 5 9 12 20 15 11 3 20 10 20 15 0 11 -38 4 -45 -9 -3 -4 -12 -6 -20
-3 -8 4 -18 -1 -21 -10 -9 -24 -26 -19 -23 7 2 21 -1 34 -22 86 -8 19 -12 21
-24 11 -8 -7 -15 -20 -16 -29 0 -11 -3 -9 -9 7 -5 12 -14 22 -20 22 -6 0 -8 5
-5 10 4 6 10 8 15 5 4 -3 6 5 2 17 -4 17 -2 20 11 15 11 -4 14 -2 10 9 -4 10
0 12 13 7 31 -12 -4 19 -57 50 -49 29 -89 38 -51 11 12 -8 22 -22 22 -31 0
-13 3 -13 15 -3 12 10 18 10 30 0 8 -7 15 -18 15 -24 0 -6 -7 -2 -15 8 -20 27
-32 12 -15 -19 7 -14 11 -28 8 -31 -9 -9 -46 18 -51 38 -13 47 -49 -9 -62 -97
-4 -25 -11 -45 -15 -45 -4 0 -7 -13 -8 -29 0 -16 -7 -58 -16 -93 -8 -34 -20
-91 -27 -125 -7 -41 -16 -63 -25 -63 -8 0 -13 5 -12 11 2 6 -2 13 -9 16 -7 2
-11 -4 -10 -16 1 -12 7 -21 14 -21 14 0 18 -16 5 -24 -16 -10 -30 10 -34 52
-2 23 -2 42 0 42 1 0 14 -7 27 -16 23 -15 25 -15 26 0 1 9 2 19 3 24 4 15 16
78 21 109 3 17 2 34 -3 37 -10 6 -37 -15 -44 -34 -5 -12 -7 -12 -13 3 -4 10
-3 28 3 40 18 36 31 97 21 97 -5 0 -9 7 -9 15 0 8 3 15 8 15 4 0 7 27 8 61 0
41 5 63 15 70 12 7 12 9 -1 9 -12 1 -11 3 3 11 9 6 15 14 12 19 -7 12 62 33
83 26 14 -5 13 -3 -2 9 -17 13 -17 15 -4 15 9 0 20 -4 23 -10 3 -5 11 -10 18
-10 6 0 3 6 -8 14 -17 11 -42 13 -112 7 -7 -1 -13 -5 -13 -11 0 -13 27 -13 32
0 2 5 9 6 17 1 10 -7 5 -11 -17 -16 -17 -3 -33 -14 -35 -23 -3 -12 -5 -10 -6
6 -2 40 -20 23 -36 -35 -24 -87 -33 -105 -31 -65 0 17 3 32 7 32 3 0 4 14 1
30 -2 17 -8 30 -13 30 -5 0 -9 5 -9 12 0 6 8 4 19 -6 17 -15 19 -15 25 -1 9
25 7 35 -8 35 -15 0 -29 27 -21 40 3 4 15 6 28 3 33 -9 12 9 -28 23 -29 10
-35 9 -35 -2 0 -22 -27 -16 -33 6 -3 11 -9 20 -15 20 -10 0 -39 -62 -44 -94
-2 -11 -8 -21 -14 -23 -17 -6 -9 44 10 62 10 10 14 29 12 56 -3 44 -30 69 -88
83 -23 5 -28 3 -28 -12 0 -9 -7 -28 -16 -40 -9 -13 -11 -22 -4 -22 6 0 8 -5 5
-10 -5 -8 -12 -7 -22 1 -13 11 -14 7 -12 -29 2 -23 -1 -46 -6 -51 -7 -6 -10
19 -11 70 0 43 3 79 8 79 4 0 8 -11 8 -25 0 -27 19 -36 21 -10 3 30 4 34 17
46 6 7 12 16 12 21 0 10 -56 39 -62 32 -3 -2 -11 2 -18 11 -20 24 -39 18 -61
-19 -22 -38 -45 -51 -64 -36 -8 6 -16 6 -25 -3 -10 -10 -11 -9 -6 3 4 8 -1 4
-12 -10 -11 -13 -19 -28 -16 -31 2 -4 0 -9 -6 -11 -16 -5 12 -56 38 -68 13 -5
29 -10 37 -10 17 0 45 -27 45 -45 0 -25 -38 -27 -80 -4 -39 22 -41 22 -58 5
-16 -17 -16 -17 3 -14 15 2 20 -2 19 -20 0 -17 4 -22 20 -20 14 2 20 -2 18
-12 -2 -8 0 -12 4 -8 4 4 30 -12 58 -35 28 -24 72 -58 99 -77 53 -38 56 -54 8
-58 -26 -3 -50 8 -115 52 -46 31 -89 56 -97 56 -8 0 11 -23 41 -52 30 -28 55
-55 55 -59 0 -4 4 -11 9 -16 5 -5 6 -3 2 5 -8 14 10 17 19 2 3 -5 30 -26 61
-46 30 -20 58 -43 64 -53 5 -9 10 -13 10 -9 0 6 80 -48 177 -120 26 -19 35
-36 27 -56 -8 -21 -59 -10 -117 27 -28 18 -73 44 -99 57 -32 16 -48 30 -48 42
0 15 -5 18 -20 13 -14 -4 -20 -2 -20 9 0 17 -36 40 -50 31 -5 -3 -25 4 -45 15
-37 21 -65 26 -65 12 0 -12 116 -122 128 -122 15 0 62 -52 56 -62 -3 -5 0 -8
7 -7 28 4 50 -13 43 -33 -4 -14 0 -21 15 -25 11 -3 18 -9 15 -14 -3 -5 -14 -5
-25 1 -11 6 -24 8 -29 5 -6 -3 -10 -1 -10 4 0 6 -3 10 -7 9 -5 -2 -26 8 -48
22 -113 70 -131 80 -142 80 -25 0 -12 -20 53 -87 36 -38 67 -77 68 -87 0 -11
7 -21 14 -24 8 -2 10 2 5 15 -4 11 7 4 28 -16 30 -30 50 -82 31 -81 -16 1
-122 67 -116 73 3 3 -2 6 -12 6 -11 0 -34 3 -51 7 -56 11 -41 -24 44 -103 43
-39 74 -75 70 -79 -4 -4 -31 0 -61 9 -29 9 -61 17 -72 17 -17 0 -16 -1 3 -15
19 -13 21 -20 12 -42 -7 -20 -6 -28 8 -39 17 -12 16 -13 -9 -14 -34 0 -41 -12
-23 -36 25 -33 19 -100 -12 -140 -34 -42 -54 -43 -87 -3 -30 36 -33 72 -8 91
10 7 17 18 16 23 -6 35 -19 55 -36 55 -10 0 -16 5 -13 10 3 6 17 10 30 10 21
0 23 3 16 22 -4 13 -19 26 -32 29 -23 7 -23 7 -2 8 12 1 25 6 28 11 3 6 17 7
30 4 28 -7 38 6 19 24 -10 9 -14 9 -14 1 0 -8 -5 -7 -17 2 -12 10 -15 11 -9 1
6 -10 2 -11 -17 -7 -13 4 -41 -1 -63 -10 -39 -16 -84 -13 -84 5 0 6 10 10 23
10 17 0 19 2 7 10 -12 7 -11 10 5 16 11 4 26 15 33 25 6 10 25 20 41 24 17 3
31 14 33 23 3 11 6 7 10 -11 4 -23 3 -27 -13 -22 -13 4 -30 -5 -55 -29 -39
-38 -32 -46 17 -21 16 9 34 13 39 10 6 -4 13 2 17 12 4 10 11 21 17 25 7 5 7
8 -2 8 -7 0 -10 5 -6 12 5 8 11 6 19 -5 17 -24 80 -3 69 22 -14 32 -17 81 -4
81 7 0 10 7 7 15 -7 16 15 10 73 -20 17 -9 30 -13 30 -10 0 4 -31 36 -70 72
-50 47 -70 73 -70 91 0 22 -3 24 -34 18 -19 -4 -37 -2 -40 3 -4 5 -21 5 -43
-1 -21 -6 -48 -11 -60 -12 -11 0 -19 -4 -16 -8 2 -5 -2 -9 -9 -9 -28 -3 -34
-5 -58 -20 -33 -22 -98 -44 -106 -37 -9 10 15 48 30 48 8 0 19 7 26 15 7 9 20
13 28 10 18 -7 52 22 52 44 0 11 3 12 8 4 5 -8 14 -8 32 3 l25 15 -25 -6 c-24
-6 -24 -5 -6 10 11 8 28 13 37 10 10 -3 20 -1 24 5 3 5 1 10 -6 10 -7 0 1 11
17 25 16 14 35 25 42 25 6 0 12 7 12 15 0 10 -10 15 -30 15 -32 0 -111 -28
-121 -43 -4 -5 -12 -1 -18 9 -8 14 -10 15 -11 4 0 -10 -32 -26 -93 -48 -92
-32 -137 -40 -137 -23 0 14 72 69 95 73 11 1 26 11 33 21 7 9 20 17 28 17 8 0
14 5 14 10 0 6 7 10 16 10 8 0 12 -4 9 -10 -4 -6 1 -7 12 -3 29 10 43 24 36
36 -4 6 0 8 10 4 9 -3 16 -3 16 1 -3 19 2 23 14 13 11 -8 18 -6 32 9 10 11 15
20 11 20 -4 0 -4 5 -1 10 5 8 11 8 19 1 9 -8 18 -5 31 9 10 11 22 17 28 13 6
-3 7 -1 3 6 -4 6 -12 8 -18 5 -7 -5 -9 -1 -5 9 11 28 -52 11 -154 -41 -69 -36
-100 -47 -107 -40 -18 18 4 47 30 41 19 -4 20 -3 8 6 -11 8 -12 11 -2 11 7 0
20 6 28 14 7 8 22 12 33 9 13 -3 25 5 41 32 18 29 25 33 36 24 12 -10 13 -9 8
5 -7 19 11 22 20 4 3 -7 4 -1 2 14 -1 15 1 25 6 22 4 -3 10 1 13 8 3 8 14 14
25 15 18 2 19 0 5 -14 -9 -8 -14 -17 -11 -20 2 -3 13 4 24 15 15 15 17 24 9
37 -8 15 -7 17 6 12 11 -4 14 -2 10 9 -6 17 -30 18 -63 1 -41 -21 -110 -41
-116 -34 -4 4 -1 13 5 21 18 21 150 98 159 92 5 -3 6 9 4 26 -3 21 -1 29 7 24
19 -12 12 0 -11 20 -19 15 -20 16 -9 2 14 -19 5 -24 -17 -10 -8 5 -10 16 -6
27 5 13 4 16 -4 11 -7 -4 -12 -3 -12 2 0 10 -49 42 -84 55 -16 6 -17 5 -6 -8
8 -9 8 -15 2 -15 -6 0 -13 9 -17 19 -6 19 -7 19 -35 3 -17 -9 -30 -22 -30 -29
0 -6 -5 -15 -12 -19 -8 -5 -9 -2 -5 9 3 10 3 17 -1 17 -13 -1 -38 -25 -45 -43
-4 -10 -15 -17 -24 -15 -11 2 -17 -2 -15 -10 1 -8 -2 -11 -7 -7 -16 9 -34 -35
-27 -67 7 -37 -13 -219 -25 -233 -8 -8 -7 14 6 78 2 9 -1 17 -6 17 -5 0 -8 3
-8 8 1 4 1 9 -1 12 -1 3 -3 18 -5 35 -3 19 -1 25 4 16 5 -7 13 -11 19 -8 11 8
3 57 -10 57 -5 0 -6 6 -2 13 5 8 2 7 -9 -2 -15 -12 -19 -12 -31 5 -13 17 -15
16 -35 -16 -11 -19 -21 -48 -21 -63 0 -26 -1 -27 -16 -12 -13 13 -14 21 -6 40
6 12 8 26 5 29 -10 10 -51 7 -58 -4 -10 -17 -36 -11 -33 7 2 9 34 32 72 52 38
19 64 37 57 39 -6 2 -18 -1 -26 -8 -8 -6 -22 -9 -33 -6 -12 4 -27 -4 -47 -24
-16 -16 -34 -30 -41 -30 -6 0 -17 -7 -24 -15 -15 -18 -7 -19 22 -4 16 9 19 8
12 -3 -5 -7 -9 -24 -9 -38 -1 -14 -5 -38 -9 -53 -8 -26 -9 -26 -22 -10 -18 24
-17 26 7 52 30 32 18 36 -31 11 -23 -12 -45 -19 -48 -16 -3 4 9 12 26 18 35
14 40 23 16 32 -8 3 -12 2 -9 -4 3 -6 -1 -10 -9 -10 -8 0 -22 -7 -30 -16 -21
-20 0 -47 26 -33 26 14 35 11 13 -4 -11 -8 -37 -13 -57 -12 -20 1 -39 -4 -42
-10 -4 -12 22 -16 39 -6 6 3 3 -1 -7 -11 -19 -17 -25 -33 -9 -24 5 3 14 -1 20
-8 10 -12 8 -13 -8 -9 -13 3 -21 -1 -24 -14 -4 -15 -5 -15 -6 3 -1 23 1 22
-86 15 -5 -1 -4 -5 3 -10 11 -7 10 -9 -3 -14 -9 -4 -13 -3 -10 3 3 6 0 10 -7
10 -7 1 0 8 15 16 16 8 26 21 24 27 -2 7 9 17 25 24 21 9 28 19 28 39 0 30
-25 64 -47 64 -7 0 -13 5 -13 10 0 6 5 10 12 10 6 0 9 2 6 5 -9 10 -38 -7 -31
-18 3 -6 1 -7 -6 -3 -6 4 -9 11 -6 16 3 5 -3 14 -14 19 -29 16 -38 13 -15 -4
10 -8 16 -15 12 -15 -4 0 -19 11 -34 25 -15 14 -23 25 -18 25 5 1 -2 7 -16 15
-21 12 -23 14 -8 20 23 9 54 1 51 -13 -2 -6 4 -9 11 -6 8 3 36 -4 63 -16 74
-34 146 -60 165 -60 22 0 24 28 2 37 -8 3 -13 12 -9 20 3 11 1 13 -10 9 -10
-4 -15 1 -15 16 0 15 -3 18 -12 11 -15 -12 -187 94 -188 115 0 6 -7 12 -16 12
-14 0 -15 2 -3 17 12 15 12 16 -3 11 -18 -7 -30 0 -22 14 3 4 18 1 33 -8 20
-12 27 -23 24 -35 -3 -11 0 -19 6 -19 6 0 11 7 11 15 0 17 28 20 50 4 12 -9
11 -10 -6 -6 -18 4 -21 1 -16 -17 5 -22 52 -70 60 -61 8 7 -19 35 -34 35 -8 0
-14 4 -14 10 0 12 80 6 89 -7 7 -11 39 -26 61 -28 29 -4 60 -16 60 -25 0 -4
18 -11 40 -15 26 -4 44 -14 51 -28 l12 -21 16 20 c9 11 22 19 29 16 6 -2 12 4
12 13 0 14 3 15 14 6 8 -7 17 -8 20 -3 9 14 -28 21 -49 9 -13 -7 -16 -6 -11 2
4 6 4 16 0 22 -4 7 -9 8 -13 1 -4 -7 -13 -5 -25 4 -11 8 -14 14 -8 14 10 0 10
3 0 14 -7 7 -18 11 -25 9 -16 -6 -55 16 -48 27 3 5 0 12 -6 16 -8 4 -9 3 -5
-4 4 -7 2 -12 -3 -12 -6 0 -11 7 -11 16 0 8 -4 13 -9 9 -6 -3 -15 3 -20 14
-15 26 -15 26 19 27 17 1 30 -3 30 -8 0 -5 5 -6 10 -3 6 4 26 -5 45 -19 18
-14 40 -26 47 -27 10 0 10 -2 1 -6 -24 -9 -13 -25 13 -20 16 3 28 0 31 -9 3
-8 11 -14 19 -14 8 0 14 -4 14 -9 0 -5 9 -11 20 -14 12 -3 20 0 20 8 0 17 35
25 50 11 21 -19 1 46 -21 70 -13 14 -28 20 -44 16 -16 -3 -25 0 -25 8 0 7 7
10 14 7 10 -4 13 -1 10 8 -3 8 -9 14 -12 13 -4 0 -11 1 -17 2 -5 1 -17 3 -25
4 -18 1 -26 44 -11 59 8 8 15 5 26 -9 9 -12 14 -14 15 -6 0 9 10 6 29 -10 15
-13 27 -26 25 -30 -3 -4 5 -13 17 -22 12 -8 19 -18 16 -23 -3 -4 6 -8 19 -8
13 0 24 6 24 13 0 19 47 -15 53 -38 6 -24 -8 -27 -17 -4 -7 18 -26 9 -26 -12
0 -8 5 -12 10 -9 6 4 17 1 25 -5 9 -8 15 -8 15 -2 0 6 16 8 41 5 33 -5 41 -3
37 8 -6 15 -11 15 -42 3 -19 -7 -19 -7 -3 16 21 30 21 40 2 40 -8 0 -15 -5
-15 -12 0 -6 -3 -9 -6 -6 -3 4 -1 15 5 25 7 13 6 33 -1 62 -8 30 -8 48 0 64
10 20 11 18 10 -15 -1 -21 1 -40 4 -44 13 -12 29 8 27 34 -4 54 0 66 16 52 18
-15 21 1 5 31 -6 10 -7 19 -3 19 4 1 33 2 63 4 45 3 50 2 28 -6 -31 -11 -35
-20 -15 -35 20 -15 66 -6 85 17 25 31 98 37 112 10 6 -11 16 -20 22 -20 6 0
19 -7 28 -15 15 -13 19 -12 40 10 l23 25 -31 6 c-18 4 -32 10 -32 14 0 4 11 5
25 2 34 -6 31 10 -5 32 -17 10 -27 22 -24 28 5 7 2 9 -7 6 -18 -7 -52 16 -55
38 -1 8 4 18 11 20 15 6 9 34 -7 34 -6 0 -8 -7 -4 -15 8 -21 -6 -19 -27 5 -16
19 -16 20 1 21 16 1 16 2 0 6 -9 2 -27 -1 -40 -8 l-22 -12 24 -9 25 -9 -27
-15 c-16 -8 -28 -19 -28 -24 0 -10 27 -3 48 13 9 7 17 6 24 -1 7 -7 9 -12 4
-12 -4 0 6 -11 22 -25 29 -24 35 -46 17 -62 -4 -4 -6 -3 -2 2 3 6 -8 26 -24
45 -23 25 -32 31 -41 22 -7 -7 -9 -12 -5 -12 9 0 -7 -21 -42 -56 -13 -13 -29
-24 -35 -23 -6 0 -5 3 3 6 11 5 11 7 0 15 -11 7 -9 8 6 6 13 -2 19 2 17 11 -2
8 3 18 10 22 26 16 -4 22 -31 6 -15 -9 -32 -13 -36 -9 -5 4 -5 2 -1 -5 4 -7
-5 -18 -23 -28 -36 -18 -45 -19 -35 -3 5 8 -3 9 -29 5 -20 -3 -39 -1 -42 4 -4
5 1 9 9 9 9 0 16 11 18 28 2 19 8 27 21 26 10 -1 27 11 39 26 13 18 26 26 36
22 10 -3 13 -1 8 6 -3 6 -1 14 5 18 8 4 9 3 5 -4 -9 -15 -1 -15 25 -1 11 5 16
15 13 21 -5 7 -2 9 9 5 12 -4 14 -2 10 10 -5 12 -2 15 10 10 15 -6 16 -3 7 13
-6 11 -15 20 -21 20 -6 0 -7 -4 -4 -10 3 -5 0 -7 -9 -4 -8 3 -12 12 -9 20 5
13 -7 18 -34 15 -7 -1 -13 2 -13 7 0 6 -7 12 -15 16 -8 3 -14 2 -12 -2 1 -4
-2 -8 -8 -9 -5 -2 -10 1 -10 6 0 5 -3 13 -7 17 -12 11 -10 44 2 44 6 0 10 -5
10 -11 0 -9 4 -9 14 0 10 8 23 6 56 -12 34 -17 44 -19 47 -8 4 11 7 11 13 0 5
-7 4 -23 -1 -37 -8 -20 -5 -28 16 -48 14 -13 30 -24 36 -24 12 0 12 27 -1 35
-6 4 -7 11 -4 17 4 6 0 14 -7 19 -9 6 -10 12 -4 17 13 9 16 42 4 42 -5 0 -9
25 -9 55 0 31 4 55 10 55 7 0 10 23 8 59 -1 33 0 63 4 67 4 3 1 13 -7 21 -10
10 -14 34 -13 79 2 60 3 64 22 58 12 -4 27 -12 35 -18 12 -9 12 -8 2 11 -6 13
-24 29 -39 37 -15 9 -22 15 -17 16 6 0 16 4 24 9 12 8 12 12 2 25 -11 13 -11
16 2 16 10 0 14 6 11 14 -3 8 5 21 18 30 14 10 17 16 8 16 -8 0 1 8 20 19 47
25 47 25 21 -3z m-150 4 c10 0 19 -4 19 -9 0 -5 -10 -7 -22 -4 l-23 6 23 -22
c23 -23 29 -41 12 -41 -5 0 -10 4 -10 10 0 5 -13 16 -30 25 -20 10 -27 20 -23
31 3 8 12 13 20 10 8 -3 23 -6 34 -6z m-1346 -64 c16 -12 33 -25 37 -31 4 -5
8 -7 8 -2 0 14 50 -25 50 -40 0 -8 7 -27 15 -43 9 -17 12 -30 7 -30 -12 0 -33
40 -35 67 -2 29 -17 18 -17 -12 0 -13 -4 -26 -9 -29 -6 -4 -8 38 -2 62 3 8 -5
17 -13 14 -5 -2 -13 3 -17 10 -6 9 -9 8 -10 -7 -1 -11 -1 -24 0 -29 1 -4 -6
-14 -16 -22 -15 -11 -15 -15 -4 -23 16 -11 -3 -26 -21 -15 -6 4 -8 3 -5 -2 3
-6 2 -16 -3 -23 -6 -11 -12 -11 -31 3 -13 9 -20 16 -15 16 5 0 3 7 -4 15 -9
10 -9 15 -1 15 6 0 11 -4 11 -10 0 -17 25 -11 43 10 23 27 22 48 -1 27 -21
-19 -37 -23 -27 -7 4 6 2 17 -5 25 -7 9 -8 15 0 20 13 8 13 55 0 55 -5 0 -10
5 -10 11 0 14 36 2 75 -25z m482 -13 c-3 -10 -5 -2 -5 17 0 19 2 27 5 18 2
-10 2 -26 0 -35z m553 -21 c8 -8 -3 -4 -26 9 -65 38 -94 63 -39 33 28 -14 57
-33 65 -42z m-1137 51 c-7 -2 -19 -2 -25 0 -7 3 -2 5 12 5 14 0 19 -2 13 -5z
m1050 -59 c4 -7 20 -12 35 -12 16 1 40 -9 55 -22 15 -13 34 -25 43 -26 9 -1
21 -10 28 -20 9 -12 15 -14 20 -5 5 7 -3 21 -20 34 -52 41 -61 49 -44 41 23
-12 74 -48 81 -57 3 -5 9 -8 13 -8 3 0 21 -9 38 -20 21 -13 25 -18 12 -14 -15
4 -24 0 -28 -11 -9 -22 -37 1 -29 24 4 14 3 15 -6 2 -14 -20 15 -53 38 -41 22
11 86 8 84 -4 -1 -5 -5 -19 -8 -30 -6 -16 -5 -17 4 -5 8 11 11 12 11 2 0 -7 4
-11 9 -8 4 3 22 1 40 -4 30 -8 43 1 20 16 -8 4 -7 9 2 15 24 15 26 10 22 -33
-6 -62 -9 -124 -13 -203 -1 -38 -4 -62 -7 -53 -2 10 -21 22 -44 28 -32 9 -38
14 -30 24 9 10 6 13 -11 12 -26 -2 -50 12 -42 25 3 5 -2 9 -10 9 -9 0 -16 5
-16 11 0 5 -4 8 -10 4 -13 -8 -50 26 -50 47 0 24 13 29 41 14 13 -7 43 -23 67
-36 44 -23 70 -49 36 -36 -12 5 -15 4 -9 -2 16 -15 59 -26 51 -13 -4 6 0 11 8
11 20 0 20 7 1 27 -8 8 -13 19 -10 24 4 5 -1 9 -10 9 -9 0 -13 5 -10 11 4 6 1
9 -6 7 -8 -1 -45 21 -83 50 -38 28 -66 52 -62 52 10 0 -80 69 -124 94 -55 33
-159 110 -159 119 -1 11 72 -33 82 -49z m-1033 32 c0 -3 -4 -8 -10 -11 -5 -3
-10 -1 -10 4 0 6 5 11 10 11 6 0 10 -2 10 -4z m-18 -31 c9 10 26 -33 17 -46
-7 -11 -9 -11 -9 -1 0 7 -5 10 -10 7 -6 -4 -8 -10 -5 -15 3 -4 -2 -11 -11 -14
-8 -3 -12 -2 -9 4 3 6 1 10 -4 10 -6 0 -11 5 -11 11 0 5 4 8 9 5 4 -3 16 1 26
8 16 12 16 13 1 19 -9 4 -16 2 -16 -3 0 -5 -7 -7 -15 -4 -8 4 -15 12 -15 20 0
10 6 11 24 4 13 -5 26 -7 28 -5z m1503 5 c3 -5 1 -10 -4 -10 -6 0 -11 5 -11
10 0 6 2 10 4 10 3 0 8 -4 11 -10z m887 -12 c4 -7 8 -26 8 -43 1 -53 28 -183
45 -217 9 -18 10 -27 3 -20 -14 14 -32 16 -23 2 3 -6 -1 -7 -9 -4 -10 4 -16 1
-16 -8 0 -8 -9 -23 -20 -33 -11 -10 -20 -24 -20 -31 0 -13 -33 -36 -57 -40
-18 -3 -16 3 7 26 11 11 21 32 22 48 2 41 3 46 11 60 5 7 4 12 -2 12 -6 0 -11
7 -11 16 0 8 5 12 10 9 6 -3 10 3 10 15 0 12 -4 19 -8 16 -5 -3 -9 8 -10 24 0
17 4 30 9 30 6 0 7 4 4 10 -8 13 -16 130 -10 140 7 12 47 3 57 -12z m-1842 2
c0 -5 -4 -10 -10 -10 -5 0 -10 5 -10 10 0 6 5 10 10 10 6 0 10 -4 10 -10z m30
-65 c-7 -9 -8 -15 -1 -20 13 -8 12 -72 -1 -107 -11 -30 -32 -39 -25 -10 19 67
18 74 -3 67 -11 -4 -20 -2 -20 4 0 11 13 15 37 12 8 -1 10 5 7 14 -8 20 -23
19 -46 -2 -11 -9 -18 -11 -18 -5 0 7 6 12 13 13 10 0 10 2 0 6 -18 7 -16 24 8
53 20 24 21 24 16 3 -7 -34 19 -29 29 5 7 26 8 26 12 4 2 -13 -2 -29 -8 -37z
m1101 32 c-13 -13 -26 -3 -16 12 3 6 11 8 17 5 6 -4 6 -10 -1 -17z m-775 -18
c-3 -17 -6 -38 -6 -45 0 -16 -26 -19 -35 -4 -4 6 -1 17 5 25 9 11 9 15 1 15
-6 0 -11 5 -11 11 0 6 7 8 16 5 12 -4 15 -2 10 9 -3 9 0 15 11 15 12 0 14 -7
9 -31z m1030 17 c10 -8 16 -18 11 -22 -4 -4 -13 -1 -20 8 -6 9 -19 18 -27 21
-13 5 -13 6 1 6 8 1 24 -5 35 -13z m-1230 -12 c-4 -12 -2 -15 9 -10 9 3 15 0
15 -9 0 -8 -5 -15 -11 -15 -8 0 -7 -5 1 -15 10 -13 11 -18 1 -28 -10 -9 -11
-8 -6 8 4 16 3 15 -6 -2 -18 -34 -26 -28 -24 20 3 62 4 67 16 67 6 0 8 -7 5
-16z m1160 1 c-11 -8 -25 -15 -30 -15 -6 1 0 7 14 15 32 19 40 18 16 0z
m-1596 -34 c0 -27 -15 -34 -31 -15 -10 13 -10 17 2 25 22 13 29 11 29 -10z
m1860 9 c0 -5 -2 -10 -4 -10 -3 0 -8 5 -11 10 -3 6 -1 10 4 10 6 0 11 -4 11
-10z m740 1 c0 -4 11 -6 25 -3 18 3 25 0 25 -11 0 -20 -22 -35 -28 -19 -2 7
-15 12 -28 12 -13 0 -24 5 -24 11 0 6 -7 3 -16 -5 -16 -16 -34 -21 -34 -10 0
4 8 13 18 20 19 15 62 19 62 5z m-93 -21 c1 -12 -9 -27 -25 -38 -43 -27 -54
-40 -39 -45 9 -4 9 -6 0 -6 -16 -1 -29 22 -15 27 7 2 12 10 12 17 0 7 11 16
24 19 13 3 26 15 29 26 7 26 12 26 14 0z m-2463 -13 c-2 -7 5 -18 16 -25 17
-10 20 -10 20 3 0 8 5 15 10 15 6 0 10 -9 10 -19 0 -15 -6 -19 -27 -16 -15 1
-29 8 -31 14 -2 6 -10 11 -18 11 -17 0 -18 7 -1 24 14 16 28 11 21 -7z m-159
-17 c8 0 15 7 15 16 0 8 5 12 10 9 31 -19 -11 -52 -43 -33 -13 7 -15 5 -11 -7
4 -10 0 -15 -11 -15 -9 0 -13 4 -10 10 3 6 -1 7 -9 4 -12 -4 -16 0 -16 16 0
15 4 20 15 17 8 -4 17 -1 21 5 4 7 10 5 16 -6 5 -9 16 -16 23 -16z m1985 20
c0 -5 -4 -10 -10 -10 -5 0 -10 5 -10 10 0 6 5 10 10 10 6 0 10 -4 10 -10z
m405 -21 c4 -17 8 -55 9 -85 2 -50 -2 -59 -26 -55 -5 0 -8 -3 -8 -9 0 -10 -39
-34 -46 -27 -9 9 9 37 23 37 9 0 13 8 12 23 -2 12 0 28 4 35 5 7 3 12 -4 12
-8 0 -8 4 1 15 10 12 10 15 -1 16 -8 0 -4 5 9 11 12 6 22 15 22 20 0 5 -4 7
-9 3 -12 -7 -24 12 -16 25 11 18 23 10 30 -21z m-2303 -35 c-3 -16 -2 -16 15
-3 16 13 17 12 5 -2 -7 -9 -10 -24 -6 -33 4 -11 1 -16 -12 -16 -15 0 -16 2 -5
9 16 10 4 18 -26 16 -20 -2 -40 21 -28 33 3 3 5 1 5 -5 0 -6 9 -13 20 -16 11
-3 20 -1 20 4 0 5 -7 9 -15 9 -10 0 -15 10 -15 26 0 25 1 26 23 11 12 -8 21
-23 19 -33z m654 33 c1 -1 -5 -45 -12 -97 -15 -111 -21 -226 -11 -236 4 -4 -1
-13 -11 -20 -15 -12 -14 -14 13 -15 20 -1 24 -3 11 -6 -12 -3 -15 -8 -8 -12 6
-4 7 -12 3 -20 -6 -10 -12 -9 -25 4 -9 9 -22 18 -30 19 -21 3 -47 34 -44 53 2
10 -2 17 -9 16 -7 -2 -14 7 -14 20 -1 15 -3 17 -6 6 -6 -23 -42 -31 -60 -13
-12 11 -18 12 -29 3 -8 -6 -12 -15 -9 -19 3 -4 -12 -11 -32 -15 -48 -9 -95
-33 -88 -45 4 -6 2 -10 -4 -10 -5 0 -11 4 -13 9 -5 14 -78 -19 -78 -35 0 -8
-5 -14 -11 -14 -5 0 -7 5 -4 10 7 12 3 12 -19 4 -9 -3 -16 -12 -16 -19 0 -16
-28 -27 -32 -13 -3 7 -15 5 -36 -6 -18 -9 -37 -14 -41 -11 -5 3 -12 -1 -14 -7
-3 -8 -6 -6 -6 5 -1 12 5 17 17 15 9 -2 16 2 15 9 -2 7 12 17 30 22 73 22 112
40 109 51 -1 6 2 9 7 6 5 -4 16 1 25 10 9 8 20 13 24 10 5 -3 14 3 22 14 7 10
18 16 25 14 6 -3 20 11 30 30 l19 34 35 -24 36 -24 7 32 c3 18 3 35 -1 38 -3
3 -11 16 -17 30 -12 27 7 108 27 121 6 4 8 16 4 28 -5 16 -3 20 8 15 8 -3 18
0 22 6 16 26 22 -15 17 -116 -4 -93 -3 -104 14 -111 10 -4 19 -2 22 5 2 7 8
12 13 12 6 0 19 9 31 20 12 11 17 20 10 20 -6 0 -14 -5 -17 -10 -13 -21 -25 1
-13 23 6 12 12 31 12 42 1 11 6 19 12 18 6 -1 11 4 11 12 0 8 -5 12 -10 8 -5
-3 -4 4 2 16 7 11 9 21 6 21 -3 0 -1 9 5 20 6 11 15 18 21 15 5 -4 9 -1 9 5 0
6 5 8 10 5 6 -3 10 -1 10 5 0 7 -8 9 -20 5 -14 -5 -20 -2 -20 9 0 13 7 15 32
11 18 -4 33 -7 34 -8z m1245 3 c5 0 9 -4 9 -10 0 -5 -7 -10 -15 -10 -8 0 -15
-7 -15 -16 0 -14 3 -14 15 -4 12 10 15 9 15 -7 0 -10 -7 -28 -15 -39 -19 -25
-19 -38 1 -30 11 4 14 1 10 -12 -8 -27 -11 -221 -3 -228 4 -4 7 -2 7 4 0 7 9
12 21 12 13 0 18 4 13 12 -4 6 -3 8 4 4 7 -4 11 4 10 21 0 16 5 41 11 56 7 19
8 34 1 47 -15 28 -12 61 8 76 25 19 29 17 35 -13 9 -49 15 -71 27 -92 8 -16 8
-19 -3 -15 -7 2 -22 -5 -33 -17 -16 -19 -16 -21 -2 -16 9 3 19 0 22 -9 3 -8
-1 -14 -10 -14 -8 0 -27 -12 -42 -27 -15 -16 -37 -33 -49 -39 -29 -16 -96 -39
-105 -36 -5 1 -8 -5 -8 -13 0 -13 4 -14 21 -5 11 7 28 9 36 5 9 -3 32 5 52 19
20 13 83 51 141 84 58 33 156 90 219 126 119 69 126 73 116 55 -4 -6 2 -5 13
2 12 7 18 17 15 22 -3 5 3 6 14 3 12 -4 25 -1 33 9 7 8 20 15 30 15 20 0 43
23 33 33 -3 4 1 7 9 7 9 0 21 7 28 15 7 8 24 16 39 16 22 1 21 3 -9 9 l-35 7
43 2 c23 0 42 -2 43 -6 0 -5 2 -19 5 -32 2 -13 -1 -30 -8 -38 -10 -12 -13 -12
-20 1 -5 9 -21 16 -36 15 -15 0 -21 -3 -13 -6 11 -5 11 -7 0 -14 -9 -6 -10 -9
-2 -9 6 0 15 5 18 10 11 17 23 11 18 -9 -7 -26 -53 -47 -64 -29 -6 10 -9 10
-9 1 0 -7 -7 -10 -15 -7 -8 4 -12 10 -9 15 3 5 -4 9 -15 9 -24 0 -25 -4 -11
-31 7 -13 7 -19 0 -19 -5 0 -10 6 -10 14 0 15 -46 10 -56 -6 -10 -15 5 -60 18
-52 7 4 8 3 4 -4 -9 -15 -36 -4 -36 14 0 8 -10 14 -25 14 -14 0 -25 -4 -25 -8
0 -14 22 -31 34 -26 7 3 23 -7 36 -21 13 -14 29 -25 37 -25 7 0 13 -6 13 -14
0 -8 5 -18 12 -22 7 -5 8 -3 3 6 -5 8 -3 11 5 8 22 -7 23 -26 1 -37 -23 -13
-75 5 -64 22 4 6 0 8 -10 4 -17 -6 -67 11 -67 23 0 5 -66 6 -92 1 -4 0 -5 -9
-2 -18 5 -15 3 -15 -11 2 -13 16 -17 17 -24 6 -7 -10 1 -24 26 -48 36 -33 49
-42 38 -23 -14 23 13 7 44 -25 18 -19 36 -35 40 -35 4 0 13 -11 20 -24 15 -27
6 -66 -14 -66 -14 0 -135 78 -135 87 0 3 12 -2 26 -12 15 -9 25 -12 22 -5 -2
6 -19 21 -38 33 -29 18 -33 19 -27 4 5 -13 -1 -12 -33 8 -43 27 -80 33 -80 12
0 -7 16 -28 35 -47 19 -18 32 -37 29 -41 -2 -4 5 -13 17 -19 16 -9 20 -9 14 0
-4 7 6 5 24 -4 21 -11 31 -24 31 -39 0 -18 -2 -19 -10 -7 -7 10 -12 12 -17 4
-12 -18 -52 -10 -68 13 -8 11 -11 24 -7 28 4 5 1 5 -6 1 -16 -10 -83 13 -100
33 -10 12 -15 13 -18 4 -8 -18 -24 -16 -24 2 0 8 -5 15 -11 15 -5 0 -7 -4 -4
-10 3 -5 0 -7 -8 -4 -8 3 -20 -2 -27 -11 -11 -13 -10 -18 6 -31 10 -9 13 -13
7 -9 -7 3 -13 1 -13 -5 0 -7 8 -9 20 -5 15 5 22 0 30 -20 8 -22 13 -25 24 -16
11 9 18 8 30 -4 9 -9 16 -20 16 -25 0 -12 49 -41 74 -44 32 -3 96 -45 96 -62
0 -21 -39 -33 -67 -20 -12 6 -23 15 -23 19 0 5 -4 6 -9 2 -5 -3 -17 2 -25 11
-9 8 -16 12 -16 7 0 -4 -9 3 -20 17 -12 16 -20 20 -20 11 0 -10 -6 -8 -21 8
-11 12 -32 26 -46 32 -14 5 -21 14 -17 21 4 7 3 8 -5 4 -6 -4 -24 -1 -40 7
-18 9 -34 11 -44 5 -13 -7 -15 -4 -12 12 2 11 0 18 -5 15 -5 -3 -11 -1 -14 4
-6 10 -61 8 -88 -4 -13 -5 -18 -2 -18 9 0 9 12 18 28 21 15 4 41 14 57 22 l30
16 -20 -23 c-19 -22 -18 -22 20 3 22 15 48 27 57 27 10 0 23 9 30 20 7 11 17
20 21 20 5 0 28 13 51 28 66 45 66 45 59 25 -6 -17 -5 -17 15 0 12 11 26 16
33 11 9 -5 11 -1 7 14 -5 18 3 27 44 52 28 17 48 34 44 37 -3 3 -87 -42 -186
-101 -99 -59 -184 -104 -189 -101 -5 3 -29 -6 -53 -20 -47 -27 -86 -35 -54
-12 17 12 21 25 25 80 0 10 5 16 10 13 5 -3 11 1 14 8 3 8 1 17 -6 19 -9 3 -9
7 0 19 7 8 10 18 6 21 -3 4 0 7 8 7 10 0 11 3 2 8 -6 4 -9 19 -6 34 4 23 9 26
37 24 17 -2 21 -1 9 1 -28 5 -29 19 -4 33 14 7 21 6 24 -3 4 -9 6 -9 6 1 1 7
-6 15 -14 17 -8 3 -22 7 -31 10 -9 3 -12 10 -8 17 4 7 9 21 10 32 10 96 18
127 31 122 8 -4 19 -6 24 -6z m-1727 -55 c-3 -7 4 -15 15 -18 12 -3 19 -2 17
2 -3 4 -1 13 5 21 6 11 9 6 9 -17 0 -17 5 -35 12 -39 6 -4 8 -3 4 4 -8 13 62
4 81 -10 7 -6 15 -3 23 9 9 15 10 13 7 -14 -2 -18 0 -33 5 -33 5 0 7 -4 3 -9
-3 -5 7 -19 22 -30 20 -17 24 -24 15 -33 -9 -9 -12 -9 -12 0 0 7 -7 12 -15 12
-25 0 -17 -19 16 -35 17 -9 29 -19 26 -22 -3 -2 -26 7 -50 22 -29 16 -48 22
-52 15 -3 -5 1 -10 9 -10 9 0 16 -6 16 -12 0 -18 -190 -23 -190 -5 -1 8 -5 6
-13 -4 -7 -8 -20 -18 -31 -22 -16 -6 -18 -3 -14 18 4 16 1 24 -6 22 -6 -2 -10
-15 -9 -28 l2 -24 -11 23 c-14 27 4 45 35 36 12 -4 26 2 39 15 12 13 27 20 37
16 12 -3 18 0 18 10 0 9 -10 15 -26 15 -20 0 -22 3 -11 9 8 6 18 7 24 4 5 -4
6 -1 2 6 -5 7 -14 10 -22 7 -8 -3 -14 0 -14 6 0 6 -6 5 -17 -3 -11 -10 -14
-10 -9 -1 4 7 2 12 -4 12 -7 0 -9 8 -4 22 6 20 5 21 -9 10 -13 -11 -15 -10
-12 5 2 10 4 21 4 25 1 3 33 -12 71 -34 39 -23 68 -43 66 -46 -3 -2 -28 10
-55 27 -47 28 -51 29 -51 11 0 -12 5 -17 14 -14 14 5 121 -49 132 -67 3 -5 10
-9 15 -9 6 0 7 5 4 10 -10 16 7 12 27 -7 22 -20 36 -10 17 13 -9 11 -22 14
-43 10 -21 -4 -26 -3 -16 3 12 8 12 13 -4 30 -11 12 -28 21 -38 21 -12 0 -16
4 -12 12 4 7 3 8 -4 4 -7 -4 -12 -2 -12 3 0 6 -4 10 -8 9 -5 -2 -23 12 -41 29
-18 18 -26 30 -18 27 8 -3 17 2 21 13 6 14 9 15 16 4 4 -8 6 -20 4 -26z m1006
25 c8 -5 11 -10 5 -10 -5 0 -17 5 -25 10 -8 5 -10 10 -5 10 6 0 17 -5 25 -10z
m1229 -41 c-13 -25 -59 -68 -73 -69 -5 0 -1 9 10 21 10 12 17 23 15 26 -8 10
24 43 42 43 15 0 16 -3 6 -21z m-2342 -19 c-1 -11 -2 -20 -4 -20 -1 0 -7 9
-13 20 -8 16 -8 20 4 20 9 0 14 -8 13 -20z m678 -10 c3 -5 1 -10 -4 -10 -6 0
-11 5 -11 10 0 6 2 10 4 10 3 0 8 -4 11 -10z m10 -46 c-1 -14 -8 -30 -16 -35
-12 -7 -12 -9 1 -9 11 0 11 -3 2 -12 -7 -7 -12 -17 -12 -22 0 -6 5 -4 10 4 7
10 10 -14 10 -77 0 -52 -4 -95 -10 -98 -6 -4 -7 -11 -4 -17 4 -6 10 -5 15 3 7
11 9 10 9 -3 0 -22 23 -23 44 -2 22 22 29 57 22 109 -4 26 -3 45 2 45 5 0 10
20 10 45 1 50 8 68 23 60 13 -9 11 9 -2 22 -9 9 -7 12 8 10 17 -1 21 -8 21
-41 1 -27 -2 -36 -8 -26 -5 8 -12 12 -15 8 -3 -3 1 -12 9 -20 15 -16 25 -155
12 -176 -3 -6 -2 -22 4 -37 5 -14 10 -39 10 -55 0 -27 22 -60 40 -60 4 0 11 7
14 16 4 11 2 15 -8 11 -10 -4 -12 0 -9 14 3 10 9 16 14 13 5 -3 6 2 3 10 -3 9
-2 16 4 16 13 0 24 42 13 53 -10 10 9 67 22 67 5 0 4 7 -3 15 -13 15 -5 70 11
80 15 10 11 -139 -5 -171 -8 -16 -13 -42 -11 -59 1 -16 -2 -36 -8 -44 -10 -11
-7 -13 13 -7 24 7 24 6 6 -8 -17 -14 -18 -16 -3 -16 9 0 17 -5 17 -11 0 -5 -4
-7 -10 -4 -5 3 -10 1 -10 -6 0 -10 -3 -10 -12 -1 -7 7 -16 12 -22 12 -5 0 -1
-8 10 -18 10 -10 27 -17 37 -14 10 3 17 -1 17 -10 0 -24 -38 -14 -113 27 -75
41 -82 27 -9 -20 54 -34 92 -65 92 -76 0 -11 -33 -4 -38 9 -2 6 -10 8 -18 5
-9 -3 -14 0 -12 7 2 7 -3 15 -11 18 -10 3 -12 0 -8 -12 4 -9 2 -16 -2 -16 -5
0 -11 5 -13 12 -3 7 -13 -2 -23 -20 -19 -31 -35 -42 -35 -22 0 6 -5 10 -11 10
-6 0 -8 -9 -4 -20 5 -14 2 -20 -9 -20 -24 0 -19 38 7 52 12 7 26 11 30 10 4
-1 17 6 28 17 19 17 19 19 2 23 -10 2 -29 1 -43 -2 -14 -4 -36 -2 -49 4 -18 8
-25 8 -28 -1 -3 -7 -10 -10 -16 -7 -7 2 -21 -3 -32 -12 -11 -8 -14 -13 -7 -9
6 3 12 2 12 -2 0 -5 -13 -14 -30 -20 -16 -6 -30 -7 -30 -2 0 12 -49 6 -82 -11
-16 -7 -28 -19 -28 -26 0 -8 -12 -12 -35 -11 -19 1 -35 3 -35 5 0 1 9 11 20
22 11 11 20 16 20 10 0 -18 29 -10 45 13 8 12 20 22 25 22 5 0 16 9 24 20 14
17 17 18 26 5 6 -10 10 -11 10 -3 0 7 7 10 15 7 11 -5 13 -2 8 12 -5 13 -3 16
8 12 20 -8 44 12 46 39 2 33 -41 39 -69 11 -19 -19 -23 -20 -26 -7 -2 14 -7
15 -28 5 -13 -6 -22 -17 -19 -24 4 -10 -2 -12 -25 -7 -17 4 -29 3 -28 -2 2 -4
0 -9 -4 -10 -5 -2 -17 -12 -28 -23 -11 -11 -28 -20 -37 -20 -15 0 -16 2 -3 10
11 7 11 10 2 10 -14 0 -30 -12 -67 -50 -13 -13 -27 -21 -31 -17 -4 4 -13 -1
-20 -11 -7 -9 -14 -12 -14 -5 0 6 -13 11 -30 11 -17 -1 -33 1 -35 4 -8 8 6 38
17 38 6 0 32 16 59 36 27 20 49 32 49 28 0 -4 9 1 20 11 10 9 26 15 35 12 8
-4 14 -1 12 6 -1 7 6 11 16 11 9 -1 17 2 17 6 0 5 8 6 19 3 10 -3 22 1 26 8 5
8 4 10 -3 5 -7 -4 -12 -3 -12 3 0 6 18 20 40 31 47 24 52 45 11 45 -16 0 -27
-3 -24 -7 2 -5 -1 -8 -6 -8 -6 0 -11 5 -11 10 0 6 -4 10 -10 10 -5 0 -10 -7
-10 -16 0 -11 -6 -15 -19 -11 -11 3 -22 -1 -25 -8 -2 -7 -17 -15 -32 -18 l-28
-5 25 19 c15 12 -5 6 -51 -14 -104 -47 -120 -52 -120 -33 0 8 16 20 36 26 20
7 52 23 72 36 19 13 41 24 48 24 8 0 11 6 7 17 -4 10 -2 14 4 10 18 -11 44 22
38 47 -6 19 -5 20 8 4 8 -10 23 -18 34 -18 25 0 43 -18 36 -39 -4 -12 -3 -13
5 -2 7 9 11 10 17 2 3 -7 15 -9 26 -6 11 4 19 2 19 -4 0 -6 5 -11 11 -11 13 0
65 -61 61 -73 -1 -5 2 -6 8 -2 8 5 7 11 -1 21 -14 17 8 20 31 3 11 -8 12 -12
2 -16 -9 -3 -6 -12 10 -29 27 -27 43 -31 34 -8 -4 9 -1 23 5 31 14 17 17 15
-56 49 -38 17 -54 29 -43 31 9 3 26 -1 37 -6 28 -15 36 -14 21 4 -7 8 -15 13
-19 11 -19 -12 -36 16 -36 58 0 24 3 43 6 41 3 -2 12 18 19 45 8 28 17 50 21
50 4 0 5 9 2 20 -3 11 0 20 6 20 6 0 11 5 11 11 0 5 -4 7 -10 4 -5 -3 -10 3
-10 14 0 15 6 21 23 21 18 0 22 -5 22 -26z m1415 -70 c-18 -21 -24 -10 -8 15
7 12 14 17 16 11 2 -6 -2 -17 -8 -26z m-1640 -118 c0 -3 -4 -8 -10 -11 -5 -3
-10 -1 -10 4 0 6 5 11 10 11 6 0 10 -2 10 -4z m-135 -21 c-62 -17 -69 -17 -30
0 17 8 41 14 55 14 15 0 5 -6 -25 -14z m1214 -46 c-2 -27 -5 -52 -8 -54 -4 -2
-17 3 -31 11 -25 13 -25 13 -2 14 12 0 22 5 22 11 0 6 -9 8 -20 4 -25 -8 -27
20 -3 47 30 34 44 23 42 -33z m-1599 -69 c0 -5 -5 -10 -11 -10 -5 0 -7 5 -4
10 3 6 8 10 11 10 2 0 4 -4 4 -10z m1000 0 c0 -5 -5 -10 -11 -10 -5 0 -7 5 -4
10 3 6 8 10 11 10 2 0 4 -4 4 -10z m-256 -9 c6 -10 -24 -25 -32 -16 -3 3 0 5
7 5 7 0 9 5 6 10 -3 6 -2 10 4 10 5 0 12 -4 15 -9z m-384 -15 c0 -2 -9 -6 -20
-9 -11 -3 -18 -1 -14 4 5 9 34 13 34 5z m1415 -37 c-4 -6 2 -13 14 -16 12 -3
21 -9 21 -13 0 -5 9 -11 20 -15 11 -3 19 -12 17 -18 -1 -7 4 -11 11 -9 18 3
79 -41 64 -46 -7 -2 -10 -8 -6 -13 8 -13 -20 -11 -34 3 -9 9 -12 8 -12 -4 0
-12 -14 -8 -66 19 -36 19 -63 37 -61 40 3 2 17 -3 31 -13 15 -9 30 -13 34 -9
4 4 3 9 -3 11 -5 2 -25 13 -44 25 l-33 20 23 25 c24 25 35 32 24 13z m-1175
-19 c0 -5 -5 -10 -11 -10 -5 0 -7 5 -4 10 3 6 8 10 11 10 2 0 4 -4 4 -10z
m376 -78 c-4 -3 -14 2 -24 12 -16 18 -16 18 6 6 13 -6 21 -14 18 -18z m355
-25 c-10 -9 -11 -8 -5 6 3 10 9 15 12 12 3 -3 0 -11 -7 -18z m-561 -34 c0 -24
-51 -53 -67 -39 -8 8 -1 17 26 33 43 27 41 27 41 6z m220 0 c0 -5 -4 -14 -9
-21 -6 -10 -11 -9 -22 4 -9 12 -10 15 -1 10 6 -4 12 -2 12 3 0 6 5 11 10 11 6
0 10 -3 10 -7z m-35 -32 c3 -5 1 -12 -4 -15 -5 -3 -11 1 -15 9 -6 16 9 21 19
6z m1270 -251 c-3 -5 -12 -10 -18 -10 -7 0 -6 4 3 10 19 12 23 12 15 0z
m-1251 -99 c-1 -20 -5 -44 -8 -53 -3 -10 -9 -26 -12 -35 -3 -10 -8 -31 -11
-48 -12 -81 -33 -128 -49 -112 -7 7 -10 137 -3 137 3 0 6 6 7 13 0 6 4 23 8
36 5 17 4 22 -4 17 -8 -5 -10 -2 -6 8 7 19 34 21 34 4 0 -7 7 0 15 16 18 34
18 36 4 36 -7 0 -18 -8 -26 -17 -8 -10 -13 -13 -10 -8 2 6 7 17 10 26 3 9 16
17 29 17 21 0 24 -5 22 -37z m379 -66 c-3 -9 -8 -14 -10 -11 -3 3 -2 9 2 15 9
16 15 13 8 -4z m-1212 -6 c11 -5 16 -15 13 -21 -4 -7 -3 -8 5 -4 14 9 51 -2
51 -16 0 -6 -6 -6 -15 2 -9 7 -18 11 -20 8 -3 -3 2 -11 10 -18 12 -10 19 -10
27 -2 8 8 19 7 39 -4 27 -13 34 -25 30 -47 -1 -5 3 -6 8 -3 13 8 42 -4 35 -15
-3 -5 2 -9 12 -9 13 0 14 -3 4 -15 -7 -8 -16 -12 -21 -9 -5 3 -9 0 -9 -5 0
-21 -3 -26 -21 -39 -11 -7 -24 -10 -29 -7 -6 3 -10 1 -10 -5 0 -6 -4 -8 -10
-5 -5 3 -10 -1 -10 -9 0 -20 1 -20 47 5 23 12 29 14 16 3 -22 -16 -32 -37 -15
-32 16 6 72 -26 73 -41 2 -47 9 -103 14 -111 3 -6 2 -10 -3 -10 -17 0 -41 84
-30 104 11 19 7 26 -14 30 -7 1 -18 5 -23 8 -15 9 -30 -3 -33 -27 -1 -11 -4
-31 -6 -45 -2 -14 -4 -31 -5 -37 0 -7 -8 -13 -16 -13 -21 0 -20 73 1 94 8 9
12 16 8 16 -3 0 0 8 7 17 13 15 12 16 -9 11 -12 -4 -20 -2 -16 3 9 15 -9 10
-41 -11 -16 -11 -26 -20 -21 -20 4 0 -2 -9 -15 -20 l-24 -19 41 -1 c40 0 41
-1 39 -32 -3 -45 3 -57 26 -51 13 4 19 0 19 -11 0 -10 -3 -15 -7 -13 -5 3 -9
-31 -10 -75 -1 -81 -15 -117 -33 -88 -5 8 -10 33 -11 55 0 22 -2 49 -4 60 -2
11 -5 45 -6 75 -2 69 -6 76 -28 51 -12 -14 -25 -18 -42 -14 l-24 6 23 -21 c13
-12 21 -26 17 -31 -10 -17 -23 -13 -30 9 -7 23 -25 27 -25 5 0 -8 -7 -15 -14
-15 -8 0 -21 -12 -28 -27 -7 -14 -20 -28 -28 -31 -10 -2 -11 -1 -4 5 19 14 34
51 28 67 -4 9 0 18 10 22 9 3 13 10 10 15 -3 5 14 9 38 9 34 1 39 3 25 11 -9
5 -22 7 -27 4 -6 -3 -10 -3 -10 0 0 3 16 13 35 21 20 8 33 19 30 24 -3 5 -11
7 -18 4 -7 -2 -18 6 -26 18 -10 17 -10 20 0 11 15 -15 39 1 39 26 0 9 5 22 12
29 8 8 9 12 1 12 -6 0 -13 -5 -15 -11 -6 -19 -48 0 -48 22 0 10 5 19 10 19 6
0 10 8 10 18 -1 13 -5 11 -21 -11 -11 -15 -25 -25 -30 -21 -11 6 -12 45 -1 42
4 0 14 2 23 6 10 4 30 -1 50 -13 19 -12 30 -21 24 -21 -5 0 4 -9 20 -20 38
-25 71 -25 85 -1 13 25 13 44 0 36 -5 -3 -10 -1 -10 4 0 6 -5 11 -11 11 -22 0
-74 55 -71 73 3 16 1 17 -16 8 -22 -12 -33 -6 -26 14 4 9 0 12 -13 9 -13 -4
-19 1 -20 15 -2 24 25 28 58 10z m1489 -15 c0 -8 -5 -12 -10 -9 -6 4 -8 11 -5
16 9 14 15 11 15 -7z m-70 -39 c0 -25 -15 -24 -16 1 -1 13 2 21 7 18 5 -3 9
-11 9 -19z m70 -5 c0 -11 -4 -20 -10 -20 -5 0 -10 9 -10 20 0 11 5 20 10 20 6
0 10 -9 10 -20z m160 -1 c0 -5 -7 -9 -15 -9 -9 0 -12 6 -9 15 6 15 24 11 24
-6z m-1410 -39 c0 -4 -8 -10 -18 -12 -12 -3 -18 1 -18 12 0 11 6 15 18 12 10
-2 18 -8 18 -12z m251 -23 c-10 -9 -11 -8 -5 6 3 10 9 15 12 12 3 -3 0 -11 -7
-18z m66 -29 c-3 -7 -5 -2 -5 12 0 14 2 19 5 13 2 -7 2 -19 0 -25z m970 -35
l-15 -27 2 29 c2 17 7 39 12 50 9 19 9 19 12 -2 2 -12 -3 -34 -11 -50z m-997
42 c-7 -9 -15 -13 -17 -11 -7 7 7 26 19 26 6 0 6 -6 -2 -15z m1100 -5 c0 -5
-4 -10 -10 -10 -5 0 -10 5 -10 10 0 6 5 10 10 10 6 0 10 -4 10 -10z m-1214
-43 c-3 -16 -6 -38 -6 -48 0 -11 -4 -19 -8 -19 -5 0 -8 24 -8 54 0 41 4 52 14
48 10 -3 12 -14 8 -35z m131 -9 c-3 -7 -5 -2 -5 12 0 14 2 19 5 13 2 -7 2 -19
0 -25z m1083 28 c0 -3 -4 -8 -10 -11 -5 -3 -10 -1 -10 4 0 6 5 11 10 11 6 0
10 -2 10 -4z m-1351 -141 c0 -57 -4 -95 -10 -95 -15 0 -23 30 -11 42 8 8 8 17
1 30 -5 10 -7 18 -3 18 3 0 2 6 -4 13 -7 8 -5 23 5 50 8 20 17 37 18 37 2 0 4
-43 4 -95z m1376 77 c-3 -3 -11 0 -18 7 -9 10 -8 11 6 5 10 -3 15 -9 12 -12z
m265 -13 c0 -20 -15 -26 -25 -9 -3 6 -1 10 5 10 7 0 9 7 6 16 -3 8 -2 12 4 9
6 -3 10 -15 10 -26z m-423 15 c-3 -3 -12 -4 -19 -1 -8 3 -5 6 6 6 11 1 17 -2
13 -5z m-830 -61 c-2 -27 -9 -49 -17 -51 -10 -4 -11 5 -6 38 12 75 29 84 23
13z m353 38 c0 -5 -9 -7 -20 -4 -11 3 -20 7 -20 9 0 2 9 4 20 4 11 0 20 -4 20
-9z m638 -96 c-11 -55 -25 -103 -32 -107 -21 -14 -36 -8 -35 15 0 18 2 19 7 5
9 -21 27 -11 36 20 8 25 -11 31 -32 10 -15 -15 -15 -12 -1 52 6 28 13 49 17
46 3 -3 16 10 30 30 13 19 25 34 27 32 2 -2 -6 -48 -17 -103z m-1765 47 c-3
-15 -11 -30 -17 -34 -17 -11 -54 -9 -62 3 -4 7 0 9 13 5 22 -7 66 22 46 30
-10 4 -10 8 0 19 18 19 28 8 20 -23z m2058 -34 c-6 -18 -13 -51 -17 -73 -6
-44 -11 -76 -13 -87 -2 -15 -39 -8 -45 8 -7 17 10 54 24 54 6 0 9 10 9 23 -1
16 -2 18 -6 5 -2 -10 -8 -18 -13 -18 -12 0 -5 113 9 118 6 2 11 -1 11 -7 0
-17 30 -13 37 4 11 30 15 6 4 -27z m-1557 7 c-6 -16 -24 -21 -24 -7 0 11 11
22 21 22 5 0 6 -7 3 -15z m-614 -26 l-25 -21 28 6 c15 4 27 2 27 -3 0 -6 -27
-13 -60 -17 -58 -6 -74 -16 -47 -28 6 -4 2 -4 -10 -2 -20 4 -23 0 -23 -28 0
-42 5 -46 40 -36 23 7 28 5 23 -6 -5 -14 -20 -18 -63 -14 -38 3 -41 8 -25 46
14 33 55 94 55 81 0 -4 19 4 43 17 53 30 70 32 37 5z m727 -68 c-16 -81 -20
-89 -42 -71 -15 12 -11 35 5 25 7 -4 15 29 23 90 2 18 17 38 24 31 2 -2 -3
-35 -10 -75z m1571 52 c-3 -24 0 -28 21 -25 23 4 23 2 17 -55 -10 -88 -25
-175 -30 -181 -7 -6 -1 77 9 136 4 23 4 42 1 42 -17 0 -46 -22 -41 -31 4 -5 2
-9 -4 -9 -5 0 -13 5 -16 10 -3 6 -2 10 3 10 6 0 8 9 5 20 -3 11 0 20 6 20 6 0
8 7 4 17 -4 11 -3 14 5 9 7 -4 12 -3 12 3 0 5 -6 12 -12 15 -10 5 -10 7 -1 12
7 3 9 12 6 20 -3 8 0 14 6 14 7 0 11 -12 9 -27z m-773 -73 c3 -5 2 -10 -4 -10
-5 0 -13 5 -16 10 -3 6 -2 10 4 10 5 0 13 -4 16 -10z m-1025 -36 c0 -38 -15
-74 -31 -74 -5 0 -3 12 5 28 8 15 12 40 9 55 -3 16 -1 27 6 27 6 0 11 -16 11
-36z m-465 1 c-16 -7 -34 -10 -40 -7 -5 4 4 10 20 13 47 10 53 9 20 -6z m1902
-1 c-3 -3 -12 -4 -19 -1 -8 3 -5 6 6 6 11 1 17 -2 13 -5z m-7 -47 c0 -22 -5
-34 -14 -34 -12 0 -12 15 0 55 7 23 14 12 14 -21z m-651 -79 c-1 -18 -3 -25
-6 -16 -4 16 -9 15 -41 -10 -20 -15 -43 -35 -50 -44 -14 -19 -52 -25 -52 -8 0
6 10 14 23 19 12 5 30 18 41 30 10 11 23 18 28 15 5 -3 18 6 29 20 26 33 29
33 28 -6z m371 -28 c0 -5 -2 -10 -4 -10 -3 0 -8 5 -11 10 -3 6 -1 10 4 10 6 0
11 -4 11 -10z m45 -39 c3 -5 1 -12 -5 -16 -5 -3 -10 1 -10 9 0 18 6 21 15 7z
m596 -11 c-13 -11 -28 -20 -35 -20 -6 0 3 9 19 19 39 25 46 25 16 1z m-1166
-19 c3 -6 -7 -22 -22 -37 -16 -15 -21 -22 -12 -16 9 7 18 9 22 6 3 -3 25 6 49
19 41 24 89 30 116 13 22 -13 12 -22 -20 -18 -21 2 -61 -8 -108 -27 -81 -34
-105 -38 -94 -18 6 10 4 10 -7 0 -20 -19 -39 -16 -32 5 5 14 3 15 -7 5 -10
-10 -11 -15 -1 -27 13 -16 -1 -32 -19 -21 -22 13 -9 42 27 61 21 10 49 29 63
42 27 24 36 27 45 13z"/>
<path d="M2280 3471 c0 -6 5 -13 10 -16 6 -3 10 1 10 9 0 9 -4 16 -10 16 -5 0
-10 -4 -10 -9z"/>
<path d="M2450 3481 c0 -5 5 -13 10 -16 6 -3 10 -2 10 4 0 5 -4 13 -10 16 -5
3 -10 2 -10 -4z"/>
<path d="M2325 3400 c3 -5 11 -10 16 -10 6 0 7 5 4 10 -3 6 -11 10 -16 10 -6
0 -7 -4 -4 -10z"/>
<path d="M2210 3344 c0 -8 7 -14 15 -14 7 0 18 -8 24 -17 8 -15 12 -16 22 -5
11 10 10 12 -4 12 -9 0 -17 6 -17 14 0 7 -9 16 -20 19 -13 3 -20 0 -20 -9z"/>
<path d="M2640 3170 c-21 -7 -21 -8 -5 -9 11 0 27 4 35 9 18 11 5 11 -30 0z"/>
<path d="M2608 3143 c7 -3 16 -2 19 1 4 3 -2 6 -13 5 -11 0 -14 -3 -6 -6z"/>
<path d="M2475 3070 c-3 -5 -2 -10 4 -10 5 0 13 5 16 10 3 6 2 10 -4 10 -5 0
-13 -4 -16 -10z"/>
<path d="M2465 3019 c-11 -17 1 -21 15 -4 8 9 8 15 2 15 -6 0 -14 -5 -17 -11z"/>
<path d="M2640 3020 c-12 -8 -11 -10 8 -10 12 0 22 5 22 10 0 13 -11 13 -30 0z"/>
<path d="M2591 2991 c-16 -10 -6 -31 14 -31 9 0 12 6 9 15 -5 11 -1 14 12 9
16 -5 16 -4 4 5 -18 13 -21 13 -39 2z"/>
<path d="M2687 2986 c-4 -10 -1 -13 8 -9 8 3 12 9 9 14 -7 12 -11 11 -17 -5z"/>
<path d="M2610 2940 c0 -15 21 -23 32 -12 6 6 2 11 -11 15 -12 3 -21 1 -21 -3z"/>
<path d="M2615 2830 c-3 -5 -1 -10 4 -10 6 0 11 5 11 10 0 6 -2 10 -4 10 -3 0
-8 -4 -11 -10z"/>
<path d="M2650 2819 c0 -5 5 -7 10 -4 6 3 10 8 10 11 0 2 -4 4 -10 4 -5 0 -10
-5 -10 -11z"/>
<path d="M2441 2798 c-1 -16 4 -28 9 -28 12 0 12 8 0 35 -8 18 -9 17 -9 -7z"/>
<path d="M2470 2770 c0 -5 4 -10 9 -10 6 0 13 5 16 10 3 6 -1 10 -9 10 -9 0
-16 -4 -16 -10z"/>
<path d="M2517 2747 c-7 -20 17 -24 29 -5 4 6 3 8 -4 4 -5 -3 -12 -1 -14 6 -3
8 -7 6 -11 -5z"/>
<path d="M2310 2626 c0 -2 7 -7 16 -10 8 -3 12 -2 9 4 -6 10 -25 14 -25 6z"/>
<path d="M2440 2590 c0 -5 5 -10 10 -10 6 0 10 5 10 10 0 6 -4 10 -10 10 -5 0
-10 -4 -10 -10z"/>
<path d="M2875 2569 c-4 -6 -5 -12 -2 -15 2 -3 7 2 10 11 7 17 1 20 -8 4z"/>
<path d="M2310 2465 c-19 -14 -40 -25 -47 -25 -7 0 -13 -4 -13 -10 0 -5 -8
-10 -19 -10 -10 0 -24 -7 -31 -15 -8 -10 -9 -15 -1 -15 18 0 105 44 122 63 9
9 21 17 27 17 6 0 14 5 17 10 12 19 -21 10 -55 -15z"/>
<path d="M2480 2472 c0 -13 35 -42 50 -42 10 0 10 -3 0 -15 -11 -13 -10 -14
11 -7 17 7 35 3 67 -14 40 -21 46 -22 65 -9 32 22 44 18 14 -5 -14 -11 -37
-20 -51 -20 -14 0 -26 -4 -26 -10 0 -5 7 -7 15 -4 18 7 20 -12 3 -20 -9 -3 -8
-9 6 -20 13 -11 19 -29 20 -70 2 -88 16 -65 16 26 0 70 3 85 22 105 12 13 23
30 24 38 2 12 -2 13 -29 1 -34 -14 -78 -6 -108 20 -8 8 -20 14 -26 14 -5 0
-20 9 -33 20 -24 21 -40 26 -40 12z"/>
<path d="M2748 2384 c-12 -11 5 -45 19 -40 8 3 21 6 29 6 11 0 10 4 -3 20 -17
20 -34 25 -45 14z"/>
<path d="M2570 2376 c0 -2 7 -6 15 -10 8 -3 15 -1 15 4 0 6 -7 10 -15 10 -8 0
-15 -2 -15 -4z"/>
<path d="M2210 2308 c0 -16 5 -28 10 -28 13 0 13 20 0 40 -8 12 -10 9 -10 -12z"/>
<path d="M2597 2315 c-6 -14 -3 -23 9 -32 23 -17 44 -16 23 0 -9 7 -18 21 -21
32 -4 20 -4 20 -11 0z"/>
<path d="M2400 2281 c0 -6 5 -13 10 -16 6 -3 10 1 10 9 0 9 -4 16 -10 16 -5 0
-10 -4 -10 -9z"/>
<path d="M2347 2263 c-13 -12 -7 -18 23 -20 22 -2 28 1 23 12 -5 15 -34 20
-46 8z"/>
<path d="M2414 2245 c-27 -21 -36 -23 -64 -15 -26 7 -31 6 -26 -5 3 -8 1 -17
-4 -20 -6 -4 -10 3 -10 15 0 12 -4 18 -10 15 -10 -6 -8 -54 4 -73 3 -6 30 -23
59 -37 l53 -27 57 36 c31 20 57 42 57 48 0 7 -5 6 -15 -2 -17 -14 -23 -11 -40
22 -6 13 -18 22 -28 20 -24 -4 -21 15 3 23 11 4 18 11 15 16 -9 14 -17 11 -51
-16z m35 -34 c21 -6 22 -8 7 -20 -9 -7 -16 -10 -16 -6 0 5 -9 0 -20 -10 -18
-16 -20 -16 -26 -1 -3 9 -15 16 -25 16 -27 0 -24 18 4 23 32 6 49 6 76 -2z"/>
<path d="M2600 2246 c0 -31 6 -34 13 -6 3 11 1 23 -4 26 -5 3 -9 -6 -9 -20z"/>
<path d="M2180 2220 c0 -5 5 -10 10 -10 6 0 10 5 10 10 0 6 -4 10 -10 10 -5 0
-10 -4 -10 -10z"/>
<path d="M2570 2190 c0 -16 5 -30 10 -30 6 0 10 -4 10 -10 0 -5 -10 -8 -22 -7
-12 2 -52 -13 -91 -35 l-68 -39 -67 38 c-37 20 -71 36 -76 35 -5 -2 -6 4 -3
12 4 9 -1 20 -11 25 -11 7 -12 11 -4 11 7 0 10 4 7 10 -4 6 -13 5 -25 -3 -28
-17 -28 -83 -1 -90 11 -3 22 1 25 8 3 9 20 5 63 -16 32 -15 58 -32 58 -36 1
-4 6 -18 12 -29 12 -21 47 -25 74 -9 16 11 -16 28 -39 21 -9 -3 -23 -2 -30 3
-9 5 -1 10 25 14 21 4 59 18 85 32 53 28 108 34 108 10 0 -8 5 -15 11 -15 7 0
8 7 4 18 -4 9 -9 33 -12 52 -10 61 -43 84 -43 30z m-320 -54 c0 -3 -4 -8 -10
-11 -5 -3 -10 -1 -10 4 0 6 5 11 10 11 6 0 10 -2 10 -4z"/>
<path d="M2184 2185 c3 -21 16 -31 16 -12 0 9 -4 18 -9 21 -5 4 -8 -1 -7 -9z"/>
<path d="M2659 2168 c-9 -17 -3 -57 10 -72 13 -15 13 -18 1 -15 -8 2 -38 0
-67 -4 -39 -6 -57 -14 -73 -34 -16 -20 -23 -24 -29 -14 -6 10 -10 9 -14 -3 -9
-22 27 -40 42 -22 10 12 79 49 112 59 20 7 92 -17 82 -26 -3 -4 -2 -7 4 -7 6
0 37 -18 69 -39 32 -22 61 -38 65 -35 4 2 26 -12 50 -31 57 -45 70 -45 20 0
-21 19 -42 35 -46 35 -4 0 -27 14 -52 30 -24 17 -49 27 -55 24 -7 -4 -8 -2 -4
4 7 12 -47 46 -74 46 -8 1 -14 7 -12 15 2 8 -3 18 -10 22 -7 5 -11 21 -10 39
3 24 -3 40 -9 28z"/>
<path d="M2536 2085 c-10 -8 -23 -12 -27 -9 -5 3 -9 -2 -9 -11 0 -14 3 -14 29
0 30 15 49 35 34 35 -4 0 -17 -7 -27 -15z"/>
<path d="M2037 2077 c-3 -9 -2 -19 4 -23 7 -4 7 -10 0 -18 -7 -8 -5 -12 9 -12
10 0 16 4 13 9 -3 5 -8 20 -12 35 -6 21 -9 23 -14 9z"/>
<path d="M2280 2080 c0 -6 12 -15 27 -21 22 -8 24 -12 13 -19 -8 -5 -24 -7
-35 -4 -11 4 11 -23 49 -59 l69 -66 -17 -26 c-13 -20 -15 -30 -7 -38 16 -16
13 -69 -5 -95 -15 -21 -15 -25 1 -42 14 -15 16 -30 11 -69 -5 -40 -3 -51 8
-51 8 0 15 10 15 23 12 161 11 231 -1 238 -9 6 -10 12 -3 17 6 4 18 26 27 50
13 34 14 41 3 32 -27 -22 -88 21 -70 50 3 6 -4 10 -15 10 -18 0 -21 4 -16 23
4 18 -1 27 -24 41 -17 10 -30 13 -30 6z"/>
<path d="M2200 2070 c0 -13 18 -22 24 -11 3 5 -1 11 -9 15 -8 3 -15 1 -15 -4z"/>
<path d="M2970 2030 c0 -5 -9 -10 -19 -10 -18 0 -37 -27 -27 -37 7 -8 55 31
56 45 0 6 -2 12 -5 12 -3 0 -5 -4 -5 -10z"/>
<path d="M1997 2006 c-12 -9 -14 -16 -8 -21 6 -3 11 -1 11 5 0 6 5 8 10 5 6
-3 10 1 10 9 0 19 0 19 -23 2z"/>
<path d="M2840 2011 c0 -5 7 -12 16 -15 14 -5 15 -4 4 9 -14 17 -20 19 -20 6z"/>
<path d="M3220 2010 c-9 -6 -10 -10 -3 -10 6 0 15 5 18 10 8 12 4 12 -15 0z"/>
<path d="M2390 1993 c0 -15 15 -29 28 -27 26 3 26 5 8 19 -22 16 -36 19 -36 8z"/>
<path d="M3165 1980 c3 -5 8 -10 11 -10 2 0 4 5 4 10 0 6 -5 10 -11 10 -5 0
-7 -4 -4 -10z"/>
<path d="M1945 1960 c-3 -6 1 -7 9 -4 18 7 21 14 7 14 -6 0 -13 -4 -16 -10z"/>
<path d="M1475 1920 c3 -5 11 -10 16 -10 6 0 7 5 4 10 -3 6 -11 10 -16 10 -6
0 -7 -4 -4 -10z"/>
<path d="M1718 1923 c7 -3 16 -2 19 1 4 3 -2 6 -13 5 -11 0 -14 -3 -6 -6z"/>
<path d="M1959 1927 c-1 -4 -2 -10 -3 -14 -1 -5 -5 -14 -9 -20 -5 -9 -3 -13 8
-13 20 0 31 28 16 43 -6 6 -12 8 -12 4z"/>
<path d="M3625 1900 c-3 -5 -1 -10 4 -10 6 0 11 5 11 10 0 6 -2 10 -4 10 -3 0
-8 -4 -11 -10z"/>
<path d="M3277 1880 c-27 -22 -42 -26 -32 -10 3 6 1 10 -4 10 -6 0 -11 -4 -11
-10 0 -5 -12 -20 -26 -33 -25 -23 -25 -24 -5 -23 12 0 21 5 21 10 -1 4 21 19
48 31 51 24 74 45 49 45 -8 0 -26 -9 -40 -20z"/>
<path d="M3005 1880 c-3 -5 -1 -10 4 -10 6 0 11 5 11 10 0 6 -2 10 -4 10 -3 0
-8 -4 -11 -10z"/>
<path d="M3027 1866 c-4 -10 -1 -13 9 -9 16 6 19 -8 4 -23 -6 -6 -2 -10 13
-11 12 0 16 1 9 4 -10 4 -10 8 -1 20 10 12 10 16 -2 24 -20 12 -26 11 -32 -5z"/>
<path d="M3145 1840 c-3 -6 1 -7 9 -4 18 7 21 14 7 14 -6 0 -13 -4 -16 -10z"/>
<path d="M2355 1830 c-3 -5 -1 -10 4 -10 6 0 11 5 11 10 0 6 -2 10 -4 10 -3 0
-8 -4 -11 -10z"/>
<path d="M3443 1814 c-24 -13 -43 -19 -43 -14 0 6 -5 10 -11 10 -6 0 -9 -6 -6
-14 3 -8 -1 -17 -10 -20 -9 -4 -13 -9 -10 -12 7 -8 127 54 127 66 0 6 -1 10
-2 9 -2 -1 -22 -12 -45 -25z"/>
<path d="M3290 1770 c-13 -8 -12 -10 3 -10 9 0 17 5 17 10 0 12 -1 12 -20 0z"/>
<path d="M3100 1751 c0 -11 21 -19 38 -14 6 3 12 9 12 15 0 6 -6 6 -15 -2 -10
-9 -15 -9 -15 -1 0 6 -4 11 -10 11 -5 0 -10 -4 -10 -9z"/>
<path d="M2440 1729 c0 -18 24 -35 49 -35 23 0 23 1 -5 23 -32 25 -44 29 -44
12z"/>
<path d="M3078 1723 c7 -3 16 -2 19 1 4 3 -2 6 -13 5 -11 0 -14 -3 -6 -6z"/>
<path d="M2357 1683 c5 -12 3 -14 -7 -8 -9 5 -11 4 -6 -3 11 -19 26 -14 26 8
0 11 -4 20 -10 20 -5 0 -6 -7 -3 -17z"/>
<path d="M3120 1675 c-11 -13 -10 -14 4 -9 9 3 16 10 16 15 0 13 -6 11 -20 -6z"/>
<path d="M3349 1671 c21 -21 68 -40 57 -23 -5 9 -62 42 -73 42 -1 0 6 -9 16
-19z"/>
<path d="M3310 1675 c0 -3 9 -14 20 -25 12 -12 20 -15 20 -7 0 7 -9 18 -20 25
-11 7 -20 10 -20 7z"/>
<path d="M3445 1660 c3 -5 8 -10 11 -10 2 0 4 5 4 10 0 6 -5 10 -11 10 -5 0
-7 -4 -4 -10z"/>
<path d="M2556 1645 c7 -17 35 -35 55 -35 7 0 2 11 -11 25 -26 28 -53 34 -44
10z"/>
<path d="M3090 1649 c0 -6 -7 -9 -15 -5 -8 3 -15 1 -15 -4 0 -6 9 -10 20 -10
11 0 20 7 20 15 0 8 -2 15 -5 15 -3 0 -5 -5 -5 -11z"/>
<path d="M3472 1645 c-7 -8 -9 -15 -4 -15 5 0 15 7 22 15 16 19 -1 19 -18 0z"/>
<path d="M3348 1613 c7 -3 16 -2 19 1 4 3 -2 6 -13 5 -11 0 -14 -3 -6 -6z"/>
<path d="M3073 1598 c-13 -6 -23 -14 -23 -19 0 -12 38 2 44 17 3 8 4 14 3 13
-1 0 -12 -5 -24 -11z"/>
<path d="M3363 1602 c-21 -2 -33 -9 -33 -18 0 -19 34 -18 50 1 11 13 15 13 21
3 6 -9 9 -9 9 -1 0 16 -9 19 -47 15z"/>
<path d="M3427 1597 c-3 -7 3 -13 14 -13 22 0 25 12 5 19 -8 3 -16 0 -19 -6z"/>
<path d="M3485 1590 c-9 -14 6 -38 26 -43 15 -4 18 -2 10 7 -7 9 -7 16 0 23 7
7 4 12 -10 16 -12 3 -23 1 -26 -3z"/>
<path d="M2077 1575 c-4 -8 -3 -16 1 -19 4 -3 9 4 9 15 2 23 -3 25 -10 4z"/>
<path d="M2665 1580 c-3 -5 1 -13 10 -16 22 -9 29 1 11 15 -10 8 -16 9 -21 1z"/>
<path d="M2330 1572 c0 -5 -11 -13 -25 -16 -14 -4 -25 -11 -25 -17 0 -8 5 -7
15 1 12 10 15 9 15 -4 0 -14 4 -15 22 -5 17 9 20 9 16 -3 -3 -8 7 -29 22 -48
l28 -34 -21 -18 c-11 -10 -24 -18 -29 -18 -5 0 -7 -9 -3 -20 5 -15 3 -18 -8
-14 -13 5 -97 -30 -97 -41 0 -6 74 7 80 14 8 10 44 31 63 38 11 3 16 12 12 21
-5 13 32 55 76 87 8 6 12 9 10 8 -2 -1 -15 7 -29 17 -13 11 -33 20 -43 20 -11
0 -19 4 -19 10 0 5 -6 7 -14 4 -7 -3 -21 2 -30 11 -9 9 -16 12 -16 7z m75
-111 c-6 -5 -25 10 -25 20 0 5 6 4 14 -3 8 -7 12 -15 11 -17z"/>
<path d="M3530 1566 c0 -2 7 -9 15 -16 9 -7 15 -8 15 -2 0 5 -7 12 -15 16 -8
3 -15 4 -15 2z"/>
<path d="M3450 1550 c0 -5 5 -10 10 -10 6 0 10 5 10 10 0 6 -4 10 -10 10 -5 0
-10 -4 -10 -10z"/>
<path d="M2510 1540 c-20 -13 -21 -47 -1 -56 9 -4 31 -6 49 -5 17 2 32 -2 32
-7 0 -5 7 -12 14 -15 25 -10 6 24 -33 60 -40 37 -40 37 -61 23z"/>
<path d="M3055 1540 c3 -5 11 -10 16 -10 6 0 7 5 4 10 -3 6 -11 10 -16 10 -6
0 -7 -4 -4 -10z"/>
<path d="M3358 1543 c7 -3 16 -2 19 1 4 3 -2 6 -13 5 -11 0 -14 -3 -6 -6z"/>
<path d="M2465 1531 c-3 -5 -1 -12 4 -15 5 -3 11 1 15 9 6 16 -9 21 -19 6z"/>
<path d="M3501 1520 c-9 -5 -4 -9 13 -12 14 -3 26 -2 26 2 0 12 -26 19 -39 10z"/>
<path d="M3060 1490 c0 -5 5 -10 10 -10 6 0 10 5 10 10 0 6 -4 10 -10 10 -5 0
-10 -4 -10 -10z"/>
<path d="M2245 1480 c-3 -5 -2 -10 4 -10 5 0 13 5 16 10 3 6 2 10 -4 10 -5 0
-13 -4 -16 -10z"/>
<path d="M2743 1373 c0 -7 15 -23 34 -34 18 -11 33 -24 33 -29 0 -4 12 -11 26
-14 15 -4 33 -14 41 -21 18 -18 36 -20 31 -3 -5 15 -80 71 -129 96 -27 14 -36
15 -36 5z"/>
<path d="M2416 1361 c-16 -6 -17 -9 -6 -16 9 -5 15 -4 18 3 2 7 8 10 13 6 5
-3 9 0 9 5 0 12 -7 13 -34 2z"/>
<path d="M2490 1363 c0 -5 15 -18 33 -31 17 -12 50 -36 71 -52 21 -17 44 -30
50 -29 6 0 6 3 -1 6 -7 2 -13 11 -13 19 0 8 -3 14 -8 14 -4 0 -26 18 -50 40
-37 35 -82 53 -82 33z"/>
<path d="M3887 1335 c-8 -8 -17 -11 -21 -8 -3 4 -6 1 -6 -5 0 -7 -11 -12 -25
-12 -24 0 -24 -1 -7 -18 16 -18 30 -19 94 -6 25 5 26 7 16 35 -11 32 -29 37
-51 14z"/>
<path d="M3770 1325 c0 -8 4 -15 10 -15 5 0 7 7 4 15 -4 8 -8 15 -10 15 -2 0
-4 -7 -4 -15z"/>
<path d="M2627 1113 c-2 -4 4 -17 14 -27 22 -22 25 -10 5 17 -8 10 -16 15 -19
10z"/>
<path d="M2480 1030 c0 -5 -9 -10 -20 -10 -11 0 -20 -5 -20 -11 0 -7 7 -8 18
-4 9 5 25 8 34 9 13 0 14 4 6 13 -13 16 -18 16 -18 3z"/>
<path d="M2410 896 c0 -2 7 -7 16 -10 8 -3 12 -2 9 4 -6 10 -25 14 -25 6z"/>
<path d="M2410 861 c0 -5 5 -13 10 -16 6 -3 10 -2 10 4 0 5 -4 13 -10 16 -5 3
-10 2 -10 -4z"/>
<path d="M2433 794 c-10 -22 -10 -25 4 -20 11 5 14 2 9 -11 -7 -17 -6 -17 9
-2 11 11 15 24 10 38 -8 28 -17 26 -32 -5z"/>
<path d="M2389 743 c-13 -16 -12 -17 4 -4 9 7 17 15 17 17 0 8 -8 3 -21 -13z"/>
<path d="M985 3170 c3 -5 2 -10 -3 -10 -5 0 -12 -9 -15 -20 -4 -16 0 -20 19
-20 13 0 28 8 33 19 8 15 6 20 -15 30 -15 6 -23 7 -19 1z"/>
<path d="M2189 2973 c-12 -16 -12 -17 1 -7 8 6 22 14 30 17 13 5 12 6 -1 6 -9
1 -23 -7 -30 -16z"/>
<path d="M2220 2936 c0 -2 8 -10 18 -17 15 -13 16 -12 3 4 -13 16 -21 21 -21
13z"/>
<path d="M2275 2900 c-3 -5 -1 -10 4 -10 6 0 11 5 11 10 0 6 -2 10 -4 10 -3 0
-8 -4 -11 -10z"/>
<path d="M3274 3121 c3 -5 -1 -14 -9 -21 -8 -7 -12 -17 -8 -24 9 -13 10 -18
12 -48 2 -22 2 -22 12 -4 8 13 8 25 0 44 -11 22 -10 24 3 12 10 -7 16 -8 16
-2 0 6 -4 13 -10 17 -5 3 -7 12 -3 20 3 8 0 15 -7 15 -6 0 -9 -4 -6 -9z"/>
<path d="M3290 3020 c0 -5 5 -10 10 -10 6 0 10 5 10 10 0 6 -4 10 -10 10 -5 0
-10 -4 -10 -10z"/>
<path d="M3276 2975 c-16 -24 -12 -32 9 -17 10 7 20 42 12 42 -3 0 -12 -11
-21 -25z"/>
<path d="M3280 2940 c-8 -5 -11 -12 -7 -16 4 -4 13 -2 19 4 15 15 7 24 -12 12z"/>
<path d="M3290 2898 c-20 -22 -27 -48 -12 -48 15 0 32 24 32 45 0 16 2 17 10
5 8 -13 10 -12 10 3 0 23 -15 22 -40 -5z"/>
<path d="M1785 3040 c3 -5 8 -10 11 -10 2 0 4 5 4 10 0 6 -5 10 -11 10 -5 0
-7 -4 -4 -10z"/>
<path d="M1748 2944 c-10 -9 3 -34 17 -34 7 0 12 8 11 17 -3 18 -18 27 -28 17z"/>
<path d="M1612 2910 c0 -14 2 -19 5 -12 2 6 2 18 0 25 -3 6 -5 1 -5 -13z"/>
<path d="M1745 2880 c-3 -6 1 -7 9 -4 18 7 21 14 7 14 -6 0 -13 -4 -16 -10z"/>
<path d="M1744 2855 c-10 -8 -14 -15 -8 -15 6 0 17 7 24 15 16 19 9 19 -16 0z"/>
<path d="M1602 2840 c0 -14 2 -19 5 -12 2 6 2 18 0 25 -3 6 -5 1 -5 -13z"/>
<path d="M1570 2809 c0 -5 5 -7 10 -4 6 3 10 8 10 11 0 2 -4 4 -10 4 -5 0 -10
-5 -10 -11z"/>
<path d="M1586 2745 c4 -8 10 -12 15 -9 14 8 10 24 -6 24 -9 0 -12 -6 -9 -15z"/>
<path d="M1718 2703 c7 -3 16 -2 19 1 4 3 -2 6 -13 5 -11 0 -14 -3 -6 -6z"/>
<path d="M1725 2670 c27 -11 45 -12 45 -2 0 5 -15 9 -32 9 -27 1 -29 -1 -13
-7z"/>
<path d="M3460 2829 l-25 -20 33 16 c17 8 32 18 32 20 0 10 -16 4 -40 -16z"/>
<path d="M3135 2810 c-3 -5 -1 -10 4 -10 6 0 11 5 11 10 0 6 -2 10 -4 10 -3 0
-8 -4 -11 -10z"/>
<path d="M3410 2799 c0 -5 5 -7 10 -4 6 3 10 8 10 11 0 2 -4 4 -10 4 -5 0 -10
-5 -10 -11z"/>
<path d="M3474 2785 c-16 -12 -17 -14 -3 -15 9 0 19 7 23 15 7 19 5 19 -20 0z"/>
<path d="M3145 2780 c3 -5 8 -10 11 -10 2 0 4 5 4 10 0 6 -5 10 -11 10 -5 0
-7 -4 -4 -10z"/>
<path d="M3270 2609 c0 -5 5 -7 10 -4 6 3 10 8 10 11 0 2 -4 4 -10 4 -5 0 -10
-5 -10 -11z"/>
<path d="M3520 2569 c0 -5 5 -7 10 -4 6 3 10 8 10 11 0 2 -4 4 -10 4 -5 0 -10
-5 -10 -11z"/>
<path d="M3332 2401 c5 -19 48 -48 48 -32 0 6 -7 11 -15 11 -7 0 -19 8 -25 18
-6 9 -10 11 -8 3z"/>
<path d="M1422 2874 c4 -20 34 -41 44 -31 8 8 -24 47 -38 47 -5 0 -8 -7 -6
-16z"/>
<path d="M1325 2760 l-30 -8 27 -1 c15 0 30 4 33 9 3 6 5 9 3 9 -2 -1 -16 -5
-33 -9z"/>
<path d="M1240 2750 c0 -5 5 -10 11 -10 5 0 7 5 4 10 -3 6 -8 10 -11 10 -2 0
-4 -4 -4 -10z"/>
<path d="M1835 2701 c-3 -5 2 -17 11 -25 22 -22 31 -20 11 2 -10 10 -14 22
-10 25 3 4 4 7 0 7 -3 0 -8 -4 -12 -9z"/>
<path d="M1855 2640 c3 -5 8 -10 11 -10 2 0 4 5 4 10 0 6 -5 10 -11 10 -5 0
-7 -4 -4 -10z"/>
<path d="M1610 2631 c0 -5 7 -11 14 -14 10 -4 13 -1 9 9 -6 15 -23 19 -23 5z"/>
<path d="M1975 2580 c-3 -5 -2 -10 4 -10 5 0 13 5 16 10 3 6 2 10 -4 10 -5 0
-13 -4 -16 -10z"/>
<path d="M1980 2523 c28 -23 70 -38 70 -26 -1 20 -18 32 -55 38 l-40 8 25 -20z"/>
<path d="M1710 2510 c0 -11 4 -20 9 -20 5 0 7 9 4 20 -3 11 -7 20 -9 20 -2 0
-4 -9 -4 -20z"/>
<path d="M1928 2463 c6 -2 12 -11 12 -18 0 -11 50 -28 59 -20 5 5 -62 45 -74
44 -5 0 -4 -3 3 -6z"/>
<path d="M1558 2433 c7 -3 16 -2 19 1 4 3 -2 6 -13 5 -11 0 -14 -3 -6 -6z"/>
<path d="M1510 2364 c0 -8 5 -12 10 -9 6 3 10 10 10 16 0 5 -4 9 -10 9 -5 0
-10 -7 -10 -16z"/>
<path d="M1810 2370 c0 -5 5 -10 10 -10 6 0 10 5 10 10 0 6 -4 10 -10 10 -5 0
-10 -4 -10 -10z"/>
<path d="M1330 1803 c0 -8 25 -32 48 -47 7 -4 10 -2 6 6 -6 16 -54 52 -54 41z"/>
<path d="M1392 1790 c0 -14 2 -19 5 -12 2 6 2 18 0 25 -3 6 -5 1 -5 -13z"/>
<path d="M1287 1539 c7 -7 15 -10 18 -7 3 3 -2 9 -12 12 -14 6 -15 5 -6 -5z"/>
<path d="M1038 1483 c7 -3 16 -2 19 1 4 3 -2 6 -13 5 -11 0 -14 -3 -6 -6z"/>
</g>
</svg>
