<?xml version="1.0" standalone="no"?>
<!DOCTYPE svg PUBLIC "-//W3C//DTD SVG 20010904//EN"
 "http://www.w3.org/TR/2001/REC-SVG-20010904/DTD/svg10.dtd">
<svg version="1.0" xmlns="http://www.w3.org/2000/svg"
 width="900.000000pt" height="843.000000pt" viewBox="0 0 900.000000 843.000000"
 preserveAspectRatio="xMidYMid meet">

<g transform="translate(0.000000,843.000000) scale(0.100000,-0.100000)"
fill="#000000" stroke="none">
<path d="M4269 7683 c-53 -56 -73 -118 -60 -187 6 -30 20 -77 33 -103 22 -46
25 -48 60 -45 20 2 45 -1 56 -7 21 -11 65 -117 62 -147 -6 -58 56 -105 158
-119 47 -6 56 -4 73 14 11 12 15 21 10 21 -6 0 -17 13 -26 30 -14 28 -14 35 7
104 20 65 27 77 56 90 18 9 37 14 42 11 18 -11 77 54 88 97 22 88 22 93 -7
154 -36 76 -91 126 -134 122 -18 -2 -32 -9 -32 -15 0 -12 -4 -14 -22 -12 -5 1
-61 0 -125 -1 -93 -1 -122 1 -140 14 -35 25 -61 19 -99 -21z m391 -90 c11 -17
11 -17 6 0 -3 9 -1 17 4 17 6 0 10 -4 10 -9 0 -5 3 -17 7 -27 5 -13 3 -15 -7
-9 -10 6 -12 1 -6 -25 l6 -33 -25 29 c-25 29 -34 74 -15 74 5 0 14 -8 20 -17z
m-240 -15 c-1 -15 -24 -48 -34 -48 -11 0 -7 35 6 48 16 16 28 15 28 0z m110
-48 c0 -5 -7 -10 -15 -10 -8 0 -15 5 -15 10 0 6 7 10 15 10 8 0 15 -4 15 -10z
m87 -49 c17 -11 17 -11 -1 -26 -11 -8 -28 -15 -38 -15 -10 0 -18 -2 -18 -4 0
-2 -3 -11 -6 -20 -5 -13 2 -15 40 -12 66 5 68 -15 9 -120 -49 -89 -68 -107
-84 -83 -5 8 -9 10 -9 4 0 -17 -57 71 -86 134 -17 37 -12 66 11 57 8 -3 17 -1
20 4 3 5 12 7 20 3 28 -10 16 26 -13 41 -15 8 -28 23 -29 35 -2 19 3 20 82 17
46 -2 91 -9 102 -15z"/>
<path d="M4510 7315 c0 -8 4 -15 9 -15 5 0 11 7 15 15 3 9 0 15 -9 15 -8 0
-15 -7 -15 -15z"/>
<path d="M4498 7273 c12 -2 32 -2 45 0 12 2 2 4 -23 4 -25 0 -35 -2 -22 -4z"/>
<path d="M4510 7240 c0 -5 5 -10 11 -10 5 0 7 5 4 10 -3 6 -8 10 -11 10 -2 0
-4 -4 -4 -10z"/>
<path d="M5536 7111 c-31 -27 -87 -61 -124 -77 -37 -15 -78 -36 -91 -46 -28
-22 -95 -117 -88 -125 3 -3 12 8 20 24 21 39 78 91 84 76 3 -7 9 -13 15 -13 6
0 21 -11 34 -25 13 -14 19 -25 14 -25 -6 0 -10 -7 -10 -15 0 -8 -9 -15 -20
-15 -11 0 -20 -6 -20 -13 0 -7 -9 -18 -20 -25 -11 -7 -20 -8 -20 -2 0 5 -7 7
-15 3 -17 -6 -15 -28 3 -28 5 0 14 -3 18 -7 4 -5 0 -8 -9 -8 -11 0 -17 -8 -17
-21 0 -14 -5 -19 -17 -17 -14 3 -18 13 -17 45 1 31 -2 40 -12 36 -8 -3 -14 -1
-14 4 0 5 -12 8 -28 5 -24 -3 -33 5 -76 64 -113 153 -214 234 -290 234 -43 0
-53 -9 -61 -52 -6 -29 -3 -43 14 -67 12 -16 21 -34 21 -41 0 -7 5 -6 15 4 8 8
15 23 15 33 0 39 15 48 54 29 42 -20 53 -34 32 -42 -9 -3 -16 -16 -16 -27 0
-16 3 -18 12 -9 18 18 41 15 34 -4 -5 -13 -2 -15 15 -11 23 6 79 -17 79 -32 0
-5 8 -7 19 -4 14 3 39 -20 103 -94 47 -54 104 -115 127 -136 48 -43 53 -42
120 22 42 41 79 56 160 68 l45 6 -22 -35 c-19 -30 -20 -37 -7 -42 8 -3 15 -10
15 -15 0 -6 -7 -8 -15 -5 -9 4 -18 -2 -24 -17 -5 -13 -10 -18 -10 -11 -2 27
-30 11 -34 -20 -4 -30 -5 -31 -12 -10 -10 29 -25 28 -25 -2 0 -36 23 -49 78
-43 26 3 57 9 70 12 16 6 22 3 22 -8 0 -10 14 -17 43 -22 23 -3 62 -13 87 -20
25 -8 66 -17 92 -20 53 -7 65 -17 44 -35 -12 -9 -34 -7 -101 11 -70 17 -104
21 -169 16 -102 -7 -143 -21 -126 -42 16 -19 30 -19 30 0 0 39 152 31 266 -15
75 -30 79 -30 153 -20 81 12 101 22 120 57 22 42 -12 110 -39 78 -20 -24 -88
-18 -157 14 -68 33 -83 52 -83 108 0 36 4 41 41 61 50 27 70 27 140 4 30 -11
60 -21 68 -23 28 -8 21 28 -14 74 -28 36 -54 55 -122 87 -95 45 -105 45 -180
-6 -27 -18 -40 -20 -69 -14 -51 12 -74 36 -74 80 0 75 57 93 171 55 37 -13 70
-21 73 -17 14 13 3 34 -36 72 -57 56 -127 90 -181 90 -37 0 -51 -7 -101 -49z
m-696 5 c0 -2 -9 -6 -20 -9 -11 -3 -18 -1 -14 4 5 9 34 13 34 5z m781 -6 c28
0 25 -48 -6 -84 -14 -16 -25 -33 -25 -37 0 -5 -10 -8 -22 -6 -15 1 -23 -5 -27
-19 -5 -17 -10 -20 -27 -13 -41 15 -39 32 7 61 14 9 33 35 42 59 l17 42 -25
-23 c-14 -13 -25 -19 -25 -13 0 15 43 43 58 37 8 -2 22 -4 33 -4z m214 -230
c29 0 43 -12 50 -42 6 -22 1 -30 -31 -52 -20 -14 -41 -23 -46 -20 -4 3 -8 0
-8 -6 0 -7 -8 -9 -20 -5 -13 4 -22 1 -26 -9 -3 -9 -10 -14 -14 -11 -5 3 -16
-2 -25 -12 -14 -14 -18 -14 -26 -2 -7 10 1 23 27 46 21 18 33 37 29 43 -4 7 6
25 21 42 l29 30 -30 -6 c-24 -5 -26 -4 -10 3 11 6 29 8 40 6 11 -3 29 -5 40
-5z"/>
<path d="M4082 7112 c-62 -31 -91 -60 -168 -167 -35 -49 -76 -103 -89 -118
-27 -31 -55 -30 -55 0 0 42 -47 96 -116 133 -42 23 -77 51 -91 71 -63 97 -101
119 -148 85 -11 -8 -24 -12 -30 -10 -33 13 -143 -63 -171 -118 -29 -56 5 -74
79 -43 20 8 63 15 96 15 67 0 74 8 57 72 -6 21 -7 40 -4 44 14 13 46 -8 67
-46 12 -22 29 -44 38 -48 19 -11 9 -52 -13 -52 -8 0 -17 -7 -20 -15 -6 -14 -8
-13 -19 2 -11 15 -14 14 -28 -14 -20 -37 -72 -83 -96 -83 -9 0 -26 -7 -37 -15
-25 -19 -59 -19 -79 1 -8 9 -22 13 -30 10 -8 -3 -15 -1 -15 3 0 5 -30 16 -67
25 -62 14 -68 14 -102 -4 -74 -40 -131 -116 -131 -176 0 -21 34 -17 76 8 32
19 40 20 72 8 39 -14 122 -22 122 -12 -1 14 -27 41 -34 35 -4 -4 -4 0 -1 9 7
18 -28 48 -57 48 -22 0 -23 13 -2 31 14 11 21 10 48 -5 17 -10 63 -22 103 -27
69 -8 113 -24 113 -42 0 -5 -16 -7 -36 -5 -29 3 -38 1 -42 -14 -4 -16 -7 -16
-32 -3 l-29 15 6 -35 c3 -18 3 -45 -1 -58 -5 -23 -10 -24 -63 -22 -43 2 -52 1
-35 -6 21 -8 28 -31 9 -30 -28 1 -79 -29 -99 -59 -23 -33 -27 -35 -81 -34 -31
1 -57 -2 -57 -5 0 -20 39 -56 84 -77 62 -29 119 -30 166 -5 112 61 164 81 216
81 40 0 55 -4 63 -17 9 -17 12 -16 33 5 21 21 21 22 3 22 -11 0 -33 7 -48 15
-25 13 -35 12 -90 -1 -34 -9 -73 -23 -87 -32 -31 -20 -139 -21 -151 -1 -15 24
19 46 81 52 33 4 79 17 103 29 31 16 58 21 101 20 33 -1 65 3 72 9 6 5 26 8
44 7 26 -2 34 2 41 20 5 13 5 22 -1 22 -6 0 -10 -7 -10 -15 0 -8 -4 -15 -9
-15 -5 0 -9 14 -9 30 1 34 -9 50 -21 32 -5 -9 -11 -5 -19 13 -13 29 -32 33
-33 8 0 -14 -2 -13 -9 5 -5 12 -16 25 -25 28 -36 14 -12 26 43 22 64 -4 136
-35 181 -77 16 -15 38 -26 48 -25 10 1 37 24 60 51 41 45 44 47 72 36 33 -12
46 -6 30 13 -15 19 -3 32 24 27 16 -3 26 1 30 11 5 12 -1 18 -23 23 -17 3 -30
10 -30 15 0 18 73 84 77 71 7 -21 50 -15 56 7 3 11 2 20 -3 20 -21 0 24 114
54 139 13 11 16 11 16 -3 0 -19 18 -20 57 -5 15 6 45 15 66 19 36 7 37 6 37
-21 0 -31 19 -51 21 -22 1 20 16 -30 18 -61 1 -15 -2 -17 -10 -9 -9 9 -25 -8
-64 -65 -56 -83 -115 -190 -115 -209 0 -6 -10 -28 -21 -48 -15 -26 -25 -33
-32 -26 -18 18 -82 13 -100 -7 -10 -10 -17 -23 -17 -29 0 -6 -6 -16 -14 -22
-10 -8 -16 -8 -25 3 -22 27 -61 29 -81 4 -17 -22 -17 -23 1 -47 10 -13 19 -29
19 -36 0 -8 9 -10 25 -7 18 3 25 0 25 -12 0 -19 11 -21 29 -3 11 10 14 9 18
-1 3 -6 10 -9 16 -5 7 3 5 -2 -3 -13 -46 -59 -60 -114 -24 -100 8 3 14 1 14
-5 0 -13 -58 -128 -83 -163 -20 -28 -21 -28 -28 -7 -6 14 -17 21 -34 21 -15 0
-24 4 -20 10 3 6 1 10 -4 10 -6 0 -11 11 -11 25 0 14 -4 25 -10 25 -5 0 -10
-3 -10 -7 0 -5 -14 -23 -31 -41 -17 -18 -27 -37 -23 -44 5 -8 2 -9 -10 -5 -10
4 -19 7 -22 7 -2 0 -1 13 2 29 5 25 2 30 -27 40 -29 10 -35 9 -52 -10 l-21
-22 23 -18 c13 -11 32 -19 42 -19 22 0 23 -8 4 -33 -13 -18 -14 -18 -17 4 -4
33 -62 47 -89 23 -11 -10 -17 -24 -14 -32 4 -10 -2 -12 -24 -7 -17 3 -32 2
-36 -5 -3 -5 -11 -8 -16 -4 -6 4 -6 11 2 20 9 11 8 14 -4 14 -30 0 -28 20 3
26 48 10 44 21 -6 16 -51 -5 -97 11 -122 42 -9 12 -23 25 -29 30 -18 10 -123
-54 -123 -76 0 -13 -8 -18 -28 -18 -16 0 -37 -9 -47 -20 -22 -24 -9 -27 16 -4
21 19 46 10 29 -11 -12 -15 48 -59 98 -70 18 -3 32 -10 32 -13 0 -4 24 -8 53
-9 28 -2 57 -4 62 -5 6 -1 22 2 36 5 21 5 33 0 58 -23 23 -23 40 -30 70 -30
23 0 41 5 44 13 7 21 57 -12 57 -38 0 -31 33 -58 61 -50 16 6 20 4 14 -6 -16
-27 -116 -159 -121 -159 -3 0 -4 10 -2 22 2 18 -3 24 -27 28 -19 3 -26 8 -18
13 7 4 23 5 36 2 30 -8 67 27 67 62 0 20 -5 23 -35 23 -28 0 -38 -5 -46 -24
-10 -22 -13 -23 -37 -10 -24 12 -29 11 -49 -8 -13 -12 -21 -23 -18 -26 2 -2
-2 -11 -10 -19 -21 -20 -19 -34 5 -40 11 -3 20 -12 20 -20 0 -11 -5 -13 -17
-8 -10 4 -26 10 -35 12 -14 4 -16 12 -12 32 4 14 11 32 17 39 11 15 3 16 -21
2 -9 -5 -30 -15 -46 -20 -26 -10 -28 -13 -22 -48 3 -20 12 -41 19 -47 9 -7 11
-17 6 -30 -6 -17 -8 -17 -8 -2 -1 9 -5 17 -10 17 -5 0 -13 9 -16 20 -4 11 -11
17 -17 14 -8 -5 -9 -1 -5 10 4 11 1 19 -11 22 -9 3 -25 10 -35 15 -21 11 -37
4 -37 -17 0 -9 -7 -23 -16 -32 -15 -14 -14 -16 7 -25 13 -4 34 -6 47 -4 25 5
29 -10 9 -37 -12 -16 -14 -16 -26 -2 -19 23 -40 20 -67 -10 -26 -27 -29 -39
-14 -49 6 -4 8 -10 5 -15 -3 -5 -1 -11 5 -15 5 -3 10 1 10 9 0 11 10 17 33 18
113 6 122 2 92 -38 -13 -16 -14 -16 -9 -1 5 14 0 17 -26 17 -27 0 -30 -3 -25
-20 7 -23 -4 -26 -24 -7 -14 12 -14 13 26 -57 7 -11 13 -15 13 -9 0 12 50 43
69 43 7 0 6 -10 0 -30 -8 -23 -18 -30 -37 -31 -38 -2 -57 2 -60 11 -2 5 -14
20 -28 35 -13 14 -24 30 -24 34 0 4 -12 7 -27 6 -42 -3 -43 -4 -43 -23 0 -10
-5 -23 -12 -30 -10 -10 -8 -19 6 -43 10 -17 16 -32 13 -35 -9 -9 -63 18 -82
42 -11 13 -40 30 -65 37 -41 12 -48 11 -71 -6 -26 -19 -26 -19 -52 7 -28 28
-56 33 -74 15 -8 -8 -34 -1 -95 24 -45 20 -107 45 -135 56 -159 62 -248 121
-183 121 20 0 60 -32 60 -48 0 -5 11 -14 24 -20 22 -10 29 -6 73 34 26 25 72
64 101 86 28 22 52 47 52 54 0 8 5 14 10 14 6 0 10 5 10 10 0 6 -21 10 -47 10
-64 0 -200 -72 -224 -118 l-16 -31 -20 20 -20 20 -31 -26 c-18 -15 -33 -21
-37 -15 -10 17 -36 11 -33 -7 2 -13 -25 -29 -112 -69 -63 -28 -120 -56 -125
-60 -6 -5 -17 -10 -25 -12 -8 -1 -24 -7 -35 -11 -11 -5 -28 -12 -38 -15 -9 -3
-22 -16 -27 -28 -5 -13 -9 -17 -9 -10 -1 19 -29 15 -142 -24 -57 -19 -124 -38
-149 -41 -25 -3 -56 -11 -70 -18 -14 -7 -31 -10 -39 -7 -8 3 -12 -1 -9 -9 7
-20 48 -24 48 -5 0 9 8 16 20 16 26 0 26 -15 -1 -34 -16 -11 -28 -12 -49 -4
-22 7 -50 4 -125 -16 -53 -14 -101 -25 -108 -23 -7 1 -11 -5 -9 -13 2 -8 0
-12 -3 -8 -25 25 -166 -109 -237 -223 -52 -83 -74 -130 -44 -94 16 19 16 19 5
-7 -7 -16 -19 -28 -28 -28 -13 0 -13 -2 -2 -9 11 -7 10 -10 -4 -18 -17 -10
-48 -84 -81 -195 -10 -32 -21 -58 -26 -58 -13 0 -9 -73 6 -92 17 -23 21 -23
46 4 18 20 22 20 35 7 9 -8 24 -31 34 -50 37 -70 135 -104 174 -61 21 23 22
46 2 38 -8 -3 -15 0 -16 7 -8 97 -7 207 1 207 5 0 10 -9 10 -20 0 -11 9 -25
20 -32 11 -7 20 -18 20 -25 0 -7 4 -13 9 -13 14 0 20 40 11 66 -5 13 -13 61
-16 107 -4 45 -11 88 -17 95 -9 12 4 38 29 54 6 4 11 21 12 38 1 26 -3 31 -21
29 -12 -1 -33 3 -47 9 -14 6 -19 11 -11 11 7 1 11 7 8 15 -3 8 1 17 8 20 8 3
12 11 9 19 -2 7 3 20 13 29 42 37 203 42 258 8 77 -48 149 -229 164 -415 5
-55 7 -103 4 -107 -7 -12 15 -9 22 3 4 6 13 8 21 5 9 -3 14 0 13 7 -3 17 12
51 28 60 7 4 13 14 13 21 0 8 9 16 20 19 25 6 25 6 1 -35 -15 -25 -19 -47 -16
-93 4 -74 6 -84 27 -114 14 -19 20 -22 31 -13 23 19 76 -4 83 -36 15 -69 48
-113 73 -98 15 10 21 -22 9 -56 -17 -53 -29 -56 -22 -6 l6 45 -35 7 c-37 7
-47 23 -47 82 0 23 -7 36 -25 48 -29 19 -39 20 -32 3 3 -7 -1 -21 -9 -32 -8
-10 -15 -15 -15 -9 -1 5 -2 16 -3 24 0 8 -15 19 -33 24 -26 8 -32 16 -39 50
-4 23 -7 47 -7 54 2 38 -37 -8 -81 -96 l-27 -53 35 -14 c31 -13 34 -17 27 -42
-5 -16 -5 -37 -1 -48 4 -11 6 -24 4 -30 -2 -5 3 -19 11 -29 13 -16 17 -17 31
-5 16 13 17 10 10 -41 -4 -30 -11 -57 -15 -60 -5 -3 -11 -14 -14 -25 -3 -11
-3 6 0 38 5 57 5 58 -26 70 -29 11 -31 15 -31 62 0 68 -8 92 -33 99 -32 8 -54
-10 -69 -56 -9 -26 -22 -44 -33 -47 -12 -2 -16 2 -12 10 22 55 22 54 -14 27
-19 -14 -68 -43 -109 -64 -63 -32 -85 -38 -135 -38 -115 0 -213 69 -283 196
-20 38 -40 68 -44 68 -5 0 -8 -90 -8 -200 0 -227 5 -246 67 -273 91 -39 363
-94 555 -112 143 -14 393 48 558 138 136 73 236 152 426 339 85 83 111 114
107 129 -3 10 0 19 6 19 6 0 11 -5 11 -12 0 -23 43 30 44 54 0 13 7 23 16 23
8 1 14 7 12 15 -2 7 3 17 10 21 19 13 30 11 22 -3 -4 -7 2 -5 14 6 11 10 27
37 35 60 l15 43 -39 24 c-22 13 -39 31 -39 41 0 9 -4 18 -10 20 -5 2 -7 14 -3
27 6 23 7 23 20 6 16 -23 16 -18 2 24 -10 29 -39 44 -39 20 0 -5 -4 -8 -9 -5
-10 6 -7 -86 3 -103 4 -5 2 -12 -2 -15 -5 -3 -23 10 -41 28 -25 25 -38 32 -60
28 -22 -3 -32 1 -40 17 -16 29 -26 26 -51 -13 l-21 -35 -61 42 c-33 23 -70 49
-82 57 -46 32 -111 106 -113 129 -1 13 -13 36 -28 50 -14 15 -25 37 -25 49 0
36 -28 37 -96 4 -35 -17 -65 -28 -68 -23 -3 4 6 14 19 21 17 9 25 22 25 40 0
35 -21 53 -53 45 -28 -7 -67 1 -67 15 0 4 20 18 45 30 51 25 70 51 59 83 -5
12 -8 24 -9 27 0 3 -3 10 -7 16 -9 14 0 24 22 24 13 0 16 -7 12 -30 -5 -35 14
-40 62 -15 38 20 46 19 46 -5 0 -12 -7 -20 -17 -20 -14 0 -14 -3 -5 -12 9 -9
15 -10 20 -2 11 17 40 24 45 10 3 -8 25 -11 65 -9 48 2 61 -1 64 -13 2 -13 7
-12 30 6 19 14 35 19 49 15 15 -5 19 -4 15 4 -9 15 17 14 31 0 9 -9 20 -5 43
15 17 14 41 26 53 26 l22 0 -23 -18 -23 -18 25 -21 25 -22 26 31 c14 17 24 36
21 42 -16 41 -17 46 -7 46 7 0 14 -7 18 -16 5 -13 11 -10 37 13 56 52 62 55
76 38 11 -13 10 -14 -2 -10 -8 3 -22 -3 -33 -14 -14 -17 -15 -23 -5 -36 18
-22 47 -19 53 6 8 29 51 22 55 -8 3 -17 -2 -23 -15 -23 -22 0 -26 -38 -6 -58
11 -12 17 -10 32 10 13 16 16 25 8 30 -12 7 -13 7 60 32 47 17 70 4 29 -16
-14 -6 -26 -19 -26 -28 0 -9 -5 -21 -11 -27 -9 -9 -8 -18 5 -37 9 -15 21 -26
27 -26 8 0 7 -5 -1 -15 -7 -9 -10 -18 -7 -22 8 -7 -11 -33 -24 -33 -4 0 -3 14
3 31 9 27 8 34 -14 55 l-24 25 -37 -40 c-41 -45 -46 -73 -18 -98 19 -16 19
-16 -1 -43 -11 -15 -22 -46 -25 -68 -5 -36 -3 -42 13 -42 16 0 16 -2 -4 -20
-12 -12 -22 -24 -23 -28 0 -4 -2 -16 -4 -26 -4 -23 19 -72 37 -79 10 -4 10 -6
1 -6 -7 -1 -17 -9 -22 -19 -8 -14 -6 -19 6 -19 21 0 69 46 78 75 7 24 21 29
28 10 3 -7 12 4 21 25 19 44 25 47 21 10 -4 -36 4 -56 19 -45 6 5 19 12 29 15
16 6 16 4 -3 -23 -38 -53 3 -21 60 47 30 36 62 73 71 82 8 9 28 34 44 56 l29
40 -33 -30 -33 -30 17 33 c18 37 14 62 -10 62 -12 0 -15 6 -9 22 6 21 5 21
-10 9 -15 -13 -16 -10 -10 30 7 48 14 61 21 41 4 -10 8 -10 20 0 12 10 15 9
12 -7 -1 -11 1 -27 4 -35 3 -8 5 -26 4 -40 -2 -21 2 -24 22 -22 15 3 21 0 16
-8 -9 -14 28 6 63 35 22 18 57 64 87 115 6 9 18 24 28 34 18 19 23 46 7 46 -5
0 -16 -13 -25 -30 -16 -30 -29 -38 -39 -21 -3 5 5 16 18 24 13 9 33 35 45 59
25 49 117 156 126 146 4 -3 -16 -34 -44 -69 -28 -34 -48 -65 -46 -68 3 -3 12
4 19 15 8 11 58 74 111 140 201 249 331 425 354 482 7 17 19 36 26 42 20 16
63 -5 71 -35 l6 -25 18 23 c9 12 29 45 43 72 13 28 34 58 46 69 25 23 27 18
35 -74 3 -36 16 -96 28 -135 l23 -70 56 -3 c41 -2 59 1 69 13 11 13 9 15 -11
16 -21 0 -22 1 -5 8 18 7 18 8 2 14 -10 4 -31 7 -47 7 -40 0 -52 24 -84 170
-15 69 -36 141 -45 160 -10 19 -21 60 -24 91 -6 46 -3 63 12 90 10 19 30 63
45 99 38 94 123 260 151 293 19 23 27 27 42 19 34 -17 94 -42 103 -42 5 0 16
19 25 41 15 37 15 44 2 64 -9 13 -29 26 -45 30 -38 8 -44 25 -20 64 25 41 24
50 -10 87 -39 43 -95 49 -159 16z m-689 -41 c-5 -20 -30 -31 -70 -31 -13 0
-41 -16 -63 -36 -22 -20 -40 -32 -40 -27 0 16 68 75 107 94 52 24 72 24 66 0z
m323 -216 c32 -32 29 -70 -4 -69 -22 0 -92 66 -92 86 0 5 16 8 35 8 25 0 44
-8 61 -25z m-681 -133 c-8 -8 -25 10 -19 20 4 6 9 5 15 -3 4 -7 6 -15 4 -17z
m85 3 c7 -8 8 -15 2 -15 -5 0 -15 7 -22 15 -7 8 -8 15 -2 15 5 0 15 -7 22 -15z
m781 -348 c-8 -8 -11 -7 -11 4 0 20 13 34 18 19 3 -7 -1 -17 -7 -23z m-81
-227 c-6 -11 -13 -20 -16 -20 -2 0 0 9 6 20 6 11 13 20 16 20 2 0 0 -9 -6 -20z
m-120 -168 c0 -9 -57 -92 -63 -92 -10 0 8 62 19 67 8 3 14 11 14 19 0 8 7 14
15 14 8 0 15 -4 15 -8z m-395 -292 c-3 -5 -12 -10 -18 -10 -7 0 -6 4 3 10 19
12 23 12 15 0z m129 -77 l-18 -28 -6 25 c-5 20 -2 26 14 31 30 8 31 3 10 -28z
m-1129 -24 c5 -5 14 -9 21 -9 6 0 29 -7 50 -16 22 -9 40 -15 40 -13 1 2 10 -3
20 -12 11 -9 29 -20 42 -23 38 -12 25 -31 -24 -33 -25 -1 -51 -6 -57 -11 -20
-15 -110 -8 -151 13 -56 28 -64 46 -43 91 17 34 19 36 55 29 20 -3 41 -11 47
-16z m1005 -9 c0 -3 -5 -12 -10 -20 -6 -10 -10 -11 -10 -2 0 6 -6 12 -14 12
-8 0 -17 4 -21 10 -3 5 7 8 25 7 16 -1 30 -4 30 -7z m-242 -199 c-7 -11 -15
-18 -20 -15 -11 7 3 34 18 34 12 0 12 -4 2 -19z m-141 -102 c10 -25 9 -31 -3
-36 -8 -3 -14 -10 -14 -15 0 -5 -8 -22 -19 -36 -10 -15 -21 -39 -25 -54 -3
-16 -11 -28 -16 -28 -17 0 -11 -18 8 -24 33 -11 43 -41 27 -80 -20 -47 -29
-46 -21 4 6 40 -10 70 -44 82 -10 3 -7 16 9 53 13 28 24 58 26 69 3 10 11 29
20 42 8 13 11 24 5 24 -5 0 -10 4 -10 9 0 8 11 13 40 20 3 0 11 -13 17 -30z
m210 -30 c2 -8 -18 -36 -43 -64 -25 -27 -41 -40 -35 -28 6 12 15 25 21 28 5 3
14 24 20 46 11 39 32 49 37 18z m-2127 -153 c0 -8 -4 -17 -9 -21 -12 -7 -24
12 -16 25 9 15 25 12 25 -4z m646 -8 c6 -4 18 -6 27 -2 11 4 21 -4 32 -26 16
-31 16 -33 -4 -47 -28 -19 -27 -26 10 -62 34 -35 47 -37 92 -17 66 29 118 36
144 19 15 -10 23 -23 20 -34 -3 -10 7 -28 24 -45 15 -15 26 -32 22 -37 -3 -6
-1 -7 5 -3 6 3 13 2 17 -4 3 -5 14 -10 24 -10 10 0 29 -8 42 -19 13 -10 35
-22 49 -26 13 -4 39 -23 57 -41 26 -28 38 -33 61 -28 36 7 44 -8 31 -65 -7
-32 -6 -48 7 -72 18 -35 12 -51 -8 -20 -17 27 -29 26 -57 -3 -24 -26 -30 -57
-16 -91 7 -16 6 -18 -6 -7 -22 20 -27 14 -34 -38 -4 -27 -10 -52 -14 -54 -11
-7 4 107 17 131 7 12 12 40 12 63 0 32 -4 42 -21 48 -11 5 -20 12 -19 17 1 5
-3 11 -9 13 -6 2 -11 -3 -11 -12 0 -21 -18 -30 -35 -16 -17 14 -35 5 -35 -16
0 -8 4 -13 9 -9 5 3 12 1 16 -5 3 -5 1 -10 -4 -10 -20 0 -11 -45 14 -72 14
-15 21 -30 15 -33 -6 -3 -10 -15 -10 -26 0 -25 -12 -24 -28 1 -7 11 -9 19 -5
18 15 -5 14 13 -4 42 -20 34 -30 38 -36 13 -3 -10 -5 -1 -6 19 -1 27 -7 42
-24 52 -25 17 -67 11 -67 -9 0 -7 -7 -16 -16 -19 -13 -5 -15 -1 -12 25 4 25
-1 35 -27 55 -18 13 -36 24 -41 24 -19 0 -41 38 -39 68 1 23 -5 36 -25 51 -34
24 -70 18 -71 -13 0 -11 -3 -15 -6 -8 -4 10 -8 10 -19 1 -8 -6 -14 -15 -14
-20 0 -18 93 -69 113 -63 16 5 18 3 11 -18 -6 -18 -9 -91 -5 -130 1 -5 8 -8
16 -8 25 0 17 -17 -10 -22 -17 -4 -25 -1 -25 8 0 8 -3 14 -7 14 -8 0 -10 9
-16 88 -3 39 -8 46 -54 78 l-51 36 16 30 c14 29 14 32 -3 45 -27 19 -40 16
-53 -9 -10 -21 -11 -22 -11 -3 -1 11 6 51 16 88 13 58 14 79 5 132 -17 91 -16
116 6 108 9 -3 22 -10 28 -15z m1136 -55 c-3 -16 -7 -22 -10 -15 -4 13 4 42
11 42 2 0 2 -12 -1 -27z m112 -80 c-22 -29 -30 -34 -32 -21 -3 16 48 72 57 62
2 -2 -9 -20 -25 -41z m-161 -18 c-3 -9 -8 -14 -10 -11 -3 3 -2 9 2 15 9 16 15
13 8 -4z m-1146 -207 c-3 -8 -6 -5 -6 6 -1 11 2 17 5 13 3 -3 4 -12 1 -19z
m749 -252 c-1 -24 -4 -42 -8 -40 -11 7 -10 84 0 84 4 0 8 -20 8 -44z m-412 4
c16 -33 5 -40 -26 -16 -22 16 -23 27 -3 20 11 -5 13 -2 9 10 -11 28 4 17 20
-14z m108 -109 c-5 -3 -14 -15 -21 -26 -18 -32 -10 63 9 97 l15 28 3 -47 c2
-25 -1 -49 -6 -52z m-167 -21 c-3 -5 -3 -10 2 -10 9 0 43 -57 43 -72 0 -6 -18
9 -40 33 -28 30 -36 46 -27 51 17 11 29 10 22 -2z m429 -25 c-8 -19 -44 -40
-44 -26 0 12 28 41 40 41 5 0 7 -7 4 -15z m-638 -72 c14 -13 21 -28 18 -38 -3
-8 1 -26 10 -40 9 -13 16 -31 16 -39 0 -8 8 -17 18 -20 10 -3 6 -4 -8 -3 -21
2 -28 11 -44 61 -13 42 -26 62 -45 74 -26 14 -27 17 -12 34 11 13 17 15 20 6
2 -7 15 -23 27 -35z m544 -9 c-8 -8 -22 -20 -32 -25 -17 -9 -18 -8 -9 9 10 19
25 29 45 31 5 1 3 -6 -4 -15z m-846 -80 c5 -12 16 -15 40 -12 31 3 33 2 25
-14 -5 -10 -7 -42 -4 -70 l5 -53 -19 40 c-11 22 -22 48 -25 58 -2 9 -13 17
-24 17 -11 0 -25 7 -33 16 -10 13 -10 17 2 25 20 12 26 11 33 -7z m546 -35
c15 -28 5 -23 -15 7 -9 15 -12 23 -6 20 6 -4 16 -16 21 -27z m-630 -84 c0 -12
-37 -64 -43 -59 -11 12 17 64 34 64 5 0 9 -2 9 -5z m-140 -95 c8 -5 12 -11 9
-14 -8 -8 -79 6 -79 15 0 12 51 11 70 -1z m107 -26 c-3 -3 -12 -4 -19 -1 -8 3
-5 6 6 6 11 1 17 -2 13 -5z"/>
<path d="M1743 4864 c-18 -19 -28 -36 -22 -40 10 -6 29 12 50 49 18 31 6 27
-28 -9z"/>
<path d="M1650 4849 c0 -5 5 -7 10 -4 6 3 10 8 10 11 0 2 -4 4 -10 4 -5 0 -10
-5 -10 -11z"/>
<path d="M1802 4818 c-8 -8 -4 -16 13 -29 35 -29 51 -24 59 18 3 14 -4 18 -29
20 -18 1 -37 -3 -43 -9z m38 -18 c0 -5 -7 -7 -15 -4 -8 4 -15 8 -15 10 0 2 7
4 15 4 8 0 15 -4 15 -10z"/>
<path d="M2021 4800 c1 -8 -1 -23 -6 -33 -11 -26 1 -33 15 -8 8 15 8 26 0 39
-8 13 -10 13 -9 2z"/>
<path d="M1980 4760 c0 -5 5 -10 11 -10 5 0 7 5 4 10 -3 6 -8 10 -11 10 -2 0
-4 -4 -4 -10z"/>
<path d="M1905 4739 c-16 -3 -26 -7 -21 -8 5 0 1 -11 -10 -22 -19 -22 -19 -22
6 -15 23 7 24 6 7 -8 -17 -13 -16 -16 17 -41 38 -29 52 -27 67 12 6 17 5 32
-6 53 -19 36 -23 38 -60 29z"/>
<path d="M2046 4688 c5 -7 2 -9 -9 -5 -18 7 -29 -15 -20 -40 4 -10 2 -14 -4
-10 -7 5 -9 0 -6 -13 8 -29 38 -43 53 -25 15 19 20 76 7 93 -12 15 -31 16 -21
0z"/>
<path d="M4765 6960 c-17 -6 -20 -16 -18 -51 1 -24 5 -58 8 -74 6 -27 0 -39
-37 -83 -37 -45 -48 -52 -80 -52 -20 0 -40 5 -43 10 -10 15 -28 12 -22 -4 4
-9 -1 -17 -11 -19 -12 -3 -11 -5 6 -6 12 0 22 -6 22 -12 0 -7 -10 -9 -25 -5
-21 5 -25 3 -25 -16 0 -35 28 -119 46 -139 14 -16 14 -20 -1 -48 -21 -42 -56
-41 -124 7 l-55 37 36 3 c33 3 36 7 53 56 17 50 17 53 0 79 -12 20 -23 26 -36
22 -16 -5 -19 -1 -19 24 0 32 -8 39 -26 21 -17 -17 -52 1 -80 41 -15 21 -30
39 -35 39 -4 0 -15 3 -25 7 -14 5 -16 2 -10 -28 20 -102 22 -126 9 -138 -10
-9 -19 -8 -42 4 -20 10 -32 11 -36 5 -4 -6 -19 -9 -33 -8 -22 3 -28 -1 -30
-22 -5 -44 23 -93 65 -115 27 -15 37 -26 35 -40 -6 -44 -2 -119 7 -125 11 -6
-4 -89 -20 -104 -5 -6 -9 -39 -9 -73 0 -59 2 -67 35 -100 26 -27 33 -42 29
-58 -3 -13 2 -37 12 -56 10 -19 17 -37 16 -41 -1 -4 7 -10 17 -13 15 -4 19
-14 18 -41 -2 -29 -7 -36 -32 -43 -16 -5 -24 -10 -17 -10 7 -1 10 -5 7 -11 -3
-5 -30 -10 -59 -10 -40 0 -57 -5 -71 -20 -19 -21 -101 -50 -140 -50 -42 0 -75
41 -129 155 -29 62 -59 116 -66 120 -10 6 -12 3 -6 -11 4 -10 26 -73 48 -139
44 -133 54 -154 77 -172 35 -27 147 -4 191 38 19 19 142 43 175 35 23 -6 25
-11 25 -61 0 -30 5 -55 10 -55 14 0 13 -79 -1 -119 -11 -30 -9 -37 19 -76 29
-42 31 -49 35 -167 3 -102 1 -125 -12 -134 -13 -10 -13 -14 1 -37 9 -13 15
-35 12 -48 -2 -13 2 -9 9 10 11 28 15 31 20 17 4 -10 4 -28 1 -41 -4 -18 -1
-24 20 -29 14 -3 26 -12 26 -20 0 -24 -13 -26 -41 -5 -32 22 -32 22 -29 -36 3
-69 49 -97 90 -53 l20 22 35 -34 c39 -38 45 -54 15 -45 -11 3 -20 2 -20 -3 0
-6 -9 -8 -20 -5 -23 6 -25 -5 -8 -42 8 -18 8 -29 2 -33 -6 -4 -14 -16 -19 -27
-9 -22 -10 -20 -20 57 -6 46 -7 47 -37 43 -38 -5 -48 -14 -65 -62 -17 -51 -16
-76 6 -154 19 -67 18 -124 -2 -112 -6 4 -8 0 -4 -10 3 -9 2 -19 -4 -22 -5 -4
-7 -10 -4 -14 2 -5 5 -41 6 -80 1 -39 5 -74 10 -77 14 -9 10 -24 -6 -24 -12 0
-13 -4 -6 -18 7 -13 7 -22 0 -29 -6 -6 -11 -41 -11 -79 0 -38 -6 -83 -13 -101
-11 -27 -11 -34 1 -44 8 -6 14 -26 14 -44 0 -20 6 -35 15 -39 8 -3 15 -13 14
-23 0 -11 -3 -13 -6 -5 -9 23 -21 12 -25 -23 -2 -21 1 -40 8 -46 9 -7 10 -19
2 -42 -12 -38 -11 -103 2 -128 7 -12 5 -19 -5 -23 -20 -7 -19 -43 1 -63 12
-13 13 -17 2 -24 -10 -6 -10 -11 -1 -20 9 -9 7 -16 -8 -32 -23 -25 -23 -31 -5
-50 19 -19 23 -70 8 -99 -10 -18 -11 -38 -4 -75 5 -32 5 -57 -1 -68 -5 -10 -6
-34 -2 -54 4 -20 7 -52 8 -71 1 -19 6 -41 10 -47 6 -9 3 -11 -7 -7 -10 4 -16
1 -17 -7 -2 -26 3 -54 11 -63 11 -11 0 -187 -12 -202 -5 -7 -4 -23 2 -38 13
-34 13 -92 0 -115 -6 -13 -4 -33 8 -69 15 -41 16 -63 9 -123 -8 -70 -9 -95 -5
-171 0 -18 1 -44 0 -58 0 -14 -1 -88 0 -165 0 -77 -3 -148 -7 -157 -5 -13 -2
-18 11 -18 14 0 15 -3 6 -8 -19 -13 -15 -189 5 -221 14 -22 14 -25 -2 -33 -13
-8 -15 -19 -11 -56 4 -26 9 -89 11 -141 3 -52 10 -100 17 -108 9 -11 7 -12 -7
-7 -15 6 -17 3 -13 -14 4 -12 2 -22 -3 -22 -6 0 -1 -9 10 -21 13 -14 26 -19
39 -15 25 8 41 -15 34 -49 -5 -29 -27 -39 -42 -19 -20 23 -27 18 -69 -46 -23
-36 -41 -56 -44 -48 -3 7 -6 1 -6 -13 -1 -15 -3 -39 -6 -55 -5 -28 8 -64 20
-53 3 4 10 34 16 68 7 39 22 76 41 102 27 38 31 40 47 25 10 -9 25 -14 35 -10
25 9 44 -12 89 -100 40 -79 42 -80 45 -47 3 30 -42 184 -69 234 -5 10 -10 86
-9 170 0 84 -1 211 -2 282 -1 72 -1 141 0 155 7 197 15 310 24 333 8 20 7 35
-2 56 -6 16 -9 39 -5 50 14 46 22 184 13 219 -7 26 -6 47 3 74 9 30 10 47 0
78 -10 33 -9 46 4 77 9 22 14 51 11 68 -3 17 -2 45 3 62 6 21 6 46 -1 70 -7
27 -7 47 3 75 10 31 10 43 -1 63 -9 16 -10 38 -5 67 4 24 8 80 10 124 1 45 5
86 8 91 4 6 2 26 -3 45 -8 26 -7 44 4 69 8 20 11 41 6 54 -9 24 -6 207 4 223
3 6 2 29 -3 50 -7 33 -5 45 11 71 14 21 18 40 14 59 -3 15 -8 104 -10 199 -4
166 -3 172 21 214 16 29 20 46 13 53 -13 13 -13 102 1 128 9 16 7 28 -7 53
-16 29 -16 40 -6 85 7 28 12 78 12 109 0 43 5 65 20 84 21 27 26 42 11 32 -6
-3 -9 37 -8 99 2 83 5 108 20 123 9 11 14 22 11 26 -18 18 -22 86 -8 141 10
40 13 78 9 115 -4 35 -2 67 6 86 6 17 12 91 13 175 1 80 6 153 10 162 11 25
41 31 94 19 26 -5 81 -18 122 -27 106 -24 155 -23 181 2 17 18 21 39 28 150 9
133 24 189 49 179 7 -3 27 3 43 12 24 14 33 15 49 5 11 -7 20 -10 20 -7 0 3
-20 42 -44 87 -126 235 -156 304 -142 318 8 9 6 11 -11 8 -19 -3 -31 15 -92
137 -39 77 -95 183 -126 235 -30 52 -55 100 -55 108 0 7 -5 10 -10 7 -6 -4
-16 -2 -23 3 -7 5 -21 6 -32 2z m107 -159 c42 -50 176 -288 184 -329 3 -17 2
-45 -4 -62 -12 -34 -1 -79 30 -119 13 -18 15 -27 7 -32 -6 -4 -8 -12 -5 -18 4
-6 11 -9 16 -6 4 3 23 -24 41 -59 l33 -64 -22 -45 c-12 -24 -22 -54 -22 -65 0
-11 -7 -27 -15 -36 -8 -8 -15 -20 -15 -26 0 -6 -7 -13 -15 -16 -8 -3 -17 -14
-20 -25 -4 -10 -13 -19 -21 -19 -11 0 -13 -6 -9 -19 4 -15 0 -20 -16 -23 -12
-2 -24 -9 -27 -15 -5 -17 40 -17 56 -1 15 15 42 -6 42 -33 0 -46 -102 -65
-199 -35 -30 9 -68 16 -83 16 -17 0 -27 4 -23 10 3 6 -1 10 -11 10 -15 0 -15
2 0 25 16 24 16 25 -10 25 -21 0 -25 3 -18 18 5 9 9 45 10 80 1 38 9 73 18 87
9 13 16 35 16 48 0 32 -20 87 -31 87 -5 0 -9 18 -9 41 0 30 7 50 26 72 22 26
24 36 18 71 -4 23 -7 49 -6 59 0 9 -4 17 -10 17 -5 0 -8 7 -4 15 3 8 1 15 -5
15 -6 0 -9 6 -7 13 3 6 29 15 58 19 85 10 95 41 49 147 -19 44 -20 44 -34 24
-8 -12 -30 -26 -49 -33 -62 -20 -89 14 -41 52 38 30 57 73 49 112 -4 27 -2 36
13 45 27 15 28 15 65 -28z m-486 -399 c35 -28 44 -55 33 -95 -12 -46 -25 -54
-40 -25 -7 13 -25 38 -40 56 -34 38 -36 50 -11 68 23 18 33 17 58 -4z m-122
-26 c-6 -16 -8 -17 -16 -2 -11 19 0 42 13 29 6 -6 7 -18 3 -27z m476 10 c0 -7
-13 -30 -30 -51 l-30 -38 0 33 c0 35 23 70 47 70 7 0 13 -6 13 -14z m-179 -36
c10 -6 19 -16 19 -23 0 -7 11 -33 25 -59 29 -54 30 -66 12 -101 -38 -73 -91
-95 -140 -57 -20 16 -25 27 -23 62 2 43 63 187 79 188 5 0 17 -5 28 -10z m-51
-500 c0 -58 -3 -68 -15 -64 -23 9 -18 134 6 134 5 0 9 -31 9 -70z m60 -52 c0
-5 -9 -8 -20 -8 -18 0 -20 6 -19 68 l0 67 19 -60 c11 -33 20 -63 20 -67z m32
18 c-7 -12 -31 41 -31 69 0 13 7 7 19 -20 10 -21 16 -44 12 -49z m-52 -129
c14 0 34 3 45 8 18 8 19 7 6 -8 -7 -9 -11 -17 -7 -17 4 0 -2 -12 -11 -27 -10
-15 -13 -24 -6 -20 16 10 55 -29 51 -51 -4 -18 -9 -19 -44 -8 -18 5 -23 1 -29
-21 -6 -24 -1 -33 34 -64 22 -20 38 -39 34 -43 -10 -10 -23 -7 -20 5 1 6 -4
14 -12 17 -8 2 -11 0 -7 -6 3 -6 -3 -12 -16 -14 -20 -3 -23 -9 -24 -53 -1 -27
-2 -63 -3 -80 l-2 -30 -16 29 c-13 24 -13 35 -3 66 12 37 2 80 -18 80 -5 0 -6
30 -4 66 4 65 4 66 -17 55 -11 -7 -21 -16 -21 -21 0 -19 -21 -10 -29 12 -5 15
-2 27 11 40 17 17 17 20 2 49 -8 17 -11 28 -5 25 6 -4 11 0 11 10 0 14 6 15
38 9 20 -4 48 -8 62 -8z m38 -631 c24 -14 25 -15 6 -16 -21 0 -44 -30 -24 -30
6 0 10 -7 10 -15 0 -9 7 -18 15 -21 8 -4 15 -15 15 -26 0 -28 -34 -19 -38 10
-3 19 -6 21 -18 11 -9 -7 -14 -8 -14 -1 0 6 5 14 11 18 8 4 7 9 -2 15 -9 5
-17 0 -24 -17 l-10 -24 -12 25 c-6 14 -7 23 -2 19 22 -13 6 17 -16 32 -14 9
-25 21 -25 28 0 16 94 10 128 -8z m-75 -603 c-6 -16 -5 -17 12 -3 10 9 6 -2
-11 -26 l-29 -41 -3 29 c-4 38 3 58 22 58 10 0 13 -6 9 -17z m-43 -25 c0 -19
-2 -20 -10 -8 -13 19 -13 30 0 30 6 0 10 -10 10 -22z m-59 -33 c15 10 10 -1
-6 -15 -13 -11 -15 -8 -14 16 1 17 3 22 6 11 2 -9 9 -15 14 -12z m161 -135
c22 0 33 -19 20 -32 -8 -8 -18 -6 -36 6 -34 22 -43 20 -70 -9 l-23 -25 -11 24
c-9 20 -8 25 4 30 9 3 13 10 9 16 -3 5 0 18 7 29 11 19 13 18 47 -10 20 -16
43 -29 53 -29z m-92 -321 c0 -8 6 -7 17 2 15 13 16 12 10 -9 -4 -17 -2 -22 7
-19 14 6 41 -31 31 -41 -4 -4 -12 1 -19 11 -7 9 -18 17 -25 17 -6 0 -11 5 -11
11 0 8 -5 8 -15 -1 -11 -9 -15 -9 -15 -1 0 7 -4 10 -9 6 -12 -7 -24 12 -16 25
8 14 45 13 45 -1z m15 -149 c-3 -5 -1 -10 6 -10 8 0 5 -8 -7 -19 -17 -17 -20
-17 -31 -4 -9 12 -9 18 0 29 14 15 41 19 32 4z m-15 -455 c-7 -9 -15 -13 -19
-10 -3 3 1 10 9 15 21 14 24 12 10 -5z"/>
<path d="M4982 6195 c-7 -49 -17 -118 -23 -153 -11 -60 -7 -94 7 -58 3 9 12
16 20 16 20 0 25 53 16 175 l-8 110 -12 -90z"/>
<path d="M5061 6174 c0 -11 3 -14 6 -6 3 7 2 16 -1 19 -3 4 -6 -2 -5 -13z"/>
<path d="M5032 6087 c-7 -18 -12 -48 -12 -66 0 -34 -39 -131 -52 -131 -5 0 -8
-5 -8 -11 0 -11 58 26 77 51 7 8 13 28 13 43 0 20 6 30 20 34 23 6 23 5 11 35
-5 13 -12 35 -15 51 -8 36 -19 34 -34 -6z"/>
<path d="M4796 5971 c-3 -5 12 -20 34 -35 39 -25 65 -21 32 5 -31 25 -61 39
-66 30z"/>
<path d="M4904 5944 c-18 -14 -18 -14 6 -3 31 14 36 19 24 19 -6 0 -19 -7 -30
-16z"/>
<path d="M4940 5934 c-17 -9 -20 -14 -9 -14 9 0 22 7 29 15 15 18 13 18 -20
-1z"/>
<path d="M4920 5840 c-13 -8 -13 -10 2 -10 9 0 20 5 23 10 8 13 -5 13 -25 0z"/>
<path d="M4885 5800 c8 -13 45 -13 65 0 11 7 3 10 -28 10 -26 0 -41 -4 -37
-10z"/>
<path d="M4560 6180 c0 -5 5 -10 10 -10 6 0 10 5 10 10 0 6 -4 10 -10 10 -5 0
-10 -4 -10 -10z"/>
<path d="M5050 6858 c1 -17 39 -62 46 -55 4 3 -1 13 -10 22 -9 9 -16 23 -16
31 0 8 -4 14 -10 14 -5 0 -10 -6 -10 -12z"/>
<path d="M5285 6860 c-3 -5 -2 -10 4 -10 5 0 13 5 16 10 3 6 2 10 -4 10 -5 0
-13 -4 -16 -10z"/>
<path d="M3963 6841 c-11 -17 -10 -22 7 -31 22 -12 40 -6 40 12 0 7 -5 6 -14
-1 -12 -10 -15 -8 -18 14 -3 25 -3 25 -15 6z"/>
<path d="M3873 6826 c-18 -21 -19 -25 -6 -30 38 -15 67 14 40 41 -11 11 -17 9
-34 -11z"/>
<path d="M4036 6808 c-15 -21 -13 -43 3 -33 8 4 22 55 15 55 -1 0 -10 -10 -18
-22z"/>
<path d="M5000 6807 c0 -14 71 -117 80 -117 6 0 10 -6 10 -14 0 -8 9 -21 20
-29 12 -8 20 -19 18 -25 -2 -5 10 -21 25 -36 28 -26 47 -27 47 -3 0 15 -35 47
-51 47 -5 0 -8 4 -5 8 5 8 -55 100 -72 112 -5 3 -11 13 -15 23 -4 11 -12 15
-18 11 -7 -4 -18 1 -26 11 -7 11 -13 16 -13 12z"/>
<path d="M3922 6775 c-10 -12 -10 -15 0 -15 7 0 23 -3 36 -6 18 -5 22 -2 22
15 0 25 -37 29 -58 6z"/>
<path d="M5100 6785 c0 -10 38 -43 44 -38 9 9 -14 43 -29 43 -8 0 -15 -2 -15
-5z"/>
<path d="M3990 6745 c-13 -16 -6 -35 15 -35 12 0 25 21 25 41 0 14 -26 11 -40
-6z"/>
<path d="M4990 6740 c0 -5 5 -10 11 -10 5 0 7 5 4 10 -3 6 -8 10 -11 10 -2 0
-4 -4 -4 -10z"/>
<path d="M3894 6719 c-8 -13 25 -24 37 -12 7 7 3 12 -10 16 -12 3 -24 1 -27
-4z"/>
<path d="M5017 6691 c3 -12 9 -21 14 -21 14 0 11 16 -5 29 -12 10 -13 8 -9 -8z"/>
<path d="M3960 6680 c-13 -8 -12 -10 3 -10 10 0 15 -4 12 -10 -3 -5 -2 -10 3
-10 8 0 22 22 22 36 0 7 -25 4 -40 -6z"/>
<path d="M5040 6642 c0 -10 22 -32 32 -32 5 0 3 9 -4 20 -13 20 -28 27 -28 12z"/>
<path d="M5460 6614 c0 -13 18 -39 24 -34 2 3 -2 14 -10 24 -8 11 -14 16 -14
10z"/>
<path d="M3624 6560 c0 -11 4 -20 8 -20 4 0 8 5 8 10 0 17 22 11 47 -12 13
-12 23 -16 23 -10 0 13 -34 37 -65 46 -16 5 -21 1 -21 -14z"/>
<path d="M5440 6570 c0 -5 5 -10 10 -10 6 0 10 5 10 10 0 6 -4 10 -10 10 -5 0
-10 -4 -10 -10z"/>
<path d="M3530 6555 c-13 -15 -5 -54 8 -41 4 4 7 11 7 14 0 4 4 12 8 19 11 18
-9 25 -23 8z"/>
<path d="M3820 6560 c0 -5 5 -10 10 -10 6 0 10 5 10 10 0 6 -4 10 -10 10 -5 0
-10 -4 -10 -10z"/>
<path d="M5583 6563 c9 -2 25 -2 35 0 9 3 1 5 -18 5 -19 0 -27 -2 -17 -5z"/>
<path d="M5198 6554 c-10 -9 3 -42 19 -49 22 -8 24 -2 10 28 -12 27 -19 32
-29 21z"/>
<path d="M5120 6540 c0 -5 -7 -10 -15 -10 -22 0 -18 -23 5 -38 11 -7 20 -22
20 -35 0 -42 11 -63 41 -76 34 -15 59 -2 59 30 0 24 1 24 43 -1 30 -18 36 -19
47 -5 7 8 10 25 6 40 -8 30 9 33 24 5 14 -26 50 -27 50 -1 0 10 -7 22 -16 25
-10 4 -14 14 -11 26 5 19 4 19 -31 0 -27 -15 -39 -17 -49 -8 -10 8 -24 8 -54
-2 -40 -13 -40 -13 -70 23 -30 36 -49 47 -49 27z"/>
<path d="M5410 6520 c0 -16 0 -33 -1 -37 0 -4 4 -9 9 -11 5 -1 7 11 4 28 -3
18 0 30 7 30 6 0 11 5 11 10 0 6 -7 10 -15 10 -10 0 -15 -10 -15 -30z"/>
<path d="M5475 6500 c-3 -5 3 -10 15 -10 12 0 18 5 15 10 -3 6 -10 10 -15 10
-5 0 -12 -4 -15 -10z"/>
<path d="M3492 6458 c-39 -30 -55 -58 -32 -58 16 0 50 -62 50 -90 0 -21 5 -25
24 -25 14 1 31 6 38 12 10 8 18 8 31 -1 26 -20 21 -28 -12 -21 -23 5 -32 2
-40 -14 -9 -16 -6 -23 16 -41 14 -11 31 -19 37 -17 6 2 22 25 36 51 26 49 27
47 -17 74 -10 6 -10 15 -1 39 16 42 -3 85 -45 103 -18 7 -34 15 -37 17 -3 2
-25 -11 -48 -29z"/>
<path d="M5483 6408 c-47 -29 -45 -68 6 -119 21 -22 45 -39 54 -39 8 0 31 21
52 46 l38 46 -44 44 c-48 49 -59 51 -106 22z"/>
<path d="M3773 6369 c-1 -12 3 -16 13 -12 18 6 18 19 1 26 -7 3 -13 -3 -14
-14z"/>
<path d="M5326 6374 c-8 -21 -6 -23 17 -15 17 6 17 9 4 19 -12 10 -16 9 -21
-4z"/>
<path d="M3654 6355 c24 -18 39 -20 34 -2 -3 6 -15 13 -29 15 -23 2 -23 2 -5
-13z"/>
<path d="M5345 6341 c-7 -12 15 -61 27 -61 5 0 8 -6 6 -12 -3 -18 24 -58 39
-58 7 0 12 -4 11 -9 -2 -5 9 -23 25 -40 15 -17 27 -34 27 -37 0 -4 11 -21 24
-38 13 -17 27 -42 31 -56 l7 -25 -28 26 c-23 21 -34 25 -51 18 -14 -5 -23 -5
-23 1 0 6 8 10 18 10 14 0 14 2 3 9 -8 5 -16 16 -17 25 -3 23 -55 86 -70 86
-8 0 -14 -10 -14 -22 l-1 -23 -12 22 c-14 24 -86 77 -95 68 -3 -3 -1 -5 4 -5
5 0 25 -27 44 -60 21 -36 41 -59 50 -58 17 3 40 -9 40 -20 0 -5 -12 -8 -27 -7
-18 0 -28 -5 -28 -15 0 -8 6 -14 13 -12 6 1 11 -1 11 -5 -3 -20 2 -34 10 -29
5 3 8 -2 7 -12 0 -9 4 -16 11 -15 7 2 17 -7 24 -18 8 -15 8 -19 0 -15 -6 4
-11 2 -11 -3 0 -6 8 -11 18 -11 10 0 37 -31 68 -78 29 -42 67 -97 85 -121 18
-24 26 -42 18 -39 -13 4 -32 29 -65 84 -7 11 -15 16 -19 12 -10 -9 65 -118 82
-118 8 0 12 -4 9 -9 -8 -13 93 -141 112 -141 11 0 76 -77 85 -100 4 -12 6 -11
6 3 1 10 -4 27 -9 38 -8 14 -7 19 3 19 8 0 14 -6 15 -12 0 -7 2 -30 3 -50 1
-25 11 -45 27 -60 13 -13 30 -36 38 -51 8 -15 19 -25 24 -22 6 4 10 -5 10 -19
0 -17 10 -31 35 -46 19 -12 35 -27 35 -34 0 -18 71 -114 138 -185 24 -25 58
-68 76 -96 19 -27 56 -74 84 -102 40 -43 51 -50 56 -36 9 21 19 8 36 -44 7
-23 28 -56 46 -74 35 -34 42 -33 24 2 -12 21 -3 24 20 6 8 -7 16 -25 17 -42 1
-16 12 -42 24 -58 16 -22 18 -31 9 -37 -9 -6 -4 -13 17 -24 32 -16 49 -42 32
-48 -6 -2 -1 -15 11 -28 12 -14 18 -18 14 -10 -7 13 -5 13 9 1 18 -15 23 -26
7 -16 -23 14 -7 -10 48 -71 154 -174 425 -378 597 -451 170 -72 409 -87 585
-38 30 8 80 20 110 25 64 12 259 88 297 116 l26 19 -3 145 c-1 80 -5 168 -9
195 l-6 50 -32 -67 c-32 -69 -102 -146 -158 -175 -17 -9 -51 -15 -79 -14 -26
1 -54 -3 -61 -9 -18 -15 -88 6 -111 32 -10 10 -22 18 -29 18 -19 0 -95 59 -95
73 0 8 -13 26 -30 40 -16 15 -30 26 -30 24 0 -2 27 -63 59 -135 51 -112 84
-194 86 -212 0 -3 3 -9 6 -15 4 -5 10 -26 14 -45 l7 -34 -46 46 c-25 26 -46
52 -46 58 0 7 -6 10 -14 7 -8 -3 -20 1 -27 9 -9 11 -8 18 5 33 16 17 15 18 -9
14 -18 -4 -25 -12 -25 -28 0 -13 -3 -32 -7 -42 -6 -13 -9 -3 -13 31 -5 46 -10
54 -56 91 -45 37 -50 45 -42 65 16 44 2 107 -35 157 -19 28 -41 47 -51 47 -12
-2 -14 1 -6 11 18 21 12 104 -11 146 -9 17 -8 23 2 30 7 4 10 11 6 16 -5 4
-12 1 -18 -7 -8 -13 -10 -13 -19 0 -5 8 -10 21 -10 29 0 8 -7 11 -19 8 -13 -3
-18 -1 -14 8 6 18 -15 57 -28 50 -5 -4 -8 -1 -7 7 2 7 -3 12 -9 10 -7 -1 -13
5 -13 13 0 21 -8 19 -47 -11 l-33 -25 31 -44 c22 -31 36 -42 48 -37 13 5 14 3
3 -10 -11 -13 -9 -22 8 -50 22 -37 27 -62 6 -33 -13 18 -14 18 -25 -3 -6 -11
-11 -29 -12 -39 0 -10 -3 -13 -6 -6 -2 7 1 29 7 48 10 31 9 39 -10 70 -24 39
-35 42 -70 18 l-25 -16 23 25 c24 27 23 43 -10 90 l-19 27 -49 -31 c-28 -17
-50 -35 -50 -40 0 -5 10 -28 23 -51 12 -23 23 -43 24 -45 1 -2 14 4 30 14 l28
18 -23 -26 -23 -25 27 -59 c14 -33 31 -69 36 -81 6 -11 8 -27 5 -35 -2 -7 -8
-2 -12 15 -5 19 -14 27 -29 27 -15 0 -17 3 -8 9 10 6 11 14 4 27 -5 11 -18 38
-27 62 -10 23 -20 42 -23 42 -2 0 -22 -10 -44 -22 -43 -24 -41 -18 -22 -118
l5 -25 -15 25 c-8 14 -13 33 -10 43 9 28 -14 19 -31 -13 -9 -16 -18 -30 -20
-30 -6 0 6 31 23 58 19 29 11 64 -33 160 -20 41 -33 77 -31 79 2 3 10 -6 17
-19 6 -12 13 -24 14 -26 2 -2 13 5 24 15 14 11 21 29 21 53 l0 35 20 -25 c11
-14 20 -30 20 -37 0 -37 53 -24 70 17 7 17 18 30 24 30 7 0 7 3 1 8 -30 22
-47 89 -20 78 10 -3 15 1 15 11 0 9 9 27 21 39 16 17 27 21 43 15 102 -39 121
-42 154 -26 36 19 37 20 18 57 -21 41 -3 83 43 97 19 5 37 8 39 6 3 -2 -1 -32
-7 -67 -11 -58 -10 -69 13 -137 28 -80 56 -214 56 -265 0 -21 10 -43 28 -64
31 -34 42 -33 42 5 0 24 23 32 35 12 4 -6 19 -7 36 -4 33 7 38 -1 12 -20 -16
-12 -15 -13 8 -8 34 6 73 -39 64 -74 -5 -20 -2 -23 24 -23 20 0 41 -10 61 -30
27 -26 36 -29 69 -24 21 3 47 2 57 -4 14 -7 26 -6 44 4 14 7 38 13 53 14 16 0
50 16 82 40 32 24 60 37 69 34 20 -8 20 4 1 26 -17 19 -9 64 11 56 8 -3 14 1
14 11 0 13 5 12 25 -7 l25 -23 0 31 c0 18 -4 32 -9 32 -5 0 -11 18 -15 41 -12
77 -78 263 -131 374 -43 90 -66 123 -122 180 -69 70 -103 92 -178 115 -22 7
-66 25 -99 41 -32 15 -65 25 -72 22 -8 -3 -20 -1 -27 5 -6 5 -32 12 -56 16
-23 4 -84 27 -135 51 -51 25 -102 45 -113 45 -12 0 -25 5 -28 11 -5 6 -12 4
-21 -8 -11 -15 -14 -15 -15 -3 -1 8 -1 18 0 23 0 4 -16 7 -38 7 -21 0 -44 6
-50 14 -6 7 -33 22 -59 31 -99 38 -197 90 -197 105 0 9 -7 14 -18 12 -9 -2
-27 4 -39 13 -13 8 -31 15 -41 15 -26 0 -168 80 -162 91 4 5 -2 6 -11 2 -13
-5 -15 -3 -9 7 5 9 4 11 -3 6 -6 -4 -29 2 -51 14 -32 16 -39 17 -35 5 4 -10 0
-15 -10 -15 -9 0 -15 3 -15 8 3 20 -3 20 -26 0 -23 -20 -37 -56 -17 -44 5 3
14 -5 21 -17 7 -12 35 -33 63 -47 28 -14 53 -31 55 -37 3 -7 10 -13 17 -13 6
0 26 -14 45 -31 41 -38 31 -54 -34 -54 -41 0 -45 2 -45 23 0 22 -3 23 -39 17
-27 -4 -42 -2 -52 8 -8 8 -24 19 -37 26 -26 14 -31 -2 -7 -25 9 -9 15 -11 15
-4 0 6 14 1 30 -12 36 -26 38 -48 6 -85 -23 -27 -25 -27 -43 -10 -11 9 -27 17
-35 17 -22 0 -40 -24 -32 -44 4 -12 2 -15 -9 -11 -8 4 -27 -6 -44 -24 -30 -30
-31 -30 -48 -11 -10 11 -28 20 -39 20 -12 0 -27 9 -34 21 -7 12 -16 18 -19 15
-3 -3 -15 1 -27 9 -26 19 -56 19 -56 1 0 -8 15 -29 33 -45 17 -17 26 -31 19
-31 -10 0 -12 -8 -7 -29 6 -26 4 -28 -19 -24 -14 3 -23 9 -20 14 3 5 -11 40
-30 77 -20 37 -42 83 -51 102 -8 19 -19 42 -24 50 -5 8 -21 39 -35 67 -15 29
-34 63 -44 74 -28 36 -74 79 -83 79 -5 0 -9 6 -9 14 0 8 -13 25 -28 38 -16 13
-27 29 -25 35 2 6 -3 18 -12 26 -8 9 -15 27 -15 42 0 30 14 26 69 -24 19 -17
38 -31 42 -31 15 0 20 20 9 39 -6 13 -7 22 0 26 14 9 50 -17 56 -42 4 -13 13
-23 21 -23 8 0 11 -4 8 -10 -3 -5 3 -15 15 -22 11 -7 20 -18 20 -25 0 -7 4
-13 9 -13 11 0 41 28 41 38 -1 11 -37 52 -47 52 -10 0 -45 61 -39 68 8 7 56
-27 63 -44 6 -16 29 -19 38 -4 3 5 -1 20 -9 32 -34 48 -7 52 41 6 29 -28 33
-30 33 -12 0 12 -9 29 -21 40 -12 10 -27 31 -35 46 -13 24 -12 27 1 22 8 -4
15 -10 15 -15 0 -5 12 -9 26 -9 16 0 24 5 21 13 -2 6 -13 11 -24 9 -10 -1 -28
6 -37 17 -10 11 -23 18 -28 15 -5 -3 -40 16 -78 42 -50 34 -75 45 -91 41 -13
-4 -28 -2 -34 3 -6 5 -17 5 -25 -1 -12 -7 -11 -10 7 -15 52 -14 -10 -54 -85
-54 l-47 -1 38 -20 c35 -19 37 -22 24 -37 -12 -13 -13 -22 -5 -35 18 -33 -1
-31 -36 2 -19 18 -39 30 -44 27 -6 -3 -13 3 -17 14 -3 11 -17 28 -31 39 -13
10 -24 23 -24 29 0 5 -16 24 -35 41 -19 17 -35 33 -35 36 0 3 -13 18 -28 33
-15 15 -28 31 -29 35 -2 13 -93 107 -103 107 -5 0 -11 -4 -15 -9z m296 -479
c14 -15 28 -35 32 -45 3 -9 14 -17 22 -17 10 0 13 -5 9 -12 -4 -6 -1 -16 7
-22 8 -6 23 -29 33 -51 11 -22 27 -46 37 -53 9 -6 20 -26 24 -42 4 -17 11 -30
16 -30 5 0 9 -7 9 -16 0 -8 9 -35 21 -60 14 -32 25 -44 37 -42 23 4 27 52 8
80 -22 31 -20 45 4 23 12 -11 20 -31 20 -51 0 -31 13 -53 23 -37 2 5 2 3 1 -4
-2 -7 7 -20 19 -30 18 -15 21 -25 17 -63 -4 -34 -10 -46 -24 -48 -14 -3 -17 0
-13 13 4 10 3 14 -4 10 -6 -4 -8 -13 -6 -19 3 -7 -4 -18 -14 -24 -16 -10 -20
-9 -26 5 -3 10 -15 29 -27 43 -14 16 -15 20 -3 11 9 -7 17 -9 17 -4 0 24 -54
139 -70 150 -10 7 -26 36 -35 64 -10 29 -32 68 -49 88 -18 20 -38 51 -45 69
-8 17 -18 32 -23 32 -6 0 -8 7 -4 15 3 8 2 15 -2 15 -8 0 -52 62 -52 73 0 15
18 6 41 -21z m208 -189 c6 -14 10 -28 7 -30 -4 -4 -46 51 -46 61 0 14 29 -8
39 -31z m-184 -68 c11 -19 26 -36 35 -39 12 -3 12 -4 -2 -5 -15 -1 -78 75 -78
95 0 13 27 -17 45 -51z m1215 -142 c0 -64 -100 -101 -226 -84 -43 6 -79 13
-81 14 -8 8 59 57 78 57 13 0 18 4 13 12 -5 7 -2 9 8 5 9 -3 19 -3 23 1 3 3
26 11 50 18 37 9 45 8 45 -3 0 -7 7 -13 15 -13 18 0 20 16 4 26 -8 4 -3 12 12
20 21 12 26 11 42 -7 9 -12 17 -32 17 -46z m360 -109 c0 -21 -23 -79 -42 -106
l-19 -28 28 -24 c15 -14 40 -30 55 -37 19 -8 27 -18 26 -33 -2 -21 -6 -22 -54
-18 -43 4 -52 1 -58 -14 -6 -14 1 -26 25 -47 29 -24 31 -29 19 -42 -13 -12
-23 -10 -77 17 -64 32 -108 33 -83 2 11 -12 8 -20 -18 -47 -25 -26 -29 -36
-20 -50 5 -10 8 -20 6 -21 -64 -48 -78 -60 -78 -70 0 -12 -77 -76 -93 -76 -4
0 -27 -13 -50 -29 l-42 -29 -25 34 c-14 18 -28 34 -31 34 -4 0 -12 -13 -19
-30 -10 -24 -15 -28 -30 -20 -30 16 -38 12 -65 -27 -24 -37 -37 -31 -14 6 15
23 6 60 -21 89 -25 26 -47 28 -53 5 -4 -14 -5 -12 -6 5 0 12 -10 38 -20 57
-16 30 -17 41 -8 66 9 24 8 35 -6 62 -20 36 -87 75 -87 50 0 -8 -4 -11 -10 -8
-5 3 -10 14 -10 25 0 10 -13 32 -29 48 -19 21 -25 34 -18 41 7 7 6 15 -1 24
-7 8 -9 17 -5 20 3 4 1 7 -5 7 -7 0 -9 7 -5 17 5 13 2 15 -11 10 -12 -5 -7 6
15 30 34 39 38 40 78 20 21 -10 26 -8 45 16 25 31 51 29 59 -5 3 -11 12 -18
19 -15 13 4 14 16 3 54 -5 17 -2 25 10 30 17 6 31 -6 55 -47 7 -12 13 -13 28
-3 16 10 31 6 88 -23 40 -20 83 -34 104 -34 20 0 44 -6 53 -13 15 -10 61 -12
188 -8 8 1 25 10 37 21 12 11 28 20 37 20 9 0 18 12 22 31 5 26 9 30 28 25 15
-4 25 -1 29 10 8 21 8 24 -5 24 -5 0 -7 -5 -3 -11 4 -7 1 -10 -7 -7 -8 3 -15
12 -17 20 -2 12 6 15 42 14 26 0 46 -6 46 -12z m-1024 -161 c4 -10 6 -23 5
-29 -2 -14 18 -30 44 -37 18 -4 18 -5 -2 -6 -21 -1 -21 -3 -8 -28 7 -16 21
-48 31 -73 10 -25 22 -49 28 -55 6 -5 12 -21 13 -35 2 -19 -3 -14 -20 20 -12
25 -29 53 -38 62 -21 24 -77 136 -85 171 -5 20 -2 27 9 27 8 0 18 -8 23 -17z
m-76 -104 c16 -60 8 -66 -12 -8 -9 27 -12 49 -7 49 4 0 13 -18 19 -41z m1706
-64 c-15 -23 -15 -25 4 -35 26 -14 40 -6 33 19 -4 15 0 19 20 17 23 -1 24 -3
11 -17 -13 -14 -12 -18 10 -33 14 -9 37 -16 51 -16 14 0 28 -7 31 -15 4 -10
13 -13 25 -10 11 4 19 2 19 -5 0 -18 -30 -23 -58 -10 -33 15 -104 22 -97 9 4
-5 -6 -14 -20 -21 -24 -11 -25 -13 -8 -19 14 -6 14 -8 2 -8 -8 -1 -26 -13 -40
-27 -24 -26 -24 -26 -1 -15 12 6 22 17 22 23 0 18 10 3 15 -22 2 -13 11 -30
18 -39 8 -9 21 -31 31 -50 19 -40 8 -61 -30 -61 -13 0 -24 -2 -24 -4 0 -16 44
-76 56 -76 8 0 11 -6 8 -15 -7 -17 -40 -20 -49 -4 -4 6 -14 8 -22 5 -8 -4 -11
-1 -7 5 3 6 -4 21 -17 35 -26 27 -54 33 -45 8 5 -13 1 -14 -27 -8 -17 5 -44 8
-59 8 -16 -1 -28 4 -28 11 0 7 -11 20 -25 29 -24 16 -26 16 -35 -9 -15 -41
-12 -54 16 -68 l27 -12 -24 -5 -24 -6 23 -13 c20 -11 26 -10 38 6 13 17 15 17
39 -10 l25 -28 9 24 c12 32 54 40 75 15 11 -12 12 -18 3 -18 -8 0 -8 -3 -1 -8
5 -4 20 -27 32 -52 19 -39 20 -46 7 -60 -19 -21 -19 -31 0 -24 10 4 15 0 15
-10 0 -19 45 -39 70 -31 13 4 19 -1 23 -22 10 -53 -14 -57 -83 -14 -26 16 -58
31 -71 33 -13 1 -24 10 -24 18 0 9 7 14 19 12 13 -3 17 1 13 12 -3 8 -2 18 3
21 13 8 -7 45 -24 45 -7 0 -26 10 -41 21 -14 12 -40 23 -57 25 -16 2 -35 7
-41 11 -23 14 -47 13 -47 -2 0 -8 -9 -15 -20 -15 -11 0 -20 -4 -20 -10 0 -5
-4 -10 -10 -10 -5 0 -7 35 -4 88 11 188 80 353 170 408 80 50 88 54 113 54 22
0 23 -1 7 -25z m-1456 -42 c0 -8 -5 -11 -11 -7 -20 12 12 -40 39 -65 20 -17
22 -22 8 -17 -12 4 -23 0 -32 -11 -12 -17 -13 -16 -14 5 0 12 -7 34 -16 47 -9
13 -13 32 -10 43 7 22 36 26 36 5z m-146 -67 c-3 -14 -11 -26 -16 -26 -6 0 -7
7 -4 16 3 9 6 25 6 37 0 15 3 18 11 10 5 -5 7 -22 3 -37z m136 -60 c0 -3 -4
-8 -10 -11 -5 -3 -10 -1 -10 4 0 6 5 11 10 11 6 0 10 -2 10 -4z m124 -120 c3
-15 10 -34 17 -42 8 -10 8 -14 1 -14 -16 0 -32 34 -32 66 0 33 7 29 14 -10z
m395 -185 c15 -13 15 -13 -1 -8 -25 9 -58 -42 -58 -90 l0 -38 -20 25 c-12 16
-15 27 -8 31 7 5 4 16 -11 34 -11 15 -21 34 -21 41 0 27 -20 14 -21 -13 l-2
-28 -4 27 c-3 18 3 35 15 49 l20 21 20 -54 c12 -29 21 -48 21 -41 1 6 -4 24
-9 38 -9 23 -7 28 10 32 12 3 20 14 20 27 1 18 3 17 16 -9 9 -16 24 -36 33
-44z m1101 -3 c0 -47 -12 -48 -39 -4 -27 43 -26 54 2 58 28 4 37 -8 37 -54z
m-1220 -63 c11 -13 10 -14 -4 -9 -9 3 -16 10 -16 15 0 13 6 11 20 -6z m1220
-55 c13 -25 5 -40 -21 -40 -13 0 -19 7 -19 23 0 41 22 50 40 17z m-613 -70
c11 0 11 -4 1 -20 -12 -18 -13 -18 -30 8 -10 15 -18 36 -18 47 1 17 3 16 18
-7 9 -16 22 -28 29 -28z m-63 -24 c-10 -8 -21 -12 -24 -10 -5 6 21 24 34 24 6
0 1 -6 -10 -14z m-291 -26 c-7 -28 -13 -25 -13 6 0 14 4 23 9 20 5 -3 7 -15 4
-26z m197 -106 c0 -2 -4 -4 -9 -4 -5 0 -12 12 -15 26 -6 22 -9 24 -23 12 -15
-12 -15 -11 -5 8 6 11 9 32 6 45 -3 13 7 0 21 -30 14 -29 25 -55 25 -57z m67
48 c-2 -31 -5 -38 -19 -34 -16 4 -16 6 -1 38 9 19 18 34 19 34 1 0 1 -17 1
-38z m163 -114 c0 -15 -35 27 -36 42 0 8 -4 26 -7 40 -4 14 4 3 18 -24 14 -28
25 -53 25 -58z m29 -103 c-1 -29 -1 -29 -9 -5 -4 14 -8 34 -9 45 -1 16 1 17 9
5 5 -8 9 -28 9 -45z"/>
<path d="M5911 5473 c0 -7 -8 -13 -17 -13 -12 0 -15 -6 -10 -22 3 -13 6 -27 6
-32 0 -4 7 -5 15 -2 9 3 18 -1 21 -9 11 -27 34 -17 34 14 0 21 -6 32 -19 36
-11 3 -22 14 -24 23 -3 9 -5 11 -6 5z"/>
<path d="M6707 5453 c-13 -13 -7 -21 13 -16 11 3 20 9 20 14 0 10 -24 12 -33
2z"/>
<path d="M6600 5271 c0 -6 5 -11 10 -11 6 0 10 -6 10 -13 0 -23 39 -52 51 -40
19 19 -11 67 -44 71 -15 2 -27 -1 -27 -7z"/>
<path d="M6414 5252 c3 -6 2 -12 -3 -14 -5 -1 -3 -12 5 -23 11 -15 18 -17 31
-9 24 15 27 31 6 38 -10 3 -24 9 -32 12 -8 4 -11 2 -7 -4z"/>
<path d="M6515 5250 c-3 -5 1 -10 10 -10 11 0 15 -5 12 -14 -3 -7 -1 -18 5
-24 11 -11 38 -5 38 9 0 12 -37 49 -49 49 -6 0 -13 -4 -16 -10z"/>
<path d="M6454 5188 c-19 -20 -19 -21 3 -14 18 6 20 4 16 -14 -7 -25 13 -51
34 -43 11 4 14 2 9 -5 -15 -25 46 -104 73 -95 12 5 13 3 4 -7 -15 -17 24 -80
51 -80 15 0 16 -3 6 -15 -10 -12 -10 -15 4 -15 9 0 16 -7 16 -15 0 -8 4 -15
10 -15 6 0 9 -5 8 -11 -2 -6 7 -12 19 -14 13 -1 21 1 18 3 -3 3 2 16 10 29 14
21 14 23 0 23 -8 0 -15 5 -15 11 0 6 -7 8 -16 5 -15 -6 -15 -4 -3 10 11 14 11
18 1 21 -6 3 -9 9 -6 15 8 13 -45 68 -66 68 -9 0 -17 7 -17 14 0 25 -47 86
-66 86 -10 0 -15 5 -12 11 7 11 -19 45 -46 60 -12 6 -22 2 -35 -13z"/>
<path d="M6704 5172 c1 -44 18 -58 47 -39 21 16 22 17 3 24 -10 4 -26 16 -35
26 -15 19 -15 18 -15 -11z"/>
<path d="M6575 5180 c-3 -5 -1 -10 4 -10 6 0 11 -6 11 -12 0 -7 7 -22 15 -33
14 -18 16 -18 32 -2 16 15 15 18 -11 42 -29 27 -41 31 -51 15z"/>
<path d="M6675 5180 c-3 -5 -1 -10 4 -10 6 0 11 5 11 10 0 6 -2 10 -4 10 -3 0
-8 -4 -11 -10z"/>
<path d="M6900 5186 c0 -2 7 -9 15 -16 9 -7 15 -8 15 -2 0 5 -7 12 -15 16 -8
3 -15 4 -15 2z"/>
<path d="M6362 5158 c-17 -17 -15 -33 2 -19 11 9 13 5 10 -24 -2 -28 3 -38 26
-55 35 -25 56 -25 69 -2 7 13 5 26 -8 45 -37 57 -76 78 -99 55z"/>
<path d="M6643 5109 c-9 -9 -5 -20 14 -45 27 -36 31 -38 51 -25 17 10 -4 61
-25 61 -8 0 -11 5 -8 10 9 14 -18 13 -32 -1z"/>
<path d="M6775 5088 c0 -34 18 -46 44 -29 12 8 12 11 -1 25 -9 8 -18 12 -22 9
-3 -4 -6 1 -6 10 0 10 -3 17 -7 17 -5 0 -8 -15 -8 -32z"/>
<path d="M6880 5091 c0 -5 5 -13 10 -16 6 -3 10 -2 10 4 0 5 -4 13 -10 16 -5
3 -10 2 -10 -4z"/>
<path d="M6480 5050 c-20 -37 27 -98 65 -84 22 9 19 17 -19 63 -33 39 -36 41
-46 21z"/>
<path d="M6718 5029 c-22 -12 -23 -29 -2 -29 8 0 13 -4 10 -9 -11 -17 19 -32
38 -18 17 13 17 15 -5 40 -19 21 -28 24 -41 16z"/>
<path d="M6815 5030 c-3 -5 2 -10 11 -10 10 0 14 -3 11 -6 -11 -12 13 -44 33
-44 32 0 27 48 -6 60 -32 13 -41 13 -49 0z"/>
<path d="M6571 4954 c0 -11 3 -14 6 -6 3 7 2 16 -1 19 -3 4 -6 -2 -5 -13z"/>
<path d="M6775 4955 c-19 -15 -19 -16 7 -41 18 -19 32 -24 46 -20 l21 7 -21
34 c-23 39 -25 40 -53 20z"/>
<path d="M6497 4944 c-11 -11 -8 -54 4 -54 5 0 7 -4 4 -10 -10 -16 14 -50 35
-50 28 0 37 43 16 75 -9 14 -23 25 -30 25 -8 0 -16 5 -18 11 -2 5 -7 7 -11 3z"/>
<path d="M6585 4910 c3 -5 8 -10 11 -10 2 0 4 5 4 10 0 6 -5 10 -11 10 -5 0
-7 -4 -4 -10z"/>
<path d="M6596 4861 c-4 -7 -5 -15 -2 -18 9 -9 19 4 14 18 -4 11 -6 11 -12 0z"/>
<path d="M6626 4845 c4 -8 8 -15 10 -15 2 0 4 7 4 15 0 8 -4 15 -10 15 -5 0
-7 -7 -4 -15z"/>
<path d="M6610 4769 c0 -16 23 -21 31 -8 7 11 9 11 9 1 0 -7 5 -10 11 -7 6 4
7 10 4 14 -9 9 -55 9 -55 0z"/>
<path d="M6750 4740 c0 -5 5 -10 11 -10 5 0 7 5 4 10 -3 6 -8 10 -11 10 -2 0
-4 -4 -4 -10z"/>
<path d="M7737 4924 c-11 -11 3 -24 18 -18 8 4 12 10 9 15 -6 11 -18 12 -27 3z"/>
<path d="M7800 4885 c-20 -24 -6 -28 15 -5 10 11 13 20 8 20 -6 0 -16 -7 -23
-15z"/>
<path d="M7819 4754 c-14 -13 -21 -14 -39 -4 -29 15 -35 8 -11 -14 14 -13 24
-14 45 -7 14 6 26 7 26 2 0 -16 39 -19 51 -5 24 30 -45 56 -72 28z"/>
<path d="M7741 4704 c0 -11 3 -14 6 -6 3 7 2 16 -1 19 -3 4 -6 -2 -5 -13z"/>
<path d="M7785 4700 c-3 -5 3 -10 15 -10 12 0 18 5 15 10 -3 6 -10 10 -15 10
-5 0 -12 -4 -15 -10z"/>
<path d="M3301 6314 c-37 -31 -39 -48 -6 -70 23 -15 27 -15 62 3 51 25 62 46
39 72 -26 28 -58 26 -95 -5z"/>
<path d="M3780 6329 c0 -5 5 -7 10 -4 6 3 10 8 10 11 0 2 -4 4 -10 4 -5 0 -10
-5 -10 -11z"/>
<path d="M5288 6297 c6 -7 9 -23 5 -35 -4 -17 2 -30 28 -53 53 -47 59 -19 10
46 -23 30 -44 55 -48 55 -3 0 -1 -6 5 -13z"/>
<path d="M5648 6272 c3 -13 14 -27 26 -32 11 -5 17 -9 12 -9 -14 -1 27 -38 50
-44 10 -3 37 -8 58 -12 l39 -5 -26 24 c-15 14 -27 29 -27 34 0 17 -86 70 -111
69 -21 -2 -24 -6 -21 -25z"/>
<path d="M3815 6280 c-3 -5 -1 -10 4 -10 6 0 11 5 11 10 0 6 -2 10 -4 10 -3 0
-8 -4 -11 -10z"/>
<path d="M5535 6230 c3 -5 8 -10 11 -10 2 0 4 5 4 10 0 6 -5 10 -11 10 -5 0
-7 -4 -4 -10z"/>
<path d="M3415 6220 c-3 -5 -1 -10 4 -10 6 0 11 5 11 10 0 6 -2 10 -4 10 -3 0
-8 -4 -11 -10z"/>
<path d="M3727 6206 c-4 -15 -6 -31 -2 -34 10 -10 16 6 13 35 l-3 28 -8 -29z"/>
<path d="M5745 6150 c-3 -5 1 -10 9 -10 9 0 16 5 16 10 0 6 -4 10 -9 10 -6 0
-13 -4 -16 -10z"/>
<path d="M5687 6123 c-12 -11 -8 -23 8 -23 8 0 15 7 15 15 0 16 -12 20 -23 8z"/>
<path d="M2895 6031 c-16 -9 -60 -34 -97 -56 -78 -45 -86 -70 -42 -116 25 -26
26 -29 15 -80 -7 -30 -19 -64 -27 -77 -14 -22 -17 -22 -33 -8 -20 18 -57 21
-66 6 -3 -5 1 -10 9 -10 9 0 22 -13 30 -29 13 -25 13 -31 0 -50 -18 -25 -7
-27 25 -5 18 13 25 14 31 4 6 -9 11 -7 19 9 6 11 22 23 34 26 12 3 44 30 70
60 48 52 49 53 68 34 10 -10 25 -16 34 -13 23 9 15 48 -11 52 -19 3 -20 6 -10
27 13 29 23 31 48 9 15 -14 20 -15 33 -4 9 7 15 23 13 34 -2 17 -9 20 -32 18
-27 -3 -28 -1 -22 25 4 15 7 34 8 41 1 6 7 12 15 12 7 0 13 5 13 11 0 5 -5 7
-11 4 -12 -8 -49 23 -49 42 0 7 -5 13 -10 13 -6 0 -14 8 -18 18 -6 17 -9 17
-37 3z"/>
<path d="M5310 6020 c6 -11 13 -20 16 -20 2 0 0 9 -6 20 -6 11 -13 20 -16 20
-2 0 0 -9 6 -20z"/>
<path d="M3930 6003 c0 -5 5 -15 10 -23 8 -12 10 -11 10 8 0 12 -4 22 -10 22
-5 0 -10 -3 -10 -7z"/>
<path d="M5330 5988 c0 -3 20 -36 45 -72 25 -37 45 -72 45 -77 0 -18 83 -132
234 -324 83 -105 171 -216 196 -247 25 -31 49 -57 54 -57 5 -1 4 5 -1 12 -5 6
-86 109 -179 227 -280 355 -316 409 -295 443 11 16 10 18 -7 13 -15 -5 -25 1
-41 28 -20 32 -51 65 -51 54z"/>
<path d="M6125 5908 c-25 -81 -22 -100 26 -175 37 -57 73 -94 190 -198 102
-91 107 -92 43 -8 -37 49 -78 164 -70 196 3 13 20 33 37 47 31 22 34 23 62 7
61 -35 59 -15 -3 27 -111 75 -236 155 -251 161 -10 4 -19 -12 -34 -57z"/>
<path d="M3370 5951 c0 -10 30 -24 37 -17 3 2 -5 9 -16 16 -12 6 -21 7 -21 1z"/>
<path d="M4188 5944 c-16 -8 -28 -17 -28 -19 0 -11 19 -4 41 15 29 23 24 25
-13 4z"/>
<path d="M3320 5934 c0 -7 27 -34 34 -34 13 0 5 16 -14 28 -11 7 -20 10 -20 6z"/>
<path d="M3080 5910 c13 -9 7 -14 -12 -11 -4 0 -5 -6 -1 -15 5 -14 7 -14 21
-1 15 16 9 37 -11 37 -7 0 -6 -4 3 -10z"/>
<path d="M3955 5900 c17 -56 25 -70 52 -83 16 -8 44 -12 64 -10 20 3 46 0 58
-6 25 -14 27 -8 5 18 -14 16 -26 18 -70 14 l-53 -6 -31 49 c-19 29 -29 39 -25
24z"/>
<path d="M6062 5896 l-22 -22 24 -23 24 -23 7 22 c4 12 2 27 -3 32 -6 6 -8 17
-5 24 7 19 2 17 -25 -10z"/>
<path d="M3308 5892 c-10 -2 -18 -7 -18 -12 0 -5 -6 -7 -12 -5 -18 7 -47 -15
-30 -22 6 -2 12 -11 12 -18 0 -15 16 -22 45 -20 11 1 30 2 42 3 12 1 27 11 33
23 9 17 8 23 -7 34 -22 17 -43 22 -65 17z"/>
<path d="M2670 5879 c0 -5 5 -7 10 -4 6 3 10 8 10 11 0 2 -4 4 -10 4 -5 0 -10
-5 -10 -11z"/>
<path d="M3155 5880 c3 -5 8 -10 11 -10 2 0 4 5 4 10 0 6 -5 10 -11 10 -5 0
-7 -4 -4 -10z"/>
<path d="M5872 5851 c-11 -6 -8 -14 13 -35 30 -30 38 -32 54 -12 9 11 6 18
-18 35 -33 24 -32 24 -49 12z"/>
<path d="M3081 5831 c-9 -17 -9 -22 1 -26 19 -7 48 0 50 11 0 5 7 14 15 19 12
9 10 11 -6 12 -11 1 -24 -3 -27 -9 -4 -7 -9 -6 -14 2 -6 9 -11 7 -19 -9z"/>
<path d="M3193 5796 c-21 -24 -21 -24 -1 -29 15 -4 18 -2 14 11 -5 13 -2 12 9
-2 19 -25 40 -8 30 23 -8 28 -27 27 -52 -3z"/>
<path d="M6034 5784 c4 -11 2 -15 -8 -11 -10 4 -13 1 -9 -9 3 -7 11 -14 19
-14 8 0 14 -7 14 -15 0 -15 31 -21 43 -9 9 10 -15 54 -30 54 -7 0 -13 5 -13
10 0 6 -5 10 -11 10 -6 0 -8 -7 -5 -16z"/>
<path d="M3026 5765 c-20 -30 -20 -39 -2 -54 10 -9 19 -5 39 15 28 28 28 38
-3 54 -14 8 -21 5 -34 -15z"/>
<path d="M3955 5770 c3 -5 16 -10 28 -9 21 0 21 1 2 9 -28 12 -37 12 -30 0z"/>
<path d="M5946 5768 c5 -8 1 -9 -12 -5 -16 6 -15 4 4 -12 12 -11 22 -23 21
-28 -3 -19 2 -23 21 -13 21 11 17 36 -9 57 -20 16 -34 16 -25 1z"/>
<path d="M5991 5696 c-9 -11 -6 -18 18 -35 31 -23 51 -27 51 -11 0 6 -4 10 -8
10 -5 0 -14 11 -20 25 -13 28 -24 31 -41 11z"/>
<path d="M2877 5682 c-20 -22 -6 -42 30 -42 25 0 32 27 11 48 -16 16 -22 15
-41 -6z"/>
<path d="M6110 5666 c0 -32 18 -43 37 -23 20 20 10 47 -17 47 -15 0 -20 -7
-20 -24z"/>
<path d="M2650 5650 c0 -5 7 -10 16 -10 8 0 12 5 9 10 -3 6 -10 10 -16 10 -5
0 -9 -4 -9 -10z"/>
<path d="M2863 5610 c3 -10 0 -21 -7 -24 -7 -3 -6 -5 3 -5 11 -1 11 -4 1 -16
-15 -18 -10 -18 24 -5 31 11 35 45 7 60 -28 15 -34 13 -28 -10z"/>
<path d="M6169 5624 c-5 -64 -3 -74 14 -74 16 0 16 -1 1 -25 -16 -25 -16 -27
6 -50 13 -14 30 -25 37 -25 21 0 27 29 10 48 -9 10 -18 34 -20 54 -4 32 -46
96 -48 72z"/>
<path d="M6066 5613 c-11 -11 -6 -23 9 -23 8 0 15 4 15 9 0 13 -16 22 -24 14z"/>
<path d="M6230 5611 c0 -5 5 -13 10 -16 6 -3 10 -2 10 4 0 5 -4 13 -10 16 -5
3 -10 2 -10 -4z"/>
<path d="M6090 5572 c0 -12 19 -26 26 -19 2 2 -2 10 -11 17 -9 8 -15 8 -15 2z"/>
<path d="M2960 5564 c0 -2 9 -8 19 -13 14 -8 22 -7 30 3 8 10 4 13 -19 13 -17
0 -30 -2 -30 -3z"/>
<path d="M6260 5531 c0 -6 6 -11 14 -11 8 0 16 -7 20 -15 7 -19 26 -20 26 -1
0 7 -8 16 -17 20 -10 3 -24 9 -30 12 -7 3 -13 1 -13 -5z"/>
<path d="M2928 5503 c-20 -5 -23 -19 -7 -29 14 -8 60 16 53 28 -5 8 -17 9 -46
1z"/>
<path d="M6077 5499 c-9 -6 -15 -15 -12 -20 4 -5 11 -6 17 -3 7 5 9 1 5 -9 -4
-12 -1 -17 12 -17 26 0 30 8 17 35 -12 28 -14 28 -39 14z"/>
<path d="M6335 5480 c-3 -5 -1 -10 4 -10 6 0 11 5 11 10 0 6 -2 10 -4 10 -3 0
-8 -4 -11 -10z"/>
<path d="M6315 5400 c3 -5 8 -10 11 -10 2 0 4 5 4 10 0 6 -5 10 -11 10 -5 0
-7 -4 -4 -10z"/>
<path d="M2535 5330 c4 -12 2 -20 -5 -20 -6 0 -8 5 -5 10 3 6 2 10 -3 10 -18
0 -21 -13 -6 -28 14 -13 17 -13 31 1 16 16 12 47 -7 47 -7 0 -9 -8 -5 -20z"/>
<path d="M2579 5285 c-38 -21 -44 -44 -18 -72 25 -26 14 -31 -17 -8 -28 21
-40 19 -73 -17 l-30 -32 21 -23 c23 -25 18 -29 -13 -13 -10 6 -19 7 -19 2 0
-5 -12 -22 -26 -37 l-26 -28 29 -23 c15 -13 33 -23 40 -24 18 0 56 58 49 76
-3 8 -2 13 3 10 8 -5 71 51 71 64 0 4 16 27 35 51 39 50 41 55 21 75 -17 17
-14 17 -47 -1z"/>
<path d="M2244 5278 c-3 -5 -3 -12 0 -15 3 -3 1 -12 -5 -20 -23 -26 8 -12 33
16 l26 29 -24 0 c-13 0 -27 -5 -30 -10z"/>
<path d="M2340 5282 c0 -7 -6 -12 -14 -12 -24 0 -28 -32 -7 -53 24 -24 45 -17
65 21 14 27 14 31 -1 43 -15 12 -16 12 -9 -5 7 -19 6 -19 -14 -1 -11 10 -20
13 -20 7z"/>
<path d="M2436 5259 c-16 -16 -25 -29 -20 -29 5 0 15 -9 21 -19 11 -18 10 -19
-21 -14 -19 3 -36 1 -40 -6 -12 -19 -15 -50 -5 -56 18 -12 9 -25 -13 -20 -17
4 -28 -2 -41 -20 -17 -23 -17 -27 -2 -41 12 -13 19 -14 30 -4 17 14 21 45 5
35 -5 -3 -10 -1 -10 5 0 7 6 10 13 7 14 -5 65 35 87 68 8 13 28 39 44 59 16
20 26 40 22 43 -4 4 -11 1 -16 -7 -8 -12 -10 -10 -10 8 0 28 -8 26 -44 -9z"/>
<path d="M2190 5236 c0 -2 8 -10 18 -17 15 -13 16 -12 3 4 -13 16 -21 21 -21
13z"/>
<path d="M2060 5200 c0 -23 10 -26 28 -8 18 18 15 28 -8 28 -13 0 -20 -7 -20
-20z"/>
<path d="M2269 5207 c-27 -20 -30 -56 -6 -68 18 -10 24 -8 44 15 24 29 23 40
-5 55 -11 6 -23 5 -33 -2z"/>
<path d="M2153 5191 c-20 -16 -21 -21 -8 -31 12 -10 18 -10 30 0 8 7 12 16 9
21 -3 5 2 6 10 3 9 -3 16 -2 16 4 0 5 -7 13 -16 16 -19 7 -15 9 -41 -13z"/>
<path d="M5943 5193 c-15 -5 -17 -23 -4 -23 5 0 11 7 15 15 3 8 4 15 3 14 -1
0 -8 -3 -14 -6z"/>
<path d="M2204 5152 c4 -7 0 -19 -8 -28 -19 -18 -20 -33 -5 -71 l11 -28 19 24
c11 13 18 30 15 37 -3 7 -1 16 4 19 17 10 11 25 -7 18 -10 -4 -14 -2 -10 4 4
6 -1 17 -10 24 -12 10 -15 10 -9 1z"/>
<path d="M5950 5152 c0 -5 10 -17 21 -28 22 -19 22 -19 10 3 -12 24 -31 39
-31 25z"/>
<path d="M2094 5137 c-12 -7 -19 -18 -17 -24 3 -7 -2 -13 -11 -13 -17 0 -21
-17 -7 -39 7 -10 16 -6 42 18 19 17 28 31 20 31 -10 0 -11 3 -2 14 16 19 1 27
-25 13z"/>
<path d="M2568 5113 c-35 -39 -42 -63 -19 -63 22 0 44 23 33 34 -4 4 2 14 12
22 13 9 17 17 10 24 -7 7 -19 1 -36 -17z"/>
<path d="M1135 5083 c-10 -22 -7 -54 7 -70 15 -19 22 -16 36 14 14 32 16 63 3
63 -5 0 -16 3 -24 6 -8 3 -18 -3 -22 -13z"/>
<path d="M6002 5091 c4 -12 180 -218 249 -291 71 -76 40 -33 -46 65 -39 44
-99 115 -134 158 -58 71 -78 91 -69 68z"/>
<path d="M1230 5060 c0 -5 5 -10 10 -10 6 0 10 5 10 10 0 6 -4 10 -10 10 -5 0
-10 -4 -10 -10z"/>
<path d="M2245 5050 c-3 -5 -3 -10 2 -10 4 0 3 -4 -4 -8 -9 -6 -9 -13 0 -32
15 -30 36 -32 51 -5 6 11 15 23 20 26 5 4 -5 14 -22 23 -36 19 -39 19 -47 6z"/>
<path d="M2134 5041 c3 -5 -2 -12 -11 -15 -14 -6 -15 -9 -4 -15 11 -7 11 -13
1 -32 l-13 -24 22 19 c12 11 20 25 17 31 -3 8 5 10 22 8 l27 -4 -24 20 c-23
21 -47 29 -37 12z"/>
<path d="M2496 5034 c-4 -10 -1 -14 6 -12 15 5 23 28 10 28 -5 0 -13 -7 -16
-16z"/>
<path d="M2340 5004 c-23 -48 -21 -62 9 -84 l29 -20 22 30 c12 17 20 34 16 37
-3 3 2 12 11 18 15 11 14 13 -8 20 -13 4 -27 13 -31 19 -6 8 -11 7 -17 -3 -6
-10 -10 -10 -13 -1 -2 7 -10 -1 -18 -16z"/>
<path d="M2545 5022 c-14 -10 -13 -74 2 -89 17 -19 28 -16 43 12 23 44 -11
103 -45 77z"/>
<path d="M2428 4923 c-27 -32 -31 -43 -11 -36 16 6 16 5 4 -10 -9 -12 -10 -17
-2 -17 7 0 9 -4 6 -10 -4 -6 5 -10 20 -10 20 0 29 8 41 36 8 20 13 43 10 50
-8 20 -50 17 -68 -3z"/>
<path d="M2298 4902 c-17 -3 -34 -32 -19 -32 5 0 7 -8 4 -18 -7 -28 32 -25 47
3 7 14 17 22 22 19 4 -3 8 -2 8 3 0 12 -42 29 -62 25z"/>
<path d="M1135 4880 c3 -5 8 -10 11 -10 2 0 4 5 4 10 0 6 -5 10 -11 10 -5 0
-7 -4 -4 -10z"/>
<path d="M1255 4854 c-21 -28 -37 -30 -55 -9 -14 17 -40 20 -40 5 0 -16 42
-70 51 -65 4 3 10 -2 13 -10 4 -12 0 -14 -19 -9 -14 3 -25 2 -25 -3 0 -21 48
-52 88 -59 36 -6 42 -10 36 -26 -4 -13 -1 -18 8 -16 7 2 13 -1 13 -7 0 -5 -4
-9 -10 -8 -5 1 -17 -12 -25 -30 -11 -23 -22 -32 -37 -31 -13 0 -23 -5 -23 -13
0 -7 6 -13 13 -13 16 0 39 -53 31 -74 -4 -11 -1 -16 10 -16 9 0 16 6 16 13 0
8 18 34 41 58 41 44 41 44 24 74 -16 27 -15 30 1 42 21 16 37 -1 28 -29 -7
-23 15 -23 31 -1 14 20 0 53 -23 53 -9 0 -11 7 -7 20 4 14 2 20 -8 20 -8 0
-20 7 -27 15 -7 8 -27 17 -46 21 -30 6 -33 9 -28 33 3 14 15 34 26 43 19 17
18 17 -10 32 -27 14 -29 13 -47 -10z m30 -14 c3 -5 1 -10 -4 -10 -6 0 -11 5
-11 10 0 6 2 10 4 10 3 0 8 -4 11 -10z"/>
<path d="M2694 4815 c-12 -18 -24 -44 -28 -59 l-7 -27 31 22 c34 26 44 48 33
76 -7 19 -10 18 -29 -12z"/>
<path d="M1123 4773 c9 -2 23 -2 30 0 6 3 -1 5 -18 5 -16 0 -22 -2 -12 -5z"/>
<path d="M7150 4755 c-10 -13 -8 -22 14 -55 22 -34 30 -39 45 -30 35 18 32 37
-10 50 -27 9 -35 16 -27 21 9 6 10 11 2 19 -8 8 -14 6 -24 -5z"/>
<path d="M2620 4750 c0 -5 5 -10 10 -10 6 0 10 5 10 10 0 6 -4 10 -10 10 -5 0
-10 -4 -10 -10z"/>
<path d="M7230 4752 c0 -12 19 -26 26 -19 2 2 -2 10 -11 17 -9 8 -15 8 -15 2z"/>
<path d="M6385 4650 c21 -22 41 -40 44 -40 3 0 -13 18 -34 40 -21 22 -41 40
-44 40 -3 0 13 -18 34 -40z"/>
<path d="M1172 4668 c-18 -18 -15 -28 8 -28 11 0 20 -5 20 -11 0 -5 4 -8 9 -5
5 4 12 0 14 -6 3 -7 6 1 6 18 1 40 -31 58 -57 32z"/>
<path d="M7400 4622 c0 -4 9 -13 20 -20 19 -12 20 -11 8 8 -13 20 -28 27 -28
12z"/>
<path d="M6984 4597 c-26 -23 -26 -24 -10 -55 9 -17 16 -38 16 -46 0 -12 5
-13 29 -5 52 18 56 33 27 84 -15 25 -29 45 -31 45 -2 0 -16 -10 -31 -23z"/>
<path d="M1352 4528 c-16 -16 -15 -53 3 -68 40 -33 75 25 36 61 -24 22 -24 22
-39 7z"/>
<path d="M7560 4433 c0 -4 5 -22 12 -40 13 -37 28 -44 28 -13 0 11 4 20 9 20
5 0 7 9 4 20 -3 13 -14 20 -29 20 -13 0 -24 -3 -24 -7z m40 -23 c0 -5 -2 -10
-4 -10 -3 0 -8 5 -11 10 -3 6 -1 10 4 10 6 0 11 -4 11 -10z"/>
<path d="M1170 4414 l-25 -15 25 7 c14 3 29 10 35 15 15 14 -7 10 -35 -7z"/>
<path d="M7460 4401 c0 -22 10 -46 31 -72 50 -63 92 -46 52 22 -13 22 -23 28
-41 24 -17 -3 -22 0 -19 10 3 7 -1 21 -8 32 -13 17 -14 15 -15 -16z"/>
<path d="M998 4403 c7 -3 16 -2 19 1 4 3 -2 6 -13 5 -11 0 -14 -3 -6 -6z"/>
<path d="M1244 4377 c-6 -20 9 -37 34 -37 11 0 16 28 10 47 -6 16 -38 8 -44
-10z"/>
<path d="M1130 4348 c0 -31 17 -45 33 -29 8 8 5 17 -11 33 l-22 22 0 -26z"/>
<path d="M7760 4291 c0 -33 16 -49 33 -32 7 7 7 18 -1 36 -16 34 -32 32 -32
-4z"/>
<path d="M8100 4305 c0 -8 7 -15 15 -15 8 0 15 7 15 15 0 8 -7 15 -15 15 -8 0
-15 -7 -15 -15z"/>
<path d="M7557 4273 c-12 -3 -16 -11 -12 -22 3 -9 1 -39 -4 -67 -9 -46 -8 -51
15 -73 31 -28 43 -19 51 38 3 22 10 41 14 41 19 0 8 29 -13 36 -37 11 -48 27
-29 41 16 13 10 14 -22 6z"/>
<path d="M7875 4260 c-4 -6 -1 -18 7 -27 7 -9 12 -19 10 -22 -6 -10 13 -11 28
-1 12 7 12 12 0 34 -14 27 -34 34 -45 16z"/>
<path d="M4327 1083 c-4 -3 -7 -11 -7 -17 0 -6 5 -5 12 2 6 6 9 14 7 17 -3 3
-9 2 -12 -2z"/>
</g>
</svg>
